<?xml version="1.0" encoding="utf-8"?>
<!-- Generator: Adobe Illustrator 27.8.1, SVG Export Plug-In . SVG Version: 6.00 Build 0)  -->
<svg version="1.1" id="Isolation_Mode" xmlns="http://www.w3.org/2000/svg" xmlns:xlink="http://www.w3.org/1999/xlink" x="0px"
	 y="0px" viewBox="0 0 716.4 465.6" style="enable-background:new 0 0 716.4 465.6;" xml:space="preserve">
<path style="fill:none;stroke:#E0E0DF;stroke-width:0.75;stroke-miterlimit:10;" d="M327.4,195.7l0-0.2L327,193
	c-1.2-2.4-1.5-2.1-3.7-2.2c-2.2-0.2-20.8,3.2-40,17.2c-1,0.7-1.2,2.7-0.8,4.5 M329.6,200.2l0.6,1.1c1.2,2.5,1.1,2.6,1.6,4.9
	c0.5,2.4,0.3,7.4,0.3,7.4s0.3-20.5,0.4-21.6c0.1-1-0.3-3.7,2.4-3.5c35-1.4,46.8,4.6,48,5.7c1.2,1.1,1.8,1.6,1.8,3.7
	c0,2.2-0.1,3.2-0.1,3.2l1.3-0.3c0,0,2.2-1.9,3.1-2.9c0.9-0.9,1.8-0.6,5,0.4c12.3,3.6,25,14.5,27,17.4c2,2.9,3,5.2,3,7.1
	c0,1.8,0,2.4,0,2.4s2.1,0.4,2.4,1.1c1.1,2.2,1.3,7.1,1.7,10.9c0.4,3.9-0.3,12.1-0.9,20.3c-0.6,8.2-2.6,13.3-2.6,13.3
	s-3.3,75.1-4.8,95.6c-1.5,20.6-21.6,36.9-51.2,41.9c-33,5.6-53.9-0.2-64.7-4.6 M332.8,189.8c1.1,1.4,0.8,3.9,0.9,4.7
	c0.1,0.8,0.4,1.9,0.7,1.5c0.4-0.5,0.5-0.3,0.9,0.4c0.4,0.7,0.5,4.1,0.5,4.1l0.5-0.5c0,0,0.7,1.1,1.1,2.1c0.4,1,0.5,2.3,0.8,3
	c0.3,0.8,1.7-0.2,1.7-0.2c13-3.4,30.2,3.2,30.2,3.2c0.6-1.2,3.5-4,4.2-4.4c0.8-0.5,1.8,0.4,1.8,0.4s0.3-0.1,0.5-1
	c0.3-0.9,0.6-1.7,1.2-2.6c0.6-0.9,2-1.4,2-1.4l0.5,1.4c0,0,0.9-0.8,1-1.7c0.1-0.9,0.2-1.7,1.1-2.2c0.9-0.5,1.9-0.6,1.9-0.6
	 M392.1,247c-4.8-6.8-17.8-12.2-17.8-12.2s1.4-24.1,1.5-25.2c0.1-1.1,0.3-0.9,1.8-2.3s2.5-2.3,3-2.6c0.5-0.3,2-0.1,2-0.1
	s0.1-2.1,1.8-3.7 M423.9,222.3c0,0-3.7-1-4.7-1.1c-1-0.1-1.3,0.1-1.8,0.6c-0.5,0.6-1.4,2-1.4,2l-1.3,0.2c0,0-0.2-0.7-0.7-1.3
	c-0.4-0.7-0.9-0.5-0.9-0.5s-2.4,0.1-3.2,0.2c-0.8,0-0.9,0.9-1.2,1.4c-0.3,0.5-0.8,0.9-1.2,1.2c-0.5,0.3-1.3,0.1-1.6-0.8
	c-0.3-0.9-1.3-1.1-2.2-1c-0.9,0.1-8.7,0.9-8.7,0.9c-6.8-11.6-18.7-15-18.7-15 M416.4,227.5c0,0,0.7,0.4,1.1,0
	c0.4-0.4,1.9-1.7,1.9-1.7c2.1-0.5,4.6-0.6,4.6-0.6 M428,236.3c-0.3,13.9-9.5,21-9.5,21c-0.7-0.7-6-2.2-6-2.2l-1.8,1.2l-1.8-0.5
	l-0.7-2.2l-2.9-1.4l-2.1,1.8l-1.5-0.3c0,0-0.5-1.4-1-2.3c-0.4-1-1.2-0.8-2.8-1.3c-1.5-0.5-6-2.3-6-2.3 M412.5,255
	c13.8-13.9,6.9-29.2,6.9-29.2 M391.4,252.8c0,0,0.3-3.3,0.4-4.2c0.1-0.8,0.1-1.1,0.9-2.2c6.1-6.9,4.8-16.5,4.6-17.3
	c-0.2-0.9,0.1-1.1,1.2-1.4c1.1-0.3,6.8-1,7.7-0.9c0.9,0,2.1,2,2.1,2s0.6-0.1,1.2-0.9c0.7-0.7,1.8-1.5,1.8-1.5s2.5-0.4,3.2-0.5
	c0.8-0.1,1.4,0.8,1.4,0.8c6.9,16.4-6,29.2-6,29.2 M405.3,252c11.5-14.7,5.9-25.4,5.9-25.4 M408.4,228.8c4.7,15.2-6.6,24.7-6.6,24.7
	 M406.3,226.8c5.4,12-6,23.8-6,23.8 M412.8,287.6l2.6,9l3.1-39.4 M406.4,260.3c0,0-1.9-2.5-2.2-3c-0.3-0.5-1.2-0.9-1.9-1.2
	c-0.8-0.3-1.3-0.3-1.9,0.1c-0.6,0.4-1.5,1.2-1.5,1.2s-0.6-0.1-0.9-0.9c-0.3-0.9-2.1-1.7-2.1-1.7s-0.1-0.7-1.6-1.5
	c-1.5-0.8-2.6-0.4-2.6-0.4s-0.1,0.1-1.3-1.1c-1.2-1.2-2.7-0.2-3.8,0.5c-9.1,7.2-25.8,10.5-25.8,10.5 M367.5,306.3
	c0,0,0.3-19.7,0-22.6c-0.2-2.9-0.2-2.7-0.7-4.6s-0.6-2-0.6-2l-0.9,0.6c0,0-0.1-2.2-0.5-3.7c-0.4-1.5-0.7-2.3-0.7-2.3l-0.9,1.1
	c0,0-0.2-3.1-0.7-4.5c-0.5-1.4-1.9-5.6-1.9-5.6l0.3,22.5l4.6,10.5c0,0,1.4,9.5,1.5,10c0.1,0.5,0.6,1,1.1,0.8
	c31.1-4.9,45.4-19.7,45.4-19.7c0.3-0.4,0.6-0.1,0.7-2.6c0.1-2.6,0.2-21.3,0.2-22c0-0.8-0.1-0.9-0.7-1.5c-0.6-0.6-2.6-1.2-3.6-1.7
	c-1-0.5-1.3-0.4-1.7-0.3c0,0-13.4,12.8-42.2,18.5 M367.3,280.9c6.5-0.8,19.5-4.2,29.3-8.1c9.8-4,17.7-11.5,17.7-11.5 M404,257.1
	c-14.1,13.2-39.3,16.4-39.3,16.4 M364.1,271.7c25.1-5,34.7-14.4,34.7-14.4 M362.5,268.3c20.3-2.7,33.3-13.7,33.3-13.7 M360.5,307.5
	l0.3,13.5l5.7-0.4l0.7-14.3 M305.8,273.8l1.3-1.6c0,0,13.2,4.6,26.9,5.5c13.6,0.9,22.7,0.3,24.2,0c0,0,0.7-0.1,1.1,0.9
	c0.4,0.9,1,4.3,1,4.3l0.1,1.3c0,0,0.2,21.5,0.3,22.3c0.1,0.8,0,1.1-1.1,1.3c-1,0.1-25.6,2.8-48.6-4.4 M306.9,277.1
	c24.7,8.3,53.2,5.8,53.2,5.8 M358.1,277.7c0,0-0.6-4-0.8-4.5c-0.3-0.5-1-0.9-2.2-0.6c-21.5,2.1-37.6-3.8-41.1-4.9
	c-0.9-0.1-1.6,0-2.4,0.4c-0.8,0.4-1.2,1.6-1.8,2.5c-0.6,0.9-0.6,2.2-0.6,2.2 M314,267.7l1.5-2.8c0,0,2.3-2.5,3.6-3.5
	c1.4-1,2.2-1.1,3.4-0.7c11.6,3.1,28,2.8,29.4,3c1.4,0.1,1.8,0.7,2.2,1.5c0.4,0.7,0.7,1.9,1.1,2.8c0.4,0.9,0.5,1.2,0.5,2.1
	c0,0.9,0.2,2.5,0.2,2.5 M355.6,269c-24.6,1.6-40.2-3.8-40.2-3.8 M284.8,246.7l2.2-4c0,0,6.2-1,8.2-0.9c2,0.1,1.3,0,1.8,0.7
	c4,7.8,14.8,14,16.3,14.6s1.1,1,1.3,3.4c0.2,2.3,0.5,5.3,0.5,5.3 M266,238.8l0.4,10.7 M303.7,270.1l0-2.5c1.1-0.5,2.8-2.3,2.8-2.3
	l0.9,0.4l0.3,1.1l0.8-3.3c-18.1-10.4-21.5-20.8-21.5-20.8 M306.5,265.3c-17.4-8.8-20-15.2-21-17c-1-1.9-1.1-3-1.7-3.4
	c-0.6-0.4-0.9-1.1-1.7-1.1c-0.8,0-3.2,0.5-3.2,0.5l-2.3,2.2c0,0-1.5-0.7-2-1.2c-0.5-0.5-0.9-0.5-1.6-0.5c-0.7,0.1-2.7,0.6-3.7,0.9
	c-1,0.3-1.1,0.6-1.1,0.6c0.9,2.4,2.1,4.5,3.6,6.6 M280.2,254.1c-3.4-4.5-3.7-7.5-3.7-7.5 M303.7,267.6c-2.2-0.9-4.1-1.9-6-3
	 M290.8,259.8c-8.4-7.3-12-15.4-12-15.4 M308.5,263.6l5.8-5.5 M295.2,241.9l-0.1-3.9l-9.3,1.1l-1.7,2.7l-1.2,0.2l-1.7-1.9l-4.3,0.6
	l-1.2,1.9c0,0-0.8,0.3-1.3,0c-0.4-0.3-1.2-0.9-1.7-0.8c-0.6,0.1-4.1,0.8-4.1,0.8s-1,1-1.4,2.3c-0.2,0.6-0.1,3.1-0.1,5.1
	 M267.4,255.9l0.7-9.5 M285.7,239.1c-3.7-11.9,8.3-22.5,8.3-22.5l7.7,2.9c-7.3,6.1-6.6,18.5-6.6,18.5 M276.8,240.6
	C274.2,226,287,214,287,214l3.7,1.8l0.6,1.2l0.2,0.9l2.6-1.3 M290.6,215.8c-12.4,10.7-9.8,24.2-9.8,24.2 M291.4,217.8
	c-12.1,13.2-8.2,24-8.2,24 M285.4,215.7l-1.9-2.9c-13.8,12.9-10.6,28.9-10.6,28.9 M267.2,244.5c-5.7-18.8,10.4-33.1,10.4-33.1
	s1.3-0.2,2.1-0.3c1.4,0.7,3.8,1.8,3.8,1.8 M388.1,198.9c22.7,8.6,29.3,22.9,29.3,22.9 M413.7,222.4c-6.5-13.6-27.6-21.6-27.6-21.6
	 M383.2,202.8c18.2,5.6,25.9,19.9,25.9,19.9 M382.7,204.8c17,6.7,22.6,18.6,22.6,18.6 M393.9,244.9c1.1-3.7,1-20.8,1-20.8
	 M300.3,247.1c1.1-1.5,2.9-3.1,2.9-3.1c27.6-24.2,71.1-9.1,71.1-9.1 M302.7,249.6c19.3-15.2,48.8-15,65.5-10.9
	c16.6,4.2,23.5,12.7,23.5,12.7 M329.3,262.1c16.4-4.3,34-0.1,34-0.1 M374.9,223.9l-6,9.4l1.2-25.3 M365,230.3l-3.2-0.6l0.4-8.3
	l3.2,0.5L365,230.3z M391.2,242.1l-2.5-2.5l0.3-8.3l2.4,2.5L391.2,242.1z M385.5,237.4l-2.6-2l0.4-8.3l2.5,2L385.5,237.4z
	 M380.3,233.8l-2.6-1.4l0.4-8.3l2.5,1.4L380.3,233.8z M356,228.3l-3.6-0.5l0.3-8l3.6,0.3L356,228.3z M347.3,227.7l-3.5-0.1l-0.3-8.3
	l3.6,0L347.3,227.7z M328.7,229.3l-3.7,0.7l-0.3-8.3l3.9-0.9L328.7,229.3z M320.2,231.2l-3.5,1.3l-0.3-8.3l3.6-1.4L320.2,231.2z
	 M312.1,234.6l-3.3,1.7l-0.3-8.2l3.4-1.9L312.1,234.6z M332,217.6l5.8,12.9l0.4-25.1 M332.1,213.6l0,17.5 M282.7,208.6l4.4,0.9
	l1.6,2.8l1,0.1l1-1.6l4.1,1.8l0.7,1.9l0.7,0.4l1.3-1.9l6.7,2.2l1.2,0.9c7.1-7.6,26.3-11,26.3-11 M327,193.2
	c-21.6,3.4-40,16.3-40,16.3 M327.4,195.5c-18.5,2.7-36.8,15.4-36.8,15.4 M294.7,212.7c0,0,16.3-13.1,34.2-14.8 M305.8,241.8
	l-0.5-25.5 M336.2,199.9c22.8-4.6,38.5,3.3,38.5,3.3 M379.7,198.9c-23.1-8.4-43.3-4.1-44.2-4c-0.9,0.1-1.1,0.8-1.1,0.8 M333.5,192.1
	c28.7-4.2,48.2,4.7,48.2,4.7 M297.4,213.2c0,0,17.2-12.3,32.2-13c0,0-0.3-1.2-0.5-1.9c-0.2-0.7-0.4-1.1-0.4-1.1l-1.4-1.5 M208.3,145
	l0-0.2l-0.3-2.5c-1.2-2.4-1.5-2.1-3.7-2.2c-2.2-0.2-20.8,3.2-40,17.2c-1,0.7-1.2,2.7-0.8,4.5 M210.5,149.5l0.6,1.1
	c1.2,2.5,1.1,2.6,1.6,4.9c0.5,2.4,0.3,7.4,0.3,7.4s0.3-20.5,0.4-21.6c0.1-1-0.3-3.7,2.4-3.5c35-1.4,46.7,4.6,48,5.7
	c1.2,1.1,1.8,1.6,1.8,3.7c0,2.2-0.1,3.2-0.1,3.2l1.3-0.3c0,0,2.2-1.9,3-2.9c0.9-0.9,1.8-0.6,5,0.4c12.3,3.6,25,14.5,27,17.4
	c2,2.9,3,5.2,3,7.1c0,1.8,0,2.4,0,2.4s2,0.4,2.4,1.1c1.1,2.2,1.3,7.1,1.7,10.9 M308.8,188.2c-0.7,8.2-1.1,6.4-1.1,6.4 M213.7,139.1
	c1.1,1.4,0.8,3.9,0.9,4.7c0.1,0.8,0.3,1.9,0.7,1.5c0.3-0.4,0.5-0.3,0.9,0.4c0.4,0.7,0.5,4.1,0.5,4.1l0.5-0.5c0,0,0.7,1.1,1.1,2.1
	c0.4,1,0.5,2.3,0.8,3c0.3,0.8,1.7-0.2,1.7-0.2c13-3.4,30.2,3.2,30.2,3.2c0.6-1.2,3.5-4,4.3-4.4c0.8-0.5,1.8,0.4,1.8,0.4
	s0.3-0.1,0.5-1c0.3-0.9,0.6-1.7,1.2-2.6c0.6-0.9,2-1.4,2-1.4l0.5,1.4c0,0,0.9-0.8,1-1.7c0.1-0.9,0.2-1.7,1.1-2.2
	c0.9-0.5,1.9-0.6,1.9-0.6 M273.1,196.4c-4.8-6.8-17.8-12.2-17.8-12.2s1.4-24.1,1.5-25.2c0.1-1.1,0.3-0.9,1.8-2.3
	c1.6-1.4,2.5-2.3,3-2.6c0.5-0.3,2-0.1,2-0.1s0.1-2.1,1.8-3.7 M304.8,171.6c0,0-3.7-1-4.7-1.1c-1-0.1-1.3,0.1-1.8,0.6
	c-0.5,0.6-1.4,2-1.4,2l-1.3,0.2c0,0-0.2-0.7-0.7-1.3c-0.4-0.6-0.9-0.5-0.9-0.5s-2.4,0.1-3.2,0.2c-0.8,0-0.9,0.9-1.2,1.4
	c-0.3,0.5-0.8,0.9-1.2,1.2c-0.5,0.3-1.3,0.1-1.6-0.8c-0.3-0.9-1.3-1.1-2.2-1c-0.9,0.1-8.7,0.9-8.7,0.9c-6.8-11.6-18.7-15-18.7-15
	 M297.3,176.9c0,0,0.7,0.4,1.1,0c0.4-0.4,1.9-1.7,1.9-1.7c2.1-0.5,4.6-0.6,4.6-0.6 M308.9,185.6c-0.1,3.6-0.8,6.7-1.7,9.4
	 M290,203.4l-3.7-2l-2.1,1.8l-1.5-0.3c0,0-0.5-1.4-1-2.3c-0.4-0.9-1.2-0.8-2.8-1.3c-1.5-0.5-6-2.3-6-2.3 M297.7,199.2
	c7.9-12.2,2.6-23.9,2.6-23.9 M272.3,202.2c0,0,0.3-3.3,0.4-4.2c0.1-0.8,0.1-1.1,0.9-2.2c6.1-6.9,4.8-16.5,4.6-17.3
	c-0.2-0.9,0.1-1.1,1.2-1.4c1.1-0.3,6.8-1,7.7-0.9c0.9,0,2.1,2,2.1,2s0.6-0.1,1.2-0.9c0.7-0.7,1.8-1.5,1.8-1.5s2.5-0.4,3.3-0.5
	c0.8-0.1,1.4,0.8,1.4,0.8c4.5,10.6,0.7,19.7-2.6,24.8 M286.2,201.4c11.5-14.7,5.9-25.4,5.9-25.4 M289.3,178.2
	c4.8,15.2-6.6,24.7-6.6,24.7 M287.2,176.2c5.4,12-6,23.8-6,23.8 M285.1,206.6c-0.3-0.5-1.2-0.9-1.9-1.2c-0.8-0.3-1.3-0.3-1.9,0.1
	c-0.6,0.4-1.5,1.2-1.5,1.2s-0.6-0.1-0.9-0.9c-0.3-0.9-2.1-1.7-2.1-1.7s-0.1-0.7-1.6-1.5c-1.5-0.8-2.6-0.4-2.6-0.4s-0.1,0.1-1.3-1.1
	c-1.2-1.2-2.7-0.2-3.8,0.5c-9.1,7.2-25.8,10.5-25.8,10.5 M248.5,244.4c0,0,0.2-8.4-0.1-11.3c-0.2-2.9-0.2-2.7-0.7-4.6
	c-0.5-1.8-0.6-2-0.6-2l-0.9,0.6c0,0-0.1-2.2-0.5-3.7c-0.4-1.5-0.7-2.3-0.7-2.3l-0.9,1.1c0,0-0.2-3.1-0.7-4.5
	c-0.5-1.4-1.8-5.6-1.8-5.6l0.3,22.5l4.3,9.6 M271.6,218.8c-6.4,2.9-14.5,5.7-24.5,7.7 M248.2,230.3c4.5-0.6,12.3-2.4,19.9-4.8
	 M276,212.9c-13.8,7.9-30.4,9.9-30.4,9.9 M245,221.1c25.1-5,34.7-14.4,34.7-14.4 M243.4,217.7c20.2-2.7,33.3-13.7,33.3-13.7
	 M241.3,243.7c-0.1-0.8-0.1-10.1-0.1-10.1l-0.1-1.3c0,0-0.5-3.4-0.9-4.3c-0.4-0.9-1.1-0.9-1.1-0.9c-1.5,0.3-10.5,0.9-24.2,0
	c-13.6-0.9-26.9-5.5-26.9-5.5s-1.5,1.7-2.6,2.8c-1.1,1.1-0.5,0.9-0.7,3.1c-0.2,2.1,0.1,20.8,0.1,21.5c-0.1,0.8,0.1,1.1,1.5,1.8
	 M184.7,225.4c25.4,9.8,56.3,6.9,56.3,6.9 M239,227c0,0-0.6-4-0.8-4.5c-0.3-0.5-1-0.9-2.2-0.6c-21.5,2.1-37.6-3.8-41.1-4.9
	c-0.9-0.1-1.6,0-2.4,0.4c-0.8,0.4-1.2,1.6-1.8,2.5c-0.6,0.9-0.6,2.2-0.6,2.2 M194.9,217.1l1.5-2.8c0,0,2.3-2.5,3.6-3.5
	c1.4-1,2.2-1.1,3.4-0.7c11.6,3.1,28,2.8,29.4,3c1.4,0.1,1.8,0.7,2.2,1.5c0.4,0.7,0.7,1.9,1.1,2.8c0.4,0.9,0.5,1.2,0.5,2.1
	c0,0.9,0.2,2.5,0.2,2.5 M236.6,218.4c-24.6,1.6-40.2-3.8-40.2-3.8 M165.7,196.1l2.2-4c0,0,6.2-1,8.2-0.9c2,0.1,1.3,0,1.8,0.7
	c4,7.8,14.8,14,16.3,14.6c1.5,0.6,1,1,1.3,3.4c0.2,2.3,0.5,5.3,0.5,5.3 M146.9,188.2l0.7,18.6c0,0-0.3,0,0.3,7.4 M166.7,240.1
	c5.4,4.4,10.3,7.7,12.4,8.6c0,0-0.5-22.6-0.4-23.5c0.1-0.9-0.4-1,0.5-2.1c0.9-1.2,3.6-3.4,3.6-3.4l0.4,0.7l1.3-3.5
	c1.1-0.5,2.8-2.3,2.8-2.3l0.9,0.4l0.3,1.1l0.8-3.3c-18.1-10.4-21.5-20.8-21.5-20.8 M187.4,214.7c-17.4-8.8-20-15.2-21-17
	c-1-1.9-1.1-3-1.7-3.4c-0.6-0.4-0.9-1.1-1.7-1.1c-0.8,0-3.2,0.5-3.2,0.5l-2.3,2.2c0,0-1.5-0.7-2-1.2c-0.5-0.5-0.9-0.5-1.6-0.5
	c-0.7,0.1-2.7,0.6-3.7,0.9c-1,0.3-1.1,0.6-1.1,0.6c6.7,17.1,29.7,28,29.7,28 M182.9,219.7c-24.6-12.2-25.5-23.7-25.5-23.7
	 M184.6,217c-18.7-7.8-24.8-23.2-24.8-23.2 M189.4,212.9l5.8-5.4 M176.1,191.2l-0.1-3.9l-9.3,1.1l-1.7,2.7l-1.2,0.2l-1.7-1.9
	l-4.3,0.7l-1.2,1.9c0,0-0.8,0.3-1.3,0c-0.4-0.4-1.2-0.9-1.7-0.8c-0.6,0.1-4.1,0.8-4.1,0.8s-1,1-1.4,2.3c-0.4,1.3,0,9.6,0,9.6
	l0.4,1.4l0.7-9.5 M166.7,188.4c-3.7-11.9,8.3-22.5,8.3-22.5l7.7,2.9c-7.2,6.1-6.6,18.5-6.6,18.5 M157.8,190
	c-2.7-14.6,10.1-26.7,10.1-26.7l3.7,1.8l0.6,1.2l0.2,0.9l2.6-1.3 M171.6,165.1c-12.4,10.7-9.8,24.2-9.8,24.2 M172.3,167.2
	c-12.1,13.2-8.2,24-8.2,24 M166.1,164.8l-1.7-2.6c-13.8,12.9-10.6,28.9-10.6,28.9 M148.1,193.9c-5.7-18.8,10.4-33.1,10.4-33.1
	s1.3-0.2,2.1-0.3c1.4,0.7,3.8,1.8,3.8,1.8 M269,148.3c22.7,8.6,29.3,22.9,29.3,22.9 M294.6,171.8c-6.5-13.6-27.6-21.6-27.6-21.6
	 M264.1,152.2c18.2,5.6,25.9,19.9,25.9,19.9 M263.6,154.2c17,6.7,22.6,18.6,22.6,18.6 M274.8,194.3c1.1-3.7,1-20.8,1-20.8
	 M181.2,196.5c1.1-1.5,2.9-3.1,2.9-3.1c27.6-24.2,71.1-9.1,71.1-9.1 M183.6,199c19.3-15.2,48.8-15,65.4-10.9
	c16.6,4.2,23.5,12.7,23.5,12.7 M210.2,211.5c16.4-4.3,34-0.1,34-0.1 M255.8,173.2l-6,9.4l1.2-25.3 M245.9,179.7l-3.2-0.6l0.4-8.3
	l3.2,0.5L245.9,179.7z M272.1,191.5l-2.5-2.5l0.4-8.3l2.4,2.5L272.1,191.5z M266.4,186.8l-2.6-2l0.3-8.3l2.5,2L266.4,186.8z
	 M261.2,183.2l-2.6-1.4l0.4-8.3l2.5,1.4L261.2,183.2z M236.9,177.7l-3.6-0.5l0.3-8l3.6,0.3L236.9,177.7z M228.2,177.1l-3.5-0.1
	l-0.3-8.3l3.6,0L228.2,177.1z M209.7,178.7l-3.7,0.7l-0.3-8.3l3.9-0.8L209.7,178.7z M201.1,180.6l-3.5,1.3l-0.3-8.3l3.6-1.4
	L201.1,180.6z M193,184l-3.3,1.7l-0.3-8.2l3.4-1.9L193,184z M213,167l5.8,12.9l0.4-25.1 M213,162.9l0,17.5 M163.6,158l4.4,0.9
	l1.5,2.8l1,0.1l1-1.6l4.1,1.8l0.7,1.9l0.7,0.4l1.3-1.9l6.7,2.2l1.2,0.9c7.1-7.6,26.3-11,26.3-11 M208,142.6
	c-21.6,3.4-40,16.3-40,16.3 M208.4,144.9c-18.5,2.7-36.8,15.4-36.8,15.4 M175.7,162.1c0,0,16.3-13.1,34.2-14.8 M186.8,191.1
	l-0.5-25.5 M217.2,149.3c22.8-4.6,38.5,3.3,38.5,3.3 M260.7,148.2c-23.1-8.4-43.3-4.1-44.2-4c-0.9,0.1-1.1,0.8-1.1,0.8 M214.4,141.5
	c28.7-4.2,48.2,4.7,48.2,4.7 M178.3,162.5c0,0,17.2-12.3,32.2-13c0,0-0.3-1.2-0.5-1.9c-0.2-0.7-0.4-1.1-0.4-1.1l-1.4-1.5
	 M210.4,250.5l0-0.2l-0.3-2.5c-1.2-2.4-1.5-2.1-3.7-2.2c-2.2-0.2-20.8,3.2-40,17.2c-1,0.7-1.2,2.7-0.8,4.5 M212.7,255l0.6,1.1
	c1.2,2.5,1.1,2.6,1.6,4.9c0.5,2.4,0.3,7.4,0.3,7.4s0.3-20.5,0.4-21.6c0.1-1-0.3-3.7,2.4-3.5c35-1.4,46.7,4.6,48,5.7
	c1.2,1.1,1.8,1.6,1.8,3.7c0,2.2-0.1,3.2-0.1,3.2l1.3-0.3c0,0,1.8-1.7,2.8-2.6c0.1-0.1,0.2-0.2,0.2-0.2c0.9-0.9,1.8-0.6,5,0.4
	c1.2,0.3,2.3,0.7,3.5,1.2c0.1,0,0.2,0.1,0.3,0.1c11,4.4,21.5,13.5,23.2,16.1c2,2.9,3,5.2,3,7.1c0,1.8,0,2.4,0,2.4s2.1,0.4,2.4,1.1
	c1.1,2.2,1.3,7.1,1.7,10.9c0.2,2.4,0.1,6.5-0.3,11.2c-0.2,2.9-0.4,6-0.7,9.2c-0.6,8.2-2.6,13.3-2.6,13.3s-2.1,48.3-3.8,78
	c-0.4,7.3-0.8,13.5-1.1,17.6c-1.5,20.6-21.6,36.9-51.2,41.9c-41.5,7-63.3-3.6-70.9-7.3 M215.8,244.6c1.1,1.4,0.8,3.9,0.9,4.7
	c0.1,0.8,0.4,1.9,0.7,1.5c0.4-0.5,0.5-0.3,0.9,0.4c0.4,0.7,0.5,4.1,0.5,4.1l0.5-0.5c0,0,0.7,1.1,1.1,2.1c0.4,1,0.5,2.3,0.8,3
	c0.3,0.7,1.7-0.2,1.7-0.2c13-3.4,30.2,3.2,30.2,3.2c0.6-1.2,3.5-4,4.2-4.4c0.8-0.5,1.8,0.4,1.8,0.4s0.3-0.1,0.5-1
	c0.3-0.9,0.6-1.7,1.2-2.6c0.6-0.9,2-1.4,2-1.4l0.5,1.4c0,0,0.9-0.8,1-1.7c0.1-0.9,0.2-1.7,1.1-2.2c0.9-0.5,1.9-0.6,1.9-0.6
	 M275.2,301.9c-4.8-6.8-17.8-12.2-17.8-12.2s1.4-24.1,1.5-25.2c0.1-1.1,0.3-0.9,1.8-2.3c1.6-1.4,2.5-2.3,3-2.6c0.5-0.3,2-0.1,2-0.1
	s0.1-2.1,1.8-3.7 M306.9,277.1c0,0-3.7-1-4.7-1.1c-1-0.1-1.3,0.1-1.8,0.6c-0.5,0.6-1.4,2-1.4,2l-1.3,0.2c0,0-0.2-0.7-0.7-1.3
	c-0.4-0.6-0.9-0.5-0.9-0.5s-2.4,0.1-3.2,0.2c-0.8,0-0.9,0.9-1.2,1.4c-0.3,0.5-0.8,0.9-1.2,1.2c-0.5,0.3-1.3,0.1-1.6-0.8
	c-0.3-0.9-1.3-1.1-2.2-1c-0.9,0.1-8.7,0.9-8.7,0.9c-6.8-11.6-18.7-15-18.7-15 M299.4,282.4c0,0,0.7,0.4,1.1,0
	c0.4-0.4,1.9-1.7,1.9-1.7c2.1-0.5,4.6-0.6,4.6-0.6 M311,291.1c-0.3,13.9-9.5,21-9.5,21c-0.7-0.7-6-2.2-6-2.2l-1.8,1.2l-1.8-0.5
	l-0.7-2.2l-2.9-1.4l-2.1,1.8l-1.5-0.3c0,0-0.5-1.4-1-2.3c-0.4-0.9-1.2-0.9-2.8-1.3c-1.5-0.5-6-2.3-6-2.3 M295.5,309.9
	c13.8-13.9,6.9-29.2,6.9-29.2 M274.5,307.7c0,0,0.3-3.3,0.4-4.2c0.1-0.8,0-1.1,0.9-2.2c6.1-6.9,4.8-16.5,4.6-17.3
	c-0.2-0.9,0.1-1.1,1.2-1.4c1.1-0.3,6.8-1,7.7-0.9c0.9,0,2.1,2,2.1,2s0.6-0.1,1.2-0.9c0.7-0.7,1.8-1.5,1.8-1.5s2.5-0.4,3.2-0.5
	c0.8-0.1,1.4,0.8,1.4,0.8c6.9,16.4-6,29.2-6,29.2 M288.4,306.9c11.5-14.7,5.9-25.4,5.9-25.4 M291.4,283.7
	c4.8,15.2-6.6,24.7-6.6,24.7 M289.3,281.6c5.4,12-6,23.8-6,23.8 M295.8,342.4l2.6,9l3.1-39.4 M289.5,315.1c0,0-1.9-2.5-2.2-3
	c-0.3-0.5-1.2-0.9-1.9-1.2c-0.8-0.3-1.3-0.3-1.9,0.1c-0.6,0.4-1.5,1.2-1.5,1.2s-0.6-0.1-0.9-0.9c-0.3-0.9-2.1-1.7-2.1-1.7
	s-0.1-0.7-1.6-1.5c-1.5-0.8-2.6-0.4-2.6-0.4s-0.1,0.1-1.3-1.1c-1.2-1.2-2.7-0.2-3.8,0.5c-9.1,7.2-25.8,10.5-25.8,10.5 M250.5,361.2
	c0,0,0.3-19.7,0-22.6c-0.2-2.9-0.2-2.7-0.7-4.6c-0.5-1.8-0.6-2-0.6-2l-0.9,0.6c0,0-0.1-2.2-0.5-3.7c-0.4-1.5-0.7-2.3-0.7-2.3
	l-0.9,1.1c0,0-0.2-3.1-0.7-4.5c-0.5-1.4-1.8-5.6-1.8-5.6l0.3,22.5l4.6,10.5c0,0,1.4,9.5,1.5,10c0.1,0.5,0.6,1,1.1,0.8
	c31.1-4.9,45.4-19.7,45.4-19.7c0.3-0.4,0.6-0.1,0.7-2.6c0.1-2.6,0.2-21.3,0.2-22c0-0.8-0.1-0.9-0.7-1.5c-0.6-0.6-2.6-1.2-3.6-1.7
	c-1-0.5-1.3-0.4-1.7-0.3c0,0-13.4,12.8-42.2,18.5 M250.3,335.8c6.5-0.8,19.6-4.2,29.3-8.1c9.8-4,17.7-11.5,17.7-11.5 M287.1,311.9
	c-14.1,13.2-39.3,16.4-39.3,16.4 M247.1,326.6c25.1-5,34.7-14.4,34.7-14.4 M245.6,323.2c20.3-2.7,33.3-13.7,33.3-13.7 M243.5,362.4
	l0.3,13.5l5.7-0.4l0.7-14.3 M243.2,337.8c0,0-0.5-3.4-1-4.3c-0.4-0.9-1.1-0.9-1.1-0.9c-1.5,0.3-10.5,0.9-24.2,0
	c-13.6-0.9-26.9-5.5-26.9-5.5s-1.5,1.7-2.6,2.8c-1.1,1.1-0.5,0.9-0.7,3.1c-0.2,2.1,0.1,20.8,0.1,21.5c-0.1,0.8,0.1,1.1,1.5,1.8
	c24.6,9.6,53,6.5,54.1,6.4c1.1-0.2,1.2-0.5,1.1-1.3c-0.1-0.8-0.3-22.3-0.3-22.3L243.2,337.8z M186.9,330.9
	c25.4,9.8,56.3,6.9,56.3,6.9 M241.2,332.5c0,0-0.6-4-0.8-4.5c-0.3-0.5-1-0.9-2.2-0.6c-21.5,2.1-37.6-3.8-41.1-4.9
	c-0.9-0.1-1.6,0-2.4,0.4c-0.8,0.4-1.2,1.6-1.8,2.5c-0.6,0.9-0.6,2.2-0.6,2.2 M197.1,322.6l1.5-2.8c0,0,2.3-2.5,3.6-3.5
	c1.4-1,2.2-1.1,3.4-0.7c11.6,3.1,28,2.8,29.4,3c1.4,0.1,1.8,0.7,2.2,1.5c0.4,0.7,0.7,1.9,1.1,2.8c0.4,0.9,0.5,1.2,0.5,2.1
	c0,0.9,0.2,2.5,0.2,2.5 M238.7,323.9c-24.6,1.6-40.2-3.8-40.2-3.8 M167.9,301.6l2.2-4c0,0,6.2-1,8.2-0.9c2,0.1,1.3,0,1.8,0.7
	c4,7.8,14.8,14,16.3,14.6c1.5,0.6,1,1,1.3,3.4c0.2,2.3,0.5,5.3,0.5,5.3 M149.1,293.7l0.7,18.6c0,0-0.1,5.6,0.5,13
	c4.1,10,25.8,26.9,31,28.9c0,0-0.5-22.6-0.4-23.5c0.1-0.9-0.4-1,0.5-2.1c0.9-1.2,3.6-3.4,3.6-3.4l0.4,0.7l1.3-3.5
	c1.1-0.5,2.8-2.3,2.8-2.3l0.9,0.4l0.3,1.1l0.8-3.3c-18.1-10.4-21.5-20.8-21.5-20.8 M189.5,320.2c-17.4-8.8-20-15.2-21-17
	c-1-1.9-1.1-3-1.7-3.4c-0.6-0.4-0.9-1.1-1.7-1.1c-0.8,0-3.2,0.5-3.2,0.5l-2.3,2.2c0,0-1.5-0.7-2-1.2c-0.5-0.5-0.9-0.5-1.6-0.5
	c-0.7,0.1-2.7,0.6-3.7,0.9c-1,0.3-1.1,0.6-1.1,0.6c6.7,17.1,29.7,28,29.7,28 M185,325.2c-24.6-12.2-25.5-23.7-25.5-23.7
	 M186.8,322.5c-18.7-7.8-24.8-23.2-24.8-23.2 M191.5,318.4l5.8-5.5 M178.2,296.7l-0.1-3.9l-9.3,1.1l-1.7,2.7l-1.2,0.2l-1.7-1.9
	l-4.3,0.6l-1.2,1.9c0,0-0.8,0.3-1.3,0c-0.5-0.3-1.2-0.9-1.7-0.8c-0.6,0.1-4.1,0.8-4.1,0.8s-1,1-1.4,2.3c-0.4,1.3,0,9.6,0,9.6
	l0.4,1.4l0.7-9.5 M168.8,293.9c-3.7-11.9,8.3-22.5,8.3-22.5l7.7,2.9c-7.2,6.1-6.6,18.5-6.6,18.5 M159.9,295.5
	c-2.7-14.6,10.1-26.7,10.1-26.7l3.7,1.8l0.6,1.2l0.2,0.9l2.6-1.3 M173.7,270.6c-12.4,10.7-9.8,24.2-9.8,24.2 M174.5,272.7
	c-12.1,13.2-8.2,24-8.2,24 M168.3,270.3l-1.7-2.6c-13.8,12.9-10.6,28.9-10.6,28.9 M150.2,299.4c-5.7-18.8,10.4-33.1,10.4-33.1
	s1.3-0.2,2.1-0.3c1.4,0.7,3.8,1.8,3.8,1.8 M180.7,456c-21.2-13.3-22.1-28-23.3-36.4c-1.3-15.9-7.1-94.3-7.1-94.3 M271.1,253.8
	c22.7,8.6,29.3,22.9,29.3,22.9 M296.7,277.3c-6.5-13.6-27.6-21.6-27.6-21.6 M266.3,257.7c18.2,5.6,25.9,19.9,25.9,19.9 M265.7,259.7
	c17,6.7,22.6,18.6,22.6,18.6 M276.9,299.8c1.1-3.7,1-20.8,1-20.8 M183.4,302c1.1-1.5,2.9-3.1,2.9-3.1c27.6-24.2,71.1-9.1,71.1-9.1
	 M185.7,304.5c19.3-15.2,48.8-15,65.4-10.9c16.6,4.2,23.4,12.7,23.4,12.7 M212.3,317c16.4-4.3,34-0.1,34-0.1 M257.9,278.7l-6.1,9.4
	l1.2-25.3 M248.1,285.2l-3.2-0.6l0.4-8.3l3.2,0.5L248.1,285.2z M274.2,297l-2.5-2.5l0.4-8.3l2.4,2.5L274.2,297z M268.5,292.3l-2.6-2
	l0.4-8.3l2.5,2L268.5,292.3z M263.3,288.7l-2.6-1.4l0.4-8.3l2.5,1.4L263.3,288.7z M239.1,283.2l-3.6-0.5l0.3-8l3.6,0.3L239.1,283.2z
	 M230.4,282.6l-3.5-0.1l-0.3-8.3l3.6,0L230.4,282.6z M211.8,284.2l-3.7,0.7l-0.3-8.3l3.9-0.9L211.8,284.2z M203.2,286.1l-3.5,1.3
	l-0.3-8.3l3.6-1.4L203.2,286.1z M195.1,289.5l-3.3,1.7l-0.3-8.2l3.4-1.8L195.1,289.5z M215.1,272.5l5.8,12.9l0.4-25.1 M215.1,268.4
	l0,17.5 M165.7,263.5l4.4,0.9l1.5,2.8l1,0.1l1-1.6l4.1,1.8l0.7,1.9l0.7,0.4l1.3-1.9l6.7,2.2l1.2,0.9c7.1-7.6,26.3-11,26.3-11
	 M210.1,248.1c-21.6,3.4-40,16.3-40,16.3"/>
<path style="fill:none;stroke:#E0E0DF;stroke-width:0.75;stroke-miterlimit:10;" d="M212.9,248c-18.5,2.7-36.8,15.4-36.8,15.4
	 M180.2,265.2c0,0,16.3-13.1,34.2-14.8 M191.3,294.3l-0.5-25.5 M221.7,252.4c21.6-4.3,39.8,4,38.5,3.3 M265.2,251.4
	c-23.1-8.4-43.3-4.1-44.2-4c-0.9,0.1-1.1,0.8-1.1,0.8 M219,244.6c28.7-4.2,48.2,4.7,48.2,4.7 M182.8,265.7c0,0,17.2-12.3,32.2-13
	c0,0-0.3-1.2-0.5-1.9c-0.2-0.7-0.4-1.1-0.4-1.1l-1.4-1.5 M68.8,201.9l0-0.2l-0.3-2.5c-1.2-2.4-1.5-2.1-3.7-2.2
	c-2.2-0.2-20.8,3.2-40,17.2c-1,0.7-1.2,2.7-0.8,4.5 M71,206.4l0.6,1.1c1.2,2.5,1.1,2.6,1.6,4.9c0.5,2.4,0.3,7.4,0.3,7.4
	s0.3-20.5,0.4-21.6c0.1-1-0.3-3.7,2.4-3.5c35-1.4,46.7,4.6,48,5.7c1.2,1.1,1.8,1.6,1.8,3.7c0,2.2-0.1,3.2-0.1,3.2l1.3-0.3
	c0,0,2.2-1.9,3.1-2.9c0.9-0.9,1.8-0.6,5,0.4c12.3,3.6,25,14.5,27,17.4c2,2.9,3,5.2,3,7.1c0,1.8,0,2.4,0,2.4s2.1,0.4,2.4,1.1
	c1.1,2.2,1.3,7.1,1.7,10.9c0.4,3.8,0.3,8.7-0.3,17 M157.6,386.2c-7.5,13.8-25.1,24.7-47.7,28.5c-41.5,7-63.3-3.6-70.9-7.3 M74.2,196
	c1.1,1.4,0.8,3.9,0.9,4.7c0.1,0.8,0.4,1.9,0.7,1.5c0.4-0.5,0.5-0.3,0.9,0.4c0.4,0.7,0.5,4.1,0.5,4.1l0.5-0.5c0,0,0.7,1.1,1.1,2.1
	c0.4,1,0.5,2.3,0.8,3c0.3,0.8,1.7-0.2,1.7-0.2c13-3.4,30.2,3.2,30.2,3.2c0.6-1.2,3.5-4,4.3-4.4c0.8-0.5,1.8,0.4,1.8,0.4
	s0.3-0.1,0.5-1c0.3-0.9,0.6-1.7,1.2-2.6c0.6-0.9,2-1.4,2-1.4l0.5,1.4c0,0,0.9-0.8,1-1.7c0.1-0.9,0.2-1.7,1.1-2.2
	c0.9-0.5,1.9-0.6,1.9-0.6 M133.6,253.3c-4.8-6.8-17.8-12.2-17.8-12.2s1.4-24.1,1.5-25.2c0.1-1.1,0.3-0.9,1.8-2.3
	c1.6-1.4,2.5-2.3,3-2.6c0.5-0.3,2-0.1,2-0.1s0.1-2.1,1.8-3.7 M165.3,228.5c0,0-3.7-1-4.7-1.1c-1-0.1-1.3,0.1-1.8,0.6
	c-0.5,0.6-1.4,2-1.4,2l-1.3,0.2c0,0-0.2-0.7-0.7-1.3c-0.4-0.7-0.9-0.5-0.9-0.5s-2.4,0.1-3.2,0.2c-0.8,0-0.9,0.9-1.2,1.4
	c-0.3,0.5-0.8,0.9-1.2,1.2c-0.5,0.3-1.3,0.1-1.6-0.8c-0.3-0.9-1.3-1.1-2.2-1c-0.9,0.1-8.7,0.9-8.7,0.9c-6.8-11.6-18.7-15-18.7-15
	 M157.8,233.8c0,0,0.7,0.4,1.1,0c0.4-0.4,1.9-1.7,1.9-1.7c2.1-0.5,4.6-0.6,4.6-0.6 M169.4,242.5c-0.3,13.9-9.5,21-9.5,21
	c-0.7-0.7-6-2.2-6-2.2l-1.7,1.2l-1.8-0.5l-0.7-2.2l-2.9-1.4l-2.1,1.8l-1.5-0.3c0,0-0.5-1.4-1-2.3c-0.4-1-1.2-0.8-2.8-1.3
	c-1.5-0.5-6-2.3-6-2.3 M153.9,261.3c13.8-13.9,6.9-29.2,6.9-29.2 M132.8,259.1c0,0,0.3-3.3,0.4-4.2c0.1-0.8,0.1-1.1,0.9-2.2
	c6.1-6.9,4.8-16.5,4.6-17.3c-0.2-0.9,0.1-1.1,1.2-1.4c1.1-0.3,6.8-1,7.7-0.9c0.9,0,2.1,2,2.1,2s0.6-0.1,1.2-0.9
	c0.7-0.7,1.8-1.5,1.8-1.5s2.5-0.4,3.2-0.5c0.8-0.1,1.4,0.8,1.4,0.8c6.9,16.4-6,29.2-6,29.2 M146.7,258.3
	c11.5-14.7,5.9-25.4,5.9-25.4 M149.8,235c4.8,15.2-6.6,24.7-6.6,24.7 M147.7,233c5.4,11.9-6,23.8-6,23.8 M159.6,267.4l0.3-4
	 M147.8,266.5c0,0-1.9-2.5-2.2-3c-0.3-0.5-1.2-0.9-1.9-1.2c-0.8-0.3-1.3-0.3-1.9,0.1c-0.6,0.4-1.5,1.2-1.5,1.2s-0.6-0.1-0.9-0.9
	c-0.3-0.9-2.1-1.7-2.1-1.7s-0.1-0.7-1.6-1.5c-1.5-0.8-2.6-0.4-2.6-0.4s-0.1,0.1-1.3-1.1c-1.2-1.2-2.7-0.2-3.8,0.5
	c-9.1,7.2-25.8,10.5-25.8,10.5 M108.9,312.6c0,0,0.3-19.7,0-22.6c-0.2-2.9-0.2-2.7-0.7-4.6c-0.5-1.9-0.6-2-0.6-2l-0.9,0.6
	c0,0-0.1-2.2-0.5-3.7c-0.4-1.5-0.7-2.3-0.7-2.3l-0.9,1.1c0,0-0.2-3.1-0.7-4.5c-0.5-1.4-1.8-5.6-1.8-5.6l0.3,22.5L107,302
	c0,0,1.4,9.5,1.5,10c0.1,0.5,0.6,1,1.1,0.8c22-3.5,36-12.2,42-16.8 M155.6,273.3c0.1-2.6,0.1-4.2,0.2-5c0-0.8-0.1-0.9-0.7-1.5
	c-0.6-0.6-2.6-1.2-3.6-1.7c-1-0.5-1.3-0.4-1.7-0.3c0,0-13.4,12.8-42.2,18.5 M108.7,287.1c6.5-0.8,19.6-4.2,29.3-8.1
	c9.8-4,17.7-11.5,17.7-11.5 M145.4,263.3c-14.1,13.2-39.3,16.4-39.3,16.4 M105.5,278c25.1-5,34.7-14.4,34.7-14.4 M103.9,274.5
	c20.3-2.7,33.3-13.7,33.3-13.7 M101.9,313.8l0.3,13.5l5.7-0.4l0.7-14.3 M101.6,289.1c0,0-0.5-3.4-1-4.3c-0.4-0.9-1.1-0.9-1.1-0.9
	c-1.5,0.3-10.5,0.9-24.2,0c-13.6-0.9-26.9-5.5-26.9-5.5s-1.5,1.7-2.6,2.8c-1.1,1.1-0.5,0.9-0.7,3.1c-0.2,2.1,0.2,20.8,0.1,21.5
	c-0.1,0.8,0.1,1.1,1.5,1.8c24.6,9.6,53,6.5,54.1,6.4c1.1-0.2,1.2-0.5,1.1-1.3c-0.1-0.8-0.3-22.3-0.3-22.3L101.6,289.1z M45.2,282.2
	c25.4,9.8,56.3,6.9,56.3,6.9 M99.5,283.9c0,0-0.6-4-0.8-4.5c-0.3-0.5-1-0.9-2.2-0.6c-21.5,2.1-37.6-3.8-41-4.9
	c-0.9-0.1-1.6,0-2.4,0.4c-0.8,0.4-1.2,1.6-1.8,2.5c-0.6,0.9-0.6,2.2-0.6,2.2 M55.4,274l1.5-2.8c0,0,2.3-2.5,3.6-3.5
	c1.4-1,2.2-1.1,3.4-0.7c11.6,3.1,28,2.8,29.4,3c1.4,0.1,1.8,0.7,2.2,1.5c0.4,0.7,0.7,1.9,1.1,2.8c0.4,0.9,0.5,1.2,0.5,2.1
	c0,0.9,0.2,2.5,0.2,2.5 M97.1,275.3c-24.6,1.6-40.2-3.8-40.2-3.8 M26.2,253l2.2-4c0,0,6.2-1,8.2-0.9c2,0.1,1.3,0,1.8,0.7
	c4,7.8,14.8,14,16.3,14.6c1.5,0.6,1,1,1.3,3.4c0.2,2.3,0.5,5.3,0.5,5.3 M7.4,245.1l0.7,18.6c0,0-0.1,5.6,0.5,13
	c4.1,10,25.8,26.9,31,28.9c0,0-0.5-22.5-0.4-23.5c0.1-0.9-0.4-1,0.5-2.1c0.9-1.2,3.6-3.4,3.6-3.4l0.4,0.7l1.3-3.5
	c1.1-0.5,2.8-2.3,2.8-2.3l0.9,0.4l0.3,1.1l0.8-3.3C31.8,259.4,28.4,249,28.4,249 M47.9,271.6c-17.4-8.8-20-15.2-21-17
	c-1-1.9-1.1-3-1.7-3.4c-0.6-0.4-0.9-1.1-1.7-1.1c-0.8,0-3.2,0.5-3.2,0.5l-2.3,2.2c0,0-1.5-0.7-2-1.2c-0.5-0.5-0.9-0.5-1.6-0.5
	c-0.7,0.1-2.7,0.6-3.7,0.9c-1,0.3-1.1,0.6-1.1,0.6c6.7,17.1,29.7,28,29.7,28 M43.4,276.6c-24.6-12.2-25.5-23.7-25.5-23.7
	 M45.1,273.8c-18.7-7.8-24.8-23.2-24.8-23.2 M49.9,269.8l5.8-5.5 M36.6,248.1l-0.1-3.9l-9.3,1.1l-1.7,2.7l-1.2,0.2l-1.7-1.9
	l-4.3,0.7l-1.2,1.9c0,0-0.8,0.3-1.3,0c-0.4-0.3-1.2-0.9-1.7-0.8c-0.6,0.1-4.1,0.8-4.1,0.8s-1,1-1.4,2.3c-0.4,1.3,0,9.6,0,9.6
	l0.4,1.4l0.7-9.5 M27.2,245.3c-3.7-11.9,8.3-22.5,8.3-22.5l7.7,2.9c-7.3,6.1-6.6,18.5-6.6,18.5 M18.3,246.9
	c-2.7-14.6,10.1-26.7,10.1-26.7l3.7,1.8l0.6,1.2l0.2,0.9l2.6-1.3 M32.1,222c-12.4,10.7-9.8,24.2-9.8,24.2 M32.8,224.1
	c-12.1,13.2-8.2,24-8.2,24 M26.6,221.7l-1.7-2.6C11.1,232,14.3,248,14.3,248 M8.6,250.7C2.9,231.9,19,217.6,19,217.6
	s1.3-0.2,2.1-0.3c1.4,0.7,3.8,1.8,3.8,1.8 M39,407.3c-21.2-13.3-22.1-28-23.3-36.4c-1.3-15.9-7.1-94.3-7.1-94.3 M129.5,205.2
	c22.7,8.6,29.3,22.9,29.3,22.9 M155.1,228.6c-6.5-13.6-27.6-21.6-27.6-21.6 M124.6,209.1c18.2,5.6,25.9,19.9,25.9,19.9 M124.1,211
	c17,6.7,22.6,18.6,22.6,18.6 M135.3,251.1c1.1-3.7,1-20.8,1-20.8 M41.7,253.4c1.1-1.5,2.9-3.1,2.9-3.1c27.6-24.2,71.1-9.1,71.1-9.1
	 M44.1,255.9c19.3-15.2,48.8-15,65.4-10.9c16.6,4.2,23.5,12.7,23.5,12.7 M70.7,268.3c16.4-4.3,34-0.1,34-0.1 M116.3,230.1l-6.1,9.4
	l1.2-25.3 M106.4,236.5l-3.2-0.6l0.4-8.3l3.2,0.5L106.4,236.5z M132.6,248.4l-2.5-2.5l0.4-8.3l2.4,2.5L132.6,248.4z M126.9,243.7
	l-2.6-2l0.4-8.3l2.5,2L126.9,243.7z M121.7,240.1l-2.6-1.4l0.4-8.3l2.5,1.4L121.7,240.1z M97.4,234.5l-3.6-0.5l0.3-8l3.6,0.3
	L97.4,234.5z M88.7,234l-3.5-0.1l-0.3-8.3l3.6,0L88.7,234z M70.2,235.6l-3.7,0.7l-0.3-8.3l3.9-0.9L70.2,235.6z M61.6,237.5l-3.5,1.3
	l-0.3-8.3l3.6-1.4L61.6,237.5z M53.5,240.8l-3.3,1.7l-0.3-8.2l3.4-1.9L53.5,240.8z M73.5,223.9l5.8,12.9l0.4-25.1 M73.5,219.8
	l0,17.5 M24.1,214.9l4.4,0.9l1.6,2.8l1,0.1l1-1.6l4.1,1.8l0.7,1.9l0.7,0.4l1.3-1.9l6.7,2.2l1.2,0.9c7.1-7.6,26.3-11,26.3-11
	 M68.5,199.4c-21.6,3.4-40,16.3-40,16.3 M68.9,201.8c-18.5,2.7-36.8,15.3-36.8,15.3 M36.2,218.9c0,0,16.3-13.1,34.2-14.8 M47.3,248
	l-0.5-25.5 M77.7,206.1c22.8-4.6,38.5,3.3,38.5,3.3 M121.1,205.1c-23.1-8.4-43.3-4.1-44.2-4c-0.8,0.1-1.1,0.8-1.1,0.8 M74.9,198.4
	c28.7-4.2,48.2,4.7,48.2,4.7 M38.8,219.4c0,0,17.2-12.3,32.2-13c0,0-0.3-1.2-0.5-1.9c-0.2-0.7-0.4-1.1-0.4-1.1l-1.4-1.5
	 M189.4,352.1l-0.1,17l-4.5-2.4l-1.1-15 M615.2,59.3l0-0.2l-0.3-2.5c-1.2-2.4-1.5-2.1-3.7-2.2c-2.2-0.2-20.8,3.2-40,17.2
	c-1,0.7-1.2,2.7-0.8,4.5 M617.4,63.8l0.6,1.1c1.2,2.5,1.1,2.6,1.6,4.9c0.5,2.4,0.3,7.4,0.3,7.4s0.3-20.5,0.4-21.6
	c0.1-1-0.3-3.7,2.4-3.5c35-1.4,46.7,4.6,48,5.7c1.2,1.1,1.8,1.6,1.8,3.7c0,2.2-0.1,3.2-0.1,3.2l1.3-0.3c0,0,2.2-1.9,3.1-2.9
	c0.9-0.9,1.8-0.6,5,0.4c12.3,3.6,25,14.5,27,17.4c2,2.9,3,5.2,3,7.1c0,1.8,0,2.4,0,2.4s2.1,0.4,2.4,1.1c1.1,2.2,1.3,7.1,1.7,10.9
	c0.4,3.8-0.3,12.1-0.9,20.3c-0.6,8.2-2.6,13.3-2.6,13.3s-3.3,75.1-4.8,95.6c-1.5,20.6-21.6,36.9-51.2,41.9
	c-33,5.6-53.8-0.2-64.7-4.6 M620.6,53.4c1.1,1.4,0.8,3.9,0.9,4.7c0.1,0.8,0.3,1.9,0.7,1.5c0.3-0.5,0.5-0.3,0.9,0.4
	c0.4,0.7,0.5,4.1,0.5,4.1l0.5-0.5c0,0,0.7,1.1,1.1,2.1c0.4,1,0.5,2.3,0.8,3c0.3,0.8,1.7-0.2,1.7-0.2c13-3.4,30.2,3.2,30.2,3.2
	c0.6-1.2,3.5-4,4.3-4.4c0.8-0.5,1.8,0.4,1.8,0.4s0.3-0.1,0.5-1c0.3-0.9,0.6-1.7,1.2-2.6c0.6-0.9,2-1.4,2-1.4l0.5,1.4
	c0,0,0.9-0.8,1-1.7c0.1-0.9,0.2-1.7,1.1-2.2c0.9-0.5,1.9-0.6,1.9-0.6 M679.9,110.7c-4.8-6.8-17.8-12.2-17.8-12.2s1.4-24.1,1.5-25.2
	c0.1-1.1,0.3-0.9,1.8-2.3c1.6-1.4,2.5-2.3,3-2.6c0.5-0.3,2-0.1,2-0.1s0.1-2.1,1.8-3.7 M711.7,85.9c0,0-3.7-1-4.7-1.1
	c-1-0.1-1.3,0.1-1.8,0.6c-0.5,0.6-1.4,2-1.4,2l-1.3,0.2c0,0-0.2-0.7-0.7-1.3c-0.4-0.7-0.9-0.5-0.9-0.5s-2.4,0.1-3.2,0.2
	c-0.8,0-0.9,0.9-1.2,1.4c-0.3,0.5-0.8,0.9-1.2,1.2c-0.5,0.3-1.3,0.1-1.6-0.8c-0.3-0.9-1.3-1.1-2.2-1c-0.9,0.1-8.7,0.9-8.7,0.9
	c-6.8-11.6-18.7-15-18.7-15 M704.2,91.2c0,0,0.7,0.4,1.1,0c0.4-0.4,1.9-1.7,1.9-1.7c2.1-0.5,4.6-0.6,4.6-0.6 M715.8,99.9
	c-0.3,13.9-9.5,21-9.5,21c-0.7-0.7-6-2.2-6-2.2l-1.8,1.2l-1.8-0.5l-0.7-2.2l-2.9-1.4l-2.1,1.8l-1.5-0.3c0,0-0.5-1.4-1-2.3
	c-0.4-1-1.2-0.8-2.8-1.3c-1.5-0.5-6-2.3-6-2.3 M700.3,118.7c13.8-13.9,6.9-29.2,6.9-29.2 M679.2,116.5c0,0,0.3-3.3,0.4-4.2
	c0.1-0.8,0.1-1.1,0.9-2.2c6.1-6.9,4.8-16.5,4.6-17.3c-0.2-0.9,0.1-1.1,1.2-1.4c1.1-0.3,6.8-1,7.7-0.9c0.9,0,2.1,2,2.1,2
	s0.6-0.1,1.2-0.9c0.7-0.7,1.8-1.5,1.8-1.5s2.5-0.4,3.2-0.5c0.8-0.1,1.4,0.8,1.4,0.8c6.9,16.4-6,29.2-6,29.2 M693.1,115.7
	c11.5-14.7,5.9-25.4,5.9-25.4 M696.2,92.4c4.7,15.2-6.6,24.7-6.6,24.7 M694.1,90.4c5.4,12-6,23.8-6,23.8 M700.5,151.2l2.6,9
	l3.1-39.4 M694.2,123.9c0,0-1.9-2.5-2.2-3c-0.3-0.5-1.2-0.9-1.9-1.2c-0.8-0.3-1.3-0.3-1.9,0.1c-0.6,0.4-1.5,1.2-1.5,1.2
	s-0.6-0.1-0.9-0.9c-0.3-0.9-2.1-1.7-2.1-1.7s-0.1-0.7-1.6-1.5c-1.5-0.8-2.6-0.4-2.6-0.4s-0.1,0.1-1.3-1.1c-1.2-1.2-2.7-0.2-3.8,0.5
	c-9.1,7.2-25.8,10.5-25.8,10.5 M655.3,170c0,0,0.3-19.7,0-22.6c-0.2-2.9-0.2-2.7-0.7-4.6c-0.5-1.9-0.6-2-0.6-2l-0.9,0.6
	c0,0-0.1-2.2-0.5-3.7c-0.4-1.5-0.7-2.3-0.7-2.3l-0.9,1.1c0,0-0.2-3.1-0.7-4.5c-0.5-1.4-1.8-5.6-1.8-5.6l0.3,22.5l4.6,10.5
	c0,0,1.4,9.5,1.5,10c0.1,0.5,0.6,1,1.1,0.8c31.1-4.9,45.4-19.7,45.4-19.7c0.3-0.4,0.6-0.1,0.7-2.6c0.1-2.6,0.2-21.3,0.2-22
	c0-0.8-0.1-0.9-0.7-1.5c-0.7-0.6-2.6-1.2-3.6-1.7c-1-0.5-1.3-0.4-1.7-0.3c0,0-13.4,12.8-42.2,18.5 M655.1,144.5
	c6.5-0.8,19.6-4.2,29.3-8.1c9.8-4,17.7-11.5,17.7-11.5 M691.8,120.7c-14.1,13.2-39.3,16.4-39.3,16.4 M651.9,135.4
	c25.1-5,34.7-14.4,34.7-14.4 M650.3,131.9c20.2-2.7,33.3-13.7,33.3-13.7 M648.3,171.2l0.3,13.5l5.7-0.4l0.7-14.3 M593.6,137.5
	l1.3-1.6c0,0,13.2,4.6,26.9,5.5c13.6,0.9,22.7,0.3,24.2,0c0,0,0.7-0.1,1.1,0.9c0.4,1,1,4.3,1,4.3l0.1,1.3c0,0,0.2,21.5,0.3,22.3
	c0.1,0.8,0,1.1-1.1,1.3c-1,0.1-25.6,2.8-48.6-4.4 M594.7,140.8c24.7,8.3,53.2,5.8,53.2,5.8 M645.9,141.3c0,0-0.6-4-0.8-4.5
	c-0.3-0.5-1-0.9-2.2-0.6c-21.5,2.1-37.6-3.8-41-4.9c-0.9-0.1-1.6,0-2.4,0.4c-0.8,0.4-1.2,1.6-1.8,2.5c-0.6,0.9-0.6,2.2-0.6,2.2
	 M601.8,131.4l1.5-2.8c0,0,2.3-2.5,3.6-3.5c1.4-1,2.2-1.1,3.4-0.7c11.6,3.1,28,2.8,29.4,3c1.4,0.1,1.8,0.7,2.2,1.5
	c0.4,0.7,0.7,1.9,1.1,2.8c0.4,0.9,0.5,1.2,0.5,2.1c0,0.9,0.2,2.5,0.2,2.5 M643.4,132.7c-24.6,1.6-40.2-3.8-40.2-3.8 M572.6,110.4
	l2.2-4c0,0,6.2-1,8.2-0.9c2,0.1,1.3,0,1.8,0.7c4,7.8,14.8,14,16.3,14.6c1.5,0.6,1,1,1.3,3.4c0.2,2.3,0.5,5.3,0.5,5.3 M553.8,102.5
	l0.4,10.7 M591.5,133.8l0-2.5c1.1-0.5,2.8-2.3,2.8-2.3l0.9,0.4l0.3,1.1l0.8-3.3c-18.1-10.4-21.5-20.8-21.5-20.8 M594.3,129
	c-17.4-8.8-20-15.2-21-17c-1-1.9-1.1-3-1.7-3.4c-0.6-0.4-0.9-1.1-1.7-1.1c-0.8,0-3.2,0.5-3.2,0.5l-2.3,2.2c0,0-1.5-0.7-2-1.2
	c-0.5-0.5-0.9-0.5-1.6-0.5c-0.7,0.1-2.7,0.6-3.7,0.9c-1,0.3-1.1,0.6-1.1,0.6c0.9,2.4,2.1,4.5,3.6,6.6 M568,117.8
	c-3.4-4.5-3.7-7.5-3.7-7.5 M591.5,131.2c-2.2-0.9-4.1-1.9-6-3 M578.6,123.5c-8.4-7.3-12-15.4-12-15.4 M596.3,127.2l5.8-5.4
	 M583,105.5l-0.1-3.9l-9.3,1.1l-1.7,2.7l-1.2,0.2l-1.7-1.9l-4.3,0.7l-1.2,1.9c0,0-0.8,0.3-1.3,0c-0.5-0.4-1.2-0.9-1.7-0.8
	c-0.6,0.1-4.1,0.8-4.1,0.8s-1,1-1.4,2.3c-0.2,0.6-0.1,3.1-0.1,5.1 M555.2,119.6l0.7-9.5 M573.6,102.7c-3.7-11.9,8.3-22.5,8.3-22.5
	l7.7,2.9c-7.3,6.1-6.6,18.5-6.6,18.5 M564.7,104.3c-2.7-14.6,10.1-26.7,10.1-26.7l3.7,1.8l0.6,1.2l0.2,0.9l2.6-1.3 M578.4,79.4
	c-12.4,10.7-9.8,24.2-9.8,24.2 M579.2,81.5c-12.1,13.2-8.2,24-8.2,24 M573.2,79.4l-1.9-2.9c-13.8,12.9-10.6,28.9-10.6,28.9
	 M555,108.1C549.3,89.3,565.4,75,565.4,75s1.3-0.2,2.1-0.3c1.4,0.7,3.8,1.8,3.8,1.8 M675.9,62.6c22.7,8.6,29.3,22.9,29.3,22.9
	 M701.4,86c-6.5-13.6-27.6-21.6-27.6-21.6 M671,66.5c18.2,5.6,25.9,19.9,25.9,19.9 M670.5,68.4c17,6.7,22.6,18.6,22.6,18.6
	 M681.7,108.5c1.1-3.7,1-20.8,1-20.8 M588.1,110.8c1.1-1.5,2.9-3.1,2.9-3.1c27.6-24.2,71.1-9.1,71.1-9.1 M590.5,113.3
	c19.3-15.2,48.8-15,65.4-10.9c16.6,4.2,23.5,12.7,23.5,12.7 M617.1,125.7c16.4-4.3,34-0.1,34-0.1 M662.7,87.5l-6.1,9.4l1.2-25.3
	 M652.8,93.9l-3.2-0.6l0.4-8.3l3.2,0.5L652.8,93.9z M679,105.8l-2.5-2.5l0.4-8.3l2.4,2.5L679,105.8z M673.3,101.1l-2.6-2l0.4-8.3
	l2.5,2L673.3,101.1z M668.1,97.5l-2.6-1.4l0.4-8.3l2.5,1.4L668.1,97.5z M643.8,91.9l-3.6-0.5l0.3-8l3.6,0.3L643.8,91.9z M635.1,91.4
	l-3.5-0.1l-0.3-8.3l3.6,0L635.1,91.4z M616.5,93l-3.7,0.7l-0.3-8.3l3.9-0.8L616.5,93z M608,94.9l-3.5,1.3l-0.3-8.3l3.6-1.4L608,94.9
	z M599.9,98.2l-3.3,1.7l-0.3-8.2l3.4-1.8L599.9,98.2z M619.8,81.3l5.8,12.9l0.4-25.1 M619.9,77.2l0,17.5 M570.5,72.3l4.4,0.9
	l1.5,2.8l1,0.1l1-1.6l4.1,1.8l0.7,1.9l0.7,0.4l1.3-1.9l6.7,2.2l1.2,0.9c7.1-7.6,26.3-11,26.3-11 M614.8,56.8
	c-21.6,3.4-40,16.3-40,16.3 M615.2,59.2c-18.5,2.6-36.8,15.3-36.8,15.3 M582.5,76.4c0,0,16.3-13.1,34.2-14.9 M593.7,105.4l-0.5-25.5
	 M624.1,63.5c22.8-4.6,38.5,3.3,38.5,3.3 M667.5,62.5c-23.1-8.4-43.3-4.1-44.2-4c-0.9,0.1-1.1,0.8-1.1,0.8 M621.3,55.8
	c28.7-4.2,48.2,4.7,48.2,4.7 M585.2,76.8c0,0,17.2-12.3,32.2-13c0,0-0.3-1.2-0.5-1.9c-0.2-0.7-0.4-1.1-0.4-1.1l-1.4-1.5 M496.1,8.7
	l0-0.2L495.7,6c-1.2-2.4-1.5-2.1-3.7-2.2c-2.2-0.2-20.8,3.2-40,17.2c-1,0.7-1.2,2.7-0.8,4.5 M498.3,13.2l0.6,1.1
	c1.2,2.5,1.1,2.6,1.6,4.9c0.5,2.4,0.3,7.4,0.3,7.4s0.3-20.5,0.4-21.6c0.1-1-0.3-3.7,2.4-3.5c35-1.4,46.7,4.6,48,5.7
	c1.2,1.1,1.8,1.6,1.8,3.7c0,2.2-0.1,3.2-0.1,3.2l1.3-0.3c0,0,2.2-1.9,3.1-2.9c0.9-0.9,1.8-0.6,5,0.4c12.3,3.6,25,14.5,27,17.4
	c2,2.9,3,5.2,3,7.1c0,1.8,0,2.4,0,2.4s2.1,0.4,2.4,1.1c1.1,2.2,1.3,7.1,1.7,10.9 M596.6,51.9c-0.7,8.2-1.1,6.4-1.1,6.4 M501.5,2.8
	c1.1,1.4,0.8,3.9,0.9,4.7c0.1,0.8,0.3,1.9,0.7,1.5c0.3-0.4,0.5-0.3,0.9,0.4c0.4,0.7,0.5,4.1,0.5,4.1l0.5-0.5c0,0,0.7,1.1,1.1,2.1
	c0.4,1,0.5,2.3,0.8,3c0.3,0.8,1.7-0.2,1.7-0.2c13-3.4,30.2,3.2,30.2,3.2c0.6-1.2,3.5-4,4.3-4.4c0.8-0.5,1.8,0.4,1.8,0.4
	s0.3-0.1,0.5-1c0.3-0.9,0.6-1.7,1.2-2.6c0.6-0.9,2-1.4,2-1.4l0.5,1.4c0,0,0.9-0.8,1-1.7c0.1-0.9,0.2-1.7,1.1-2.2
	c0.9-0.5,1.9-0.6,1.9-0.6 M560.9,60.1c-4.8-6.8-17.8-12.2-17.8-12.2s1.4-24.1,1.5-25.2c0.1-1.1,0.3-0.9,1.8-2.3
	c1.6-1.4,2.5-2.3,3-2.6c0.5-0.3,2-0.1,2-0.1s0.1-2.1,1.8-3.7 M592.6,35.3c0,0-3.7-1-4.7-1.1c-1-0.1-1.3,0.1-1.8,0.6
	c-0.5,0.6-1.4,2-1.4,2l-1.3,0.2c0,0-0.2-0.7-0.7-1.3c-0.4-0.6-0.9-0.5-0.9-0.5s-2.4,0.1-3.2,0.2c-0.8,0-0.9,0.9-1.2,1.4
	c-0.3,0.5-0.8,0.9-1.2,1.2c-0.5,0.3-1.3,0.1-1.6-0.8c-0.3-0.9-1.3-1.1-2.2-1c-0.9,0.1-8.7,0.9-8.7,0.9c-6.8-11.6-18.7-15-18.7-15
	 M585.1,40.6c0,0,0.7,0.4,1.1,0c0.4-0.4,1.9-1.7,1.9-1.7c2.1-0.5,4.6-0.6,4.6-0.6 M596.7,49.3c-0.1,3.6-0.8,6.7-1.7,9.4 M577.8,67
	l-3.7-2l-2.1,1.8l-1.5-0.3c0,0-0.5-1.4-1-2.3c-0.4-0.9-1.2-0.8-2.8-1.3c-1.5-0.5-6-2.3-6-2.3 M585.5,62.8
	c7.9-12.2,2.6-23.9,2.6-23.9 M560.1,65.8c0,0,0.3-3.3,0.4-4.2c0.1-0.8,0.1-1.1,0.9-2.2c6.1-6.9,4.8-16.5,4.6-17.3
	c-0.2-0.9,0.1-1.1,1.2-1.4c1.1-0.3,6.8-1,7.7-0.9c0.9,0,2.1,2,2.1,2s0.6-0.1,1.2-0.9c0.7-0.7,1.8-1.5,1.8-1.5s2.5-0.4,3.3-0.5
	c0.8-0.1,1.4,0.8,1.4,0.8c4.5,10.6,0.7,19.6-2.6,24.8 M574.1,65.1c11.5-14.7,5.9-25.4,5.9-25.4 M577.1,41.8
	c4.8,15.2-6.6,24.7-6.6,24.7 M575,39.8c5.4,12-6,23.8-6,23.8 M572.9,70.3c-0.3-0.5-1.2-0.9-1.9-1.2c-0.8-0.3-1.3-0.3-1.9,0.1
	c-0.6,0.4-1.5,1.2-1.5,1.2s-0.6-0.1-0.9-0.9c-0.3-0.9-2.1-1.7-2.1-1.7s-0.1-0.7-1.6-1.5c-1.5-0.8-2.6-0.4-2.6-0.4s-0.1,0.1-1.3-1.1
	c-1.2-1.1-2.7-0.2-3.8,0.5c-9.1,7.2-25.8,10.5-25.8,10.5 M536.3,108c0,0,0.2-8.4-0.1-11.3c-0.2-2.9-0.2-2.7-0.7-4.6
	c-0.5-1.8-0.6-2-0.6-2l-0.9,0.6c0,0-0.1-2.2-0.5-3.7c-0.4-1.5-0.7-2.3-0.7-2.3l-0.9,1.1c0,0-0.2-3.1-0.7-4.5
	c-0.5-1.4-1.8-5.6-1.8-5.6l0.3,22.5l4.3,9.6 M559.4,82.5c-6.4,2.9-14.5,5.7-24.5,7.7 M536,93.9c4.5-0.6,12.3-2.4,19.9-4.8
	 M563.8,76.5c-13.8,7.9-30.4,9.9-30.4,9.9 M532.8,84.8c25.1-5,34.7-14.4,34.7-14.4 M531.2,81.3c20.2-2.7,33.3-13.7,33.3-13.7
	 M529.1,107.3c-0.1-0.8-0.1-10.1-0.1-10.1l-0.1-1.3c0,0-0.5-3.4-1-4.3c-0.4-0.9-1.1-0.9-1.1-0.9c-1.5,0.3-10.5,0.9-24.2,0
	c-13.6-0.9-26.9-5.5-26.9-5.5s-1.5,1.7-2.6,2.8c-1.1,1.1-0.5,0.9-0.7,3.1c-0.2,2.1,0.1,20.8,0.1,21.5c-0.1,0.8,0.1,1.1,1.5,1.8
	 M472.6,89c25.4,9.8,56.3,6.9,56.3,6.9 M526.9,90.7c0,0-0.6-4-0.8-4.5c-0.3-0.5-1-0.9-2.2-0.6c-21.5,2.1-37.6-3.8-41.1-4.9
	c-0.9-0.1-1.6,0-2.4,0.4c-0.8,0.4-1.2,1.6-1.8,2.5c-0.6,0.9-0.6,2.2-0.6,2.2 M482.8,80.7l1.5-2.8c0,0,2.3-2.5,3.6-3.5
	c1.4-1,2.2-1.1,3.4-0.7c11.6,3.1,28,2.8,29.4,3c1.4,0.1,1.8,0.7,2.2,1.5c0.4,0.7,0.7,1.9,1.1,2.8c0.4,0.9,0.5,1.2,0.5,2.1
	c0,0.9,0.2,2.5,0.2,2.5 M524.4,82.1c-24.6,1.6-40.2-3.8-40.2-3.8 M453.5,59.8l2.2-4c0,0,6.2-1,8.2-0.9c2,0.1,1.3,0,1.8,0.7
	c4,7.8,14.8,14,16.3,14.6c1.5,0.6,1,1,1.3,3.4c0.2,2.3,0.5,5.3,0.5,5.3 M434.7,51.9l0.7,18.6c0,0-0.3,0,0.3,7.4 M454.6,103.8
	c5.4,4.4,10.3,7.7,12.4,8.6c0,0-0.5-22.6-0.4-23.5c0.1-0.9-0.4-1,0.5-2.1c0.9-1.2,3.6-3.4,3.6-3.4l0.4,0.7l1.3-3.5
	c1.1-0.5,2.8-2.3,2.8-2.3l0.9,0.4l0.3,1.1l0.8-3.3c-18.1-10.4-21.5-20.8-21.5-20.8 M475.2,78.4c-17.4-8.8-20-15.2-21-17
	c-1-1.9-1.1-3-1.7-3.4c-0.6-0.4-0.9-1.1-1.7-1.1c-0.8,0-3.2,0.5-3.2,0.5l-2.3,2.2c0,0-1.5-0.7-2-1.2c-0.5-0.5-0.9-0.5-1.6-0.5
	c-0.7,0.1-2.7,0.6-3.7,0.9c-1,0.3-1.1,0.6-1.1,0.6c6.7,17.1,29.7,28,29.7,28 M470.7,83.4c-24.6-12.2-25.5-23.7-25.5-23.7
	 M472.4,80.6c-18.7-7.8-24.8-23.2-24.8-23.2 M477.2,76.6l5.8-5.5 M463.9,54.9l-0.1-3.9l-9.3,1.1l-1.7,2.7l-1.2,0.2l-1.7-1.9
	l-4.3,0.6l-1.2,1.9c0,0-0.8,0.3-1.3,0c-0.5-0.4-1.2-0.9-1.7-0.8c-0.6,0.1-4.1,0.8-4.1,0.8s-1,1-1.4,2.3c-0.4,1.3,0,9.6,0,9.6
	l0.4,1.4l0.7-9.5 M454.5,52.1c-3.7-11.9,8.3-22.6,8.3-22.6l7.7,2.9c-7.3,6.1-6.6,18.5-6.6,18.5 M445.6,53.7
	C442.9,39,455.7,27,455.7,27l3.7,1.8l0.6,1.2l0.2,0.9l2.6-1.3 M459.4,28.8C447,39.5,449.6,53,449.6,53 M460.1,30.9
	c-12.1,13.2-8.2,24-8.2,24 M453.9,28.5l-1.7-2.6c-13.8,12.9-10.6,28.9-10.6,28.9 M435.9,57.5c-5.7-18.8,10.4-33.1,10.4-33.1
	s1.3-0.2,2.1-0.3c1.4,0.7,3.8,1.8,3.8,1.8 M556.8,12c22.7,8.6,29.3,22.9,29.3,22.9 M582.4,35.4c-6.5-13.6-27.6-21.6-27.6-21.6
	 M551.9,15.8c18.2,5.6,25.9,19.9,25.9,19.9 M551.4,17.8c17,6.7,22.6,18.6,22.6,18.6 M562.6,57.9c1.1-3.7,1-20.8,1-20.8 M469,60.2
	c1.1-1.5,2.9-3.1,2.9-3.1c27.6-24.2,71.1-9.1,71.1-9.1 M471.4,62.7c19.3-15.2,48.8-15,65.4-10.9c16.6,4.2,23.5,12.7,23.5,12.7
	 M498,75.1c16.4-4.3,34-0.1,34-0.1 M543.6,36.9l-6.1,9.4l1.2-25.3 M533.7,43.3l-3.2-0.6l0.3-8.3L534,35L533.7,43.3z M559.9,55.2
	l-2.5-2.5l0.4-8.3l2.4,2.5L559.9,55.2z M554.2,50.5l-2.6-2l0.4-8.3l2.5,2L554.2,50.5z"/>
<path style="fill:none;stroke:#E0E0DF;stroke-width:0.75;stroke-miterlimit:10;" d="M549,46.8l-2.6-1.4l0.4-8.3l2.5,1.4L549,46.8z
	 M524.7,41.3l-3.6-0.5l0.3-8l3.6,0.3L524.7,41.3z M516,40.8l-3.5-0.1l-0.3-8.3l3.6,0L516,40.8z M497.5,42.4l-3.7,0.7l-0.3-8.3
	l3.9-0.9L497.5,42.4z M488.9,44.2l-3.5,1.3l-0.3-8.3l3.6-1.4L488.9,44.2z M480.8,47.6l-3.3,1.7l-0.3-8.2l3.4-1.9L480.8,47.6z
	 M500.8,30.6l5.8,12.9l0.4-25.1 M500.8,26.6l0,17.5 M451.4,21.7l4.4,0.9l1.6,2.8l1,0.1l1-1.6l4.1,1.8l0.7,1.9l0.7,0.4l1.3-1.9
	l6.7,2.2l1.2,0.9c7.1-7.6,26.3-11,26.3-11 M495.8,6.2c-21.6,3.4-40,16.3-40,16.3 M496.2,8.6c-18.5,2.7-36.8,15.4-36.8,15.4
	 M463.5,25.7c0,0,16.3-13.1,34.2-14.8 M474.6,54.8L474,29.3 M505,12.9c22.8-4.6,38.5,3.3,38.5,3.3 M548.5,11.9
	c-23.1-8.4-43.3-4.1-44.2-4c-0.9,0.1-1.1,0.8-1.1,0.8 M502.2,5.1c28.7-4.2,48.2,4.7,48.2,4.7 M466.1,26.2c0,0,17.2-12.3,32.2-13
	c0,0-0.3-1.2-0.5-1.9c-0.2-0.7-0.4-1.1-0.4-1.1l-1.4-1.5 M498.2,114.2l0-0.2l-0.3-2.5c-1.2-2.4-1.5-2.1-3.7-2.2
	c-2.2-0.2-20.8,3.2-40,17.2c-1,0.7-1.2,2.7-0.8,4.5 M500.5,118.7l0.6,1.1c1.2,2.5,1.1,2.6,1.6,4.9c0.5,2.4,0.3,7.4,0.3,7.4
	s0.3-20.5,0.4-21.6c0.1-1-0.3-3.7,2.4-3.5c35-1.4,46.7,4.6,48,5.7c1.2,1.1,1.8,1.6,1.8,3.7c0,2.2-0.1,3.2-0.1,3.2l1.3-0.3
	c0,0,1.8-1.7,2.8-2.6c0.1-0.1,0.2-0.2,0.2-0.2c0.9-0.9,1.8-0.6,5,0.4c1.2,0.3,2.3,0.7,3.5,1.2c0.1,0,0.2,0.1,0.3,0.1
	c11,4.4,21.5,13.5,23.2,16.1c2,2.9,3,5.2,3,7.1c0,1.8,0,2.4,0,2.4s2.1,0.4,2.4,1.1c1.1,2.2,1.3,7.1,1.7,10.9
	c0.2,2.4,0.1,6.5-0.3,11.2c-0.2,2.9-0.4,6-0.7,9.2c-0.6,8.2-2.6,13.3-2.6,13.3s-2.1,48.3-3.8,78.1c-0.4,7.3-0.8,13.5-1.1,17.6
	c-1.5,20.6-21.6,36.9-51.2,41.9c-41.5,7-63.3-3.6-70.9-7.3 M503.6,108.3c1.1,1.4,0.8,3.9,0.9,4.7c0.1,0.8,0.4,1.9,0.7,1.5
	c0.3-0.5,0.5-0.3,0.9,0.4c0.4,0.7,0.5,4.1,0.5,4.1l0.5-0.5c0,0,0.7,1.1,1.1,2.1c0.4,1,0.5,2.3,0.8,3c0.3,0.8,1.7-0.2,1.7-0.2
	c13-3.4,30.2,3.2,30.2,3.2c0.6-1.2,3.5-4,4.3-4.4c0.8-0.5,1.8,0.4,1.8,0.4s0.3-0.1,0.5-1c0.3-0.9,0.6-1.7,1.2-2.6
	c0.6-0.9,2-1.4,2-1.4l0.5,1.4c0,0,0.9-0.8,1-1.7c0.1-0.9,0.2-1.7,1.1-2.2c0.9-0.5,1.9-0.6,1.9-0.6 M563,165.6
	c-4.8-6.8-17.8-12.2-17.8-12.2s1.4-24.1,1.5-25.2c0.1-1.1,0.3-0.9,1.8-2.3c1.6-1.4,2.5-2.3,3-2.6c0.5-0.3,2-0.1,2-0.1
	s0.1-2.1,1.8-3.7 M594.7,140.8c0,0-3.7-1-4.7-1.1c-1-0.1-1.3,0.1-1.8,0.6c-0.5,0.6-1.4,2-1.4,2l-1.3,0.2c0,0-0.2-0.7-0.7-1.3
	c-0.4-0.6-0.9-0.5-0.9-0.5s-2.4,0.1-3.2,0.2c-0.8,0-0.9,0.9-1.2,1.4c-0.3,0.5-0.8,0.9-1.2,1.2c-0.5,0.3-1.3,0.1-1.6-0.8
	c-0.3-0.9-1.3-1.1-2.2-1c-0.9,0.1-8.7,0.9-8.7,0.9c-6.8-11.6-18.7-15-18.7-15 M587.2,146.1c0,0,0.7,0.4,1.1,0
	c0.4-0.4,1.9-1.7,1.9-1.7c2.1-0.5,4.6-0.6,4.6-0.6 M598.8,154.8c-0.3,13.9-9.5,21-9.5,21c-0.7-0.7-6-2.2-6-2.2l-1.8,1.2l-1.8-0.5
	l-0.7-2.2l-2.9-1.4l-2.1,1.8l-1.5-0.3c0,0-0.5-1.4-1-2.3c-0.4-1-1.2-0.8-2.8-1.3c-1.5-0.5-6-2.3-6-2.3 M583.3,173.6
	c13.8-13.9,6.9-29.2,6.9-29.2 M562.3,171.3c0,0,0.3-3.3,0.4-4.2c0.1-0.8,0.1-1.1,0.9-2.2c6.1-6.9,4.8-16.5,4.6-17.4
	c-0.2-0.9,0.1-1.1,1.2-1.4c1.1-0.3,6.8-1,7.7-0.9c0.9,0,2.1,2,2.1,2s0.6-0.1,1.2-0.9c0.7-0.7,1.8-1.5,1.8-1.5s2.5-0.4,3.2-0.5
	c0.8-0.1,1.4,0.8,1.4,0.8c6.9,16.4-6,29.2-6,29.2 M576.2,170.6c11.5-14.7,5.9-25.4,5.9-25.4 M579.2,147.3
	c4.8,15.2-6.6,24.7-6.6,24.7 M577.1,145.3c5.4,12-6,23.8-6,23.8 M583.6,206.1l2.6,9l3.1-39.4 M577.3,178.8c0,0-1.9-2.5-2.2-3
	c-0.3-0.5-1.2-0.9-1.9-1.2c-0.8-0.3-1.3-0.3-1.9,0.1c-0.6,0.4-1.5,1.2-1.5,1.2s-0.6-0.1-0.9-0.9c-0.3-0.9-2.1-1.7-2.1-1.7
	s-0.1-0.7-1.6-1.5c-1.5-0.8-2.6-0.4-2.6-0.4s-0.1,0.1-1.3-1.1c-1.2-1.2-2.7-0.2-3.8,0.5c-9.1,7.2-25.8,10.5-25.8,10.5 M538.3,224.9
	c0,0,0.3-19.7,0-22.6c-0.2-2.9-0.2-2.7-0.7-4.6c-0.5-1.8-0.6-2-0.6-2l-0.9,0.6c0,0-0.1-2.2-0.5-3.7c-0.4-1.5-0.7-2.3-0.7-2.3
	l-0.9,1.1c0,0-0.2-3.1-0.7-4.5c-0.5-1.4-1.8-5.6-1.8-5.6l0.3,22.5l4.6,10.5c0,0,1.4,9.5,1.5,10c0.1,0.5,0.6,1,1.1,0.8
	c31.1-4.9,45.4-19.7,45.4-19.7c0.3-0.4,0.6-0.1,0.7-2.6c0.1-2.6,0.2-21.3,0.2-22c0-0.8-0.1-0.9-0.7-1.5c-0.7-0.6-2.6-1.2-3.6-1.7
	c-1-0.5-1.3-0.4-1.7-0.3c0,0-13.4,12.8-42.2,18.5 M538.2,199.4c6.5-0.8,19.6-4.2,29.3-8.1c9.8-4,17.7-11.5,17.7-11.5 M574.9,175.6
	c-14.1,13.2-39.3,16.4-39.3,16.4 M534.9,190.3c25.1-5,34.7-14.4,34.7-14.4 M533.4,186.8c20.2-2.7,33.3-13.7,33.3-13.7 M531.3,226
	l0.3,13.5l5.7-0.4l0.7-14.3 M531,201.4c0,0-0.5-3.4-1-4.3c-0.4-1-1.1-0.9-1.1-0.9c-1.5,0.3-10.5,0.9-24.2,0
	c-13.6-0.9-26.9-5.5-26.9-5.5s-1.5,1.7-2.6,2.8c-1.1,1.1-0.5,0.9-0.7,3.1c-0.2,2.1,0.1,20.8,0.1,21.5c-0.1,0.8,0.1,1.1,1.5,1.8
	c24.6,9.6,53,6.5,54.1,6.4c1.1-0.2,1.2-0.5,1.1-1.3c-0.1-0.8-0.3-22.3-0.3-22.3L531,201.4z M474.7,194.5c25.4,9.8,56.3,6.9,56.3,6.9
	 M529,196.2c0,0-0.6-4-0.8-4.5c-0.3-0.5-1-0.9-2.2-0.6c-21.5,2.1-37.6-3.8-41.1-4.9c-0.9-0.1-1.6,0-2.4,0.4
	c-0.8,0.4-1.2,1.6-1.8,2.5c-0.6,0.9-0.6,2.2-0.6,2.2 M484.9,186.2l1.5-2.8c0,0,2.3-2.5,3.6-3.5c1.4-1,2.2-1.1,3.4-0.7
	c11.6,3.1,28,2.8,29.4,3c1.4,0.1,1.8,0.7,2.2,1.5c0.4,0.7,0.7,1.9,1.1,2.8c0.4,0.9,0.5,1.2,0.5,2.1c0,0.9,0.2,2.5,0.2,2.5
	 M526.5,187.6c-24.6,1.6-40.2-3.8-40.2-3.8 M455.7,165.3l2.2-4c0,0,6.2-1,8.2-0.9c2,0.1,1.3,0,1.8,0.7c4,7.8,14.8,14,16.3,14.6
	c1.5,0.6,1,1,1.3,3.4c0.2,2.3,0.5,5.3,0.5,5.3 M436.9,157.4l0.7,18.6c0,0-0.1,5.6,0.5,13c4.1,10,25.8,26.9,31,28.9
	c0,0-0.5-22.5-0.4-23.5c0.1-0.9-0.4-1,0.5-2.1c0.9-1.2,3.6-3.4,3.6-3.4l0.4,0.7l1.3-3.5c1.1-0.5,2.8-2.3,2.8-2.3l0.9,0.4l0.3,1.1
	l0.8-3.3c-18.1-10.4-21.5-20.8-21.5-20.8 M477.4,183.9c-17.4-8.8-20-15.2-21-17c-1-1.9-1.1-3-1.7-3.4c-0.6-0.4-0.9-1.1-1.7-1.1
	c-0.8,0-3.2,0.5-3.2,0.5l-2.3,2.2c0,0-1.5-0.7-2-1.2c-0.5-0.5-0.9-0.5-1.6-0.5c-0.7,0.1-2.7,0.6-3.7,0.9c-1,0.3-1.1,0.6-1.1,0.6
	c6.7,17.1,29.7,28,29.7,28 M472.9,188.9c-24.6-12.2-25.5-23.7-25.5-23.7 M474.6,186.1c-18.7-7.8-24.8-23.2-24.8-23.2 M479.4,182.1
	l5.8-5.5 M466,160.4l-0.1-3.9l-9.3,1.1l-1.7,2.7l-1.2,0.2l-1.7-1.9l-4.3,0.7l-1.2,1.9c0,0-0.8,0.3-1.3,0c-0.4-0.3-1.2-0.9-1.7-0.8
	c-0.6,0.1-4.1,0.8-4.1,0.8s-1,1.1-1.4,2.3c-0.4,1.3,0,9.6,0,9.6l0.4,1.4l0.7-9.5 M456.6,157.6c-3.7-11.9,8.3-22.5,8.3-22.5l7.7,2.9
	c-7.2,6.1-6.6,18.5-6.6,18.5 M447.7,159.2c-2.7-14.6,10.1-26.7,10.1-26.7l3.7,1.8l0.6,1.2l0.2,0.9l2.6-1.3 M461.5,134.3
	c-12.4,10.7-9.8,24.2-9.8,24.2 M462.3,136.4c-12.1,13.2-8.2,24-8.2,24 M456.1,134l-1.7-2.6c-13.8,12.9-10.6,28.9-10.6,28.9 M438,163
	c-5.7-18.8,10.4-33.1,10.4-33.1s1.3-0.2,2.1-0.3c1.4,0.7,3.8,1.8,3.8,1.8 M468.5,319.6c-21.2-13.3-22.1-28-23.3-36.4
	c-1.3-15.9-7.1-94.3-7.1-94.3 M559,117.5c22.7,8.6,29.3,22.9,29.3,22.9 M584.5,140.9c-6.5-13.6-27.6-21.6-27.6-21.6 M554.1,121.4
	c18.2,5.6,25.9,19.9,25.9,19.9 M553.5,123.3c17,6.7,22.6,18.6,22.6,18.6 M564.7,163.4c1.1-3.7,1-20.8,1-20.8 M471.2,165.7
	c1.1-1.5,2.9-3.1,2.9-3.1c27.6-24.2,71.1-9.1,71.1-9.1 M473.5,168.2c19.3-15.2,48.8-15,65.4-10.9c16.6,4.2,23.5,12.7,23.5,12.7
	 M500.1,180.6c16.4-4.3,34-0.1,34-0.1 M545.7,142.4l-6,9.4l1.2-25.3 M535.9,148.8l-3.2-0.6l0.4-8.3l3.2,0.5L535.9,148.8z M562,160.7
	l-2.5-2.5l0.4-8.3l2.4,2.5L562,160.7z M556.4,156l-2.6-2l0.4-8.3l2.5,2L556.4,156z M551.2,152.3l-2.6-1.4l0.4-8.3l2.5,1.4
	L551.2,152.3z M526.9,146.8l-3.6-0.5l0.3-8l3.6,0.3L526.9,146.8z M518.2,146.3l-3.5-0.1l-0.3-8.3l3.6,0L518.2,146.3z M499.6,147.9
	l-3.7,0.7l-0.3-8.3l3.9-0.9L499.6,147.9z M491,149.7l-3.5,1.3l-0.3-8.3l3.6-1.4L491,149.7z M482.9,153.1l-3.3,1.7l-0.3-8.2l3.4-1.9
	L482.9,153.1z M502.9,136.1l5.8,12.9l0.4-25.1 M502.9,132.1l0,17.5 M453.5,127.2l4.4,0.9l1.5,2.8l1,0.1l1-1.6l4.1,1.8l0.7,1.9
	l0.7,0.4l1.3-1.9l6.7,2.2l1.2,0.9c7.1-7.6,26.3-11,26.3-11 M497.9,111.7c-21.6,3.4-40,16.3-40,16.3 M498.3,114.1
	c-18.5,2.7-36.8,15.4-36.8,15.4 M465.6,131.2c0,0,16.3-13.1,34.2-14.9 M476.7,160.3l-0.5-25.5 M507.1,118.4
	c21.6-4.3,39.8,4,38.5,3.3 M550.6,117.4c-23.1-8.4-43.3-4.1-44.2-4c-0.9,0.1-1.1,0.8-1.1,0.8 M504.4,110.6
	c28.7-4.2,48.2,4.7,48.2,4.7 M468.3,131.7c0,0,17.2-12.3,32.2-13c0,0-0.3-1.2-0.5-1.9c-0.2-0.7-0.4-1.1-0.4-1.1l-1.4-1.5
	 M354.2,67.9l0-0.2l-0.3-2.5c-1.2-2.4-1.5-2.1-3.7-2.2c-2.2-0.2-20.8,3.2-40,17.2c-1,0.7-1.2,2.7-0.8,4.5 M356.5,72.4l0.6,1.1
	c1.2,2.5,1.1,2.6,1.6,4.9c0.5,2.4,0.3,7.4,0.3,7.4s0.3-20.5,0.4-21.6c0.1-1-0.3-3.7,2.4-3.5c35-1.4,46.7,4.6,48,5.7
	c1.2,1.1,1.8,1.6,1.8,3.7c0,2.2-0.1,3.2-0.1,3.2l1.3-0.3c0,0,2.2-1.9,3.1-2.9c0.9-0.9,1.8-0.6,5,0.4c12.3,3.6,25,14.5,27,17.4
	c2,2.9,3,5.2,3,7.1c0,1.8,0,2.4,0,2.4s2.1,0.4,2.4,1.1c1.1,2.2,1.3,7.1,1.7,10.9c0.4,3.8,0.3,8.7-0.3,17 M443,252.2
	c-3.4,6.3-8.9,11.9-16,16.6 M359.6,62c1.1,1.4,0.8,3.9,0.9,4.7c0.1,0.8,0.4,1.9,0.7,1.5c0.3-0.4,0.5-0.3,0.9,0.4
	c0.4,0.7,0.5,4.1,0.5,4.1l0.5-0.5c0,0,0.7,1.1,1.1,2.1c0.4,1,0.5,2.3,0.8,3c0.3,0.8,1.7-0.2,1.7-0.2c13-3.4,30.2,3.2,30.2,3.2
	c0.6-1.2,3.5-4,4.3-4.4c0.8-0.5,1.8,0.4,1.8,0.4s0.3-0.1,0.5-1c0.3-0.9,0.6-1.7,1.2-2.6c0.6-0.9,2-1.4,2-1.4l0.5,1.4
	c0,0,0.9-0.8,1-1.7c0.1-0.9,0.2-1.7,1.1-2.2c0.9-0.5,1.9-0.6,1.9-0.6 M419,119.3c-4.8-6.8-17.8-12.2-17.8-12.2s1.4-24.1,1.5-25.2
	c0.1-1.1,0.3-0.9,1.8-2.3c1.6-1.4,2.5-2.3,3-2.6c0.5-0.3,2-0.1,2-0.1s0.1-2.1,1.8-3.7 M450.7,94.5c0,0-3.7-1-4.7-1.1
	c-1-0.1-1.3,0.1-1.8,0.6c-0.5,0.6-1.4,2-1.4,2l-1.3,0.2c0,0-0.2-0.7-0.7-1.3c-0.4-0.6-0.9-0.5-0.9-0.5s-2.4,0.1-3.2,0.2
	c-0.8,0-0.9,0.9-1.2,1.4c-0.3,0.5-0.8,0.9-1.2,1.2c-0.5,0.3-1.3,0.1-1.6-0.8c-0.3-0.9-1.3-1.1-2.2-1c-0.9,0.1-8.7,0.9-8.7,0.9
	c-6.8-11.6-18.7-15-18.7-15 M443.2,99.8c0,0,0.7,0.4,1.1,0c0.4-0.4,1.9-1.7,1.9-1.7c2.1-0.5,4.6-0.6,4.6-0.6 M454.8,108.5
	c-0.3,13.9-9.5,21-9.5,21c-0.7-0.7-6-2.2-6-2.2l-1.8,1.2l-1.8-0.5l-0.7-2.2l-2.9-1.4l-2.1,1.8l-1.5-0.3c0,0-0.5-1.4-1-2.3
	c-0.4-1-1.2-0.9-2.8-1.3c-1.5-0.5-6-2.3-6-2.3 M439.3,127.3c13.8-13.9,6.9-29.2,6.9-29.2 M418.2,125.1c0,0,0.3-3.3,0.4-4.2
	c0.1-0.8,0.1-1.1,0.9-2.2c6.1-6.9,4.8-16.5,4.6-17.4c-0.2-0.9,0.1-1.1,1.2-1.4c1.1-0.3,6.8-1,7.7-0.9c0.9,0,2.1,2,2.1,2
	s0.6-0.1,1.2-0.9c0.7-0.7,1.8-1.5,1.8-1.5s2.5-0.4,3.3-0.5c0.8-0.1,1.4,0.8,1.4,0.8c6.9,16.4-6,29.2-6,29.2 M432.2,124.3
	c11.5-14.7,5.9-25.4,5.9-25.4 M435.2,101c4.8,15.2-6.6,24.7-6.6,24.7 M433.1,99c5.4,12-6,23.8-6,23.8 M445,133.5l0.3-4 M433.3,132.5
	c0,0-1.9-2.5-2.2-3c-0.3-0.5-1.2-0.9-1.9-1.2c-0.8-0.3-1.3-0.3-1.9,0.1c-0.6,0.4-1.5,1.2-1.5,1.2s-0.6-0.1-0.9-0.9
	c-0.3-0.9-2.1-1.7-2.1-1.7s-0.1-0.7-1.6-1.5c-1.5-0.8-2.6-0.4-2.6-0.4s-0.1,0.1-1.3-1.1c-1.2-1.1-2.7-0.2-3.8,0.5
	c-9.1,7.2-25.8,10.5-25.8,10.5 M394.3,178.6c0,0,0.3-19.7,0-22.6c-0.2-2.9-0.2-2.7-0.7-4.6c-0.5-1.9-0.6-2-0.6-2l-0.9,0.6
	c0,0-0.1-2.2-0.5-3.7c-0.4-1.5-0.7-2.3-0.7-2.3l-0.9,1.1c0,0-0.2-3.1-0.7-4.5c-0.5-1.4-1.8-5.6-1.8-5.6l0.3,22.5l4.6,10.5
	c0,0,1.4,9.5,1.5,10c0.1,0.5,0.6,1,1.1,0.8c22-3.5,36-12.2,42-16.8 M441.1,139.3c0.1-2.6,0.1-4.2,0.2-5c0-0.8-0.1-0.9-0.7-1.5
	c-0.7-0.6-2.6-1.2-3.6-1.7c-1-0.5-1.3-0.4-1.7-0.3c0,0-13.4,12.8-42.2,18.5 M394.1,153.2c6.5-0.8,19.6-4.2,29.3-8.1
	c9.8-4,17.7-11.5,17.7-11.5 M430.8,129.3c-14.1,13.2-39.3,16.4-39.3,16.4 M390.9,144c25.1-5,34.7-14.4,34.7-14.4 M389.3,140.6
	c20.3-2.7,33.3-13.7,33.3-13.7 M387.3,179.8l0.3,13.5l5.7-0.4l0.7-14.3 M387,155.2c0,0-0.5-3.4-1-4.3c-0.4-0.9-1.1-0.9-1.1-0.9
	c-1.5,0.3-10.5,0.9-24.2,0c-13.6-0.9-26.9-5.5-26.9-5.5s-1.5,1.7-2.6,2.8c-1.1,1.1-0.5,0.9-0.7,3.1c-0.2,2.1,0.1,20.8,0.1,21.5
	c-0.1,0.8,0.1,1.1,1.5,1.8c24.6,9.6,53,6.5,54.1,6.4c1.1-0.2,1.2-0.5,1.1-1.3c-0.1-0.8-0.3-22.3-0.3-22.3L387,155.2z M330.7,148.3
	c25.4,9.8,56.4,6.9,56.4,6.9 M385,149.9c0,0-0.6-4-0.8-4.5c-0.3-0.5-1-0.9-2.2-0.6c-21.5,2.1-37.6-3.8-41.1-4.9
	c-0.9-0.1-1.6,0-2.4,0.4c-0.8,0.4-1.2,1.6-1.8,2.5c-0.6,0.9-0.6,2.2-0.6,2.2 M340.9,140l1.5-2.8c0,0,2.3-2.5,3.6-3.5
	c1.4-1,2.2-1.1,3.4-0.7c11.6,3.1,28,2.8,29.4,3c1.4,0.1,1.8,0.7,2.2,1.5c0.4,0.7,0.7,1.9,1.1,2.8c0.4,1,0.5,1.2,0.5,2.1
	c0,0.9,0.2,2.5,0.2,2.5 M382.5,141.3c-24.6,1.6-40.2-3.8-40.2-3.8 M311.6,119l2.2-4c0,0,6.2-1,8.2-0.9c2,0.1,1.3,0,1.8,0.7
	c4,7.8,14.8,14,16.3,14.6c1.5,0.6,1,1,1.3,3.4c0.2,2.3,0.5,5.3,0.5,5.3 M292.8,111.1l0.7,18.6c0,0-0.1,5.6,0.5,13
	c4.1,10,25.8,26.9,31,28.9c0,0-0.5-22.6-0.4-23.5c0.1-0.9-0.4-1,0.5-2.1c0.9-1.2,3.6-3.4,3.6-3.4l0.4,0.7l1.3-3.5
	c1.1-0.5,2.8-2.3,2.8-2.3l0.9,0.4l0.3,1.1l0.8-3.3c-18.1-10.4-21.5-20.8-21.5-20.8 M333.3,137.6c-17.4-8.8-20-15.2-21-17
	c-1-1.9-1.1-3-1.7-3.4c-0.6-0.4-0.9-1.1-1.7-1.1c-0.8,0-3.2,0.5-3.2,0.5l-2.3,2.2c0,0-1.5-0.7-2-1.2c-0.5-0.5-0.9-0.5-1.6-0.5
	c-0.7,0.1-2.7,0.6-3.7,0.9c-1,0.3-1.1,0.6-1.1,0.6c6.7,17.1,29.7,28,29.7,28 M328.8,142.6c-24.6-12.2-25.5-23.7-25.5-23.7
	 M330.5,139.8c-18.7-7.8-24.8-23.2-24.8-23.2 M335.3,135.8l5.8-5.5 M322,114.1l-0.1-3.9l-9.3,1.1l-1.7,2.7l-1.2,0.2l-1.7-1.9
	l-4.3,0.7l-1.2,1.9c0,0-0.8,0.3-1.3,0c-0.5-0.3-1.2-0.9-1.7-0.8c-0.6,0.1-4.1,0.8-4.1,0.8s-1,1-1.4,2.3c-0.4,1.3,0,9.6,0,9.6
	l0.4,1.4l0.7-9.5 M312.6,111.3c-3.7-11.9,8.3-22.5,8.3-22.5l7.7,2.9c-7.2,6.1-6.6,18.5-6.6,18.5 M303.7,112.9
	c-2.7-14.6,10.1-26.7,10.1-26.7l3.7,1.8l0.6,1.2l0.2,0.9l2.6-1.3 M317.5,88c-12.4,10.7-9.8,24.2-9.8,24.2 M318.2,90.1
	c-12.1,13.2-8.2,24-8.2,24 M312,87.7l-1.7-2.6C296.5,98,299.7,114,299.7,114 M294,116.7c-5.7-18.8,10.4-33.1,10.4-33.1
	s1.3-0.2,2.1-0.3c1.4,0.7,3.8,1.8,3.8,1.8 M294.2,158.2l-0.2-15.5 M414.9,71.2c22.7,8.6,29.3,22.9,29.3,22.9 M440.5,94.6
	C434,81,412.9,73,412.9,73 M410,75.1c18.2,5.6,25.9,19.9,25.9,19.9 M409.5,77.1c17,6.7,22.6,18.6,22.6,18.6 M420.7,117.1
	c1.1-3.7,1-20.8,1-20.8 M327.1,119.4c1.1-1.5,2.9-3.1,2.9-3.1c27.6-24.2,71.1-9.1,71.1-9.1 M329.5,121.9
	c19.3-15.2,48.9-15,65.5-10.9c16.6,4.2,23.4,12.7,23.4,12.7 M356.1,134.4c16.4-4.3,34-0.1,34-0.1 M401.7,96.1l-6,9.4l1.2-25.3
	 M391.9,102.6l-3.2-0.6l0.4-8.3l3.2,0.5L391.9,102.6z M418,114.4l-2.5-2.5l0.4-8.3l2.4,2.5L418,114.4z M412.3,109.7l-2.6-2l0.4-8.3
	l2.5,2L412.3,109.7z M407.1,106.1l-2.6-1.4l0.4-8.3l2.5,1.4L407.1,106.1z M382.8,100.5l-3.6-0.5l0.3-8l3.6,0.3L382.8,100.5z
	 M374.2,100l-3.5-0.1l-0.3-8.3l3.6,0L374.2,100z M355.6,101.6l-3.7,0.7l-0.3-8.3l3.9-0.9L355.6,101.6z M347,103.5l-3.5,1.3l-0.3-8.3
	l3.6-1.4L347,103.5z M338.9,106.9l-3.3,1.7l-0.3-8.2l3.4-1.8L338.9,106.9z M358.9,89.9l5.8,12.9l0.4-25.1 M358.9,85.8l0,17.5
	 M309.5,80.9l4.4,0.9l1.6,2.8l1,0.1l1-1.6l4.1,1.8l0.7,1.9l0.7,0.4l1.3-1.9l6.7,2.2l1.2,0.9c7.1-7.6,26.3-11,26.3-11 M353.9,65.5
	c-21.7,3.4-40,16.3-40,16.3 M354.3,67.8c-18.5,2.7-36.8,15.4-36.8,15.4 M321.6,85c0,0,16.3-13.1,34.3-14.9 M332.7,114l-0.5-25.5
	 M363.1,72.2c22.8-4.6,38.5,3.3,38.5,3.3 M406.6,71.1c-23.1-8.4-43.3-4.1-44.2-4c-0.9,0.1-1.1,0.8-1.1,0.8 M360.4,64.4
	c28.7-4.2,48.2,4.7,48.2,4.7 M324.2,85.4c0,0,17.2-12.3,32.2-13c0,0-0.3-1.2-0.5-1.9c-0.2-0.7-0.4-1.1-0.4-1.1l-1.4-1.5
	 M474.8,218.1l-0.1,17.1l-4.5-2.4l-1.1-15"/>
</svg>
