<?xml version="1.0" encoding="utf-8"?>
<!-- Generator: Adobe Illustrator 27.8.1, SVG Export Plug-In . SVG Version: 6.00 Build 0)  -->
<svg version="1.1" id="Layer_1" xmlns="http://www.w3.org/2000/svg" xmlns:xlink="http://www.w3.org/1999/xlink" x="0px" y="0px"
	 viewBox="0 0 200 200" style="enable-background:new 0 0 200 200;" xml:space="preserve">
<style type="text/css">
	.st0{fill:#C8C8C8;}
</style>
<g>
	<g>
		<path class="st0" d="M67.3,89.5l6.5,11.2l-6.5,11.2H54.4l-6.5-11.2l6.5-11.2H67.3 M70,84.7H51.7l-9.2,15.9l9.2,15.9H70l9.2-15.9
			L70,84.7L70,84.7z"/>
		<g>
			<path class="st0" d="M34.6,70.7l6.5,11.2L34.6,93H21.7l-6.5-11.2l6.5-11.2H34.6 M37.3,65.9H18.9L9.8,81.9l9.2,15.9h18.4l9.2-15.9
				L37.3,65.9L37.3,65.9z"/>
			<path class="st0" d="M34.6,108.3l6.5,11.2l-6.5,11.2H21.7l-6.5-11.2l6.5-11.2H34.6 M37.3,103.5H18.9l-9.2,15.9l9.2,15.9h18.4
				l9.2-15.9L37.3,103.5L37.3,103.5z"/>
		</g>
	</g>
	<g>
		<path class="st0" d="M43.7,142.7l-2.5-1.3l10.3-19.3c0.2-0.5,0.7-0.7,1.2-0.7H200v2.8H53.6L43.7,142.7z"/>
	</g>
	<g>
		<path class="st0" d="M200,78.6H52.7c-0.5,0-1-0.3-1.2-0.7L41.2,58.6l2.5-1.3l9.9,18.6H200V78.6z"/>
	</g>
	<g>
		<path class="st0" d="M12.9,141.4L0.2,120.2c-0.2-0.4-0.3-0.9,0-1.4l9.5-18.2L0.2,82.5c-0.2-0.4-0.2-0.9,0-1.3l12.6-23.9l2.4,1.4
			L3,81.9l9.4,18.1c0.2,0.4,0.2,0.9,0,1.3L3,119.4l12.3,20.5L12.9,141.4z"/>
	</g>
	<g>
		<path class="st0" d="M93.4,88.3c0.1,0.1,0.1,0.1,0.2,0l0.8-0.8l0.8,0.8c0.1,0.1,0.1,0.1,0.2,0l0.8-0.8c0.1-0.1,0.1-0.1,0-0.2
			l-0.8-0.8c-0.1-0.1-0.1-0.1-0.2,0l-0.7,0.7l-0.8-0.7c-0.1-0.1-0.1-0.1-0.2,0l-0.8,0.8c-0.1,0.1-0.1,0.1,0,0.2L93.4,88.3z"/>
		<path class="st0" d="M98.8,87c0.1,0.1,0.1,0.1,0.2,0l0.9-0.9c0.1-0.1,0.1-0.1,0-0.2L99,85c-0.1-0.1-0.2-0.1-0.2,0l-0.9,0.9
			c-0.1,0.1-0.1,0.2,0,0.2L98.8,87z"/>
		<path class="st0" d="M103.1,87.8c0,0-0.1,0.1-0.2,0.2l-1.3,1.9c-0.1,0.1-0.1,0.2,0,0.2c0.5,0.4,0.8,0.8,1.1,1.2
			c0.1,0.1,0.1,0.2,0.1,0.3c0,0.2-0.1,0.2-0.4,0.2h-1.2h-0.4h-0.5c0.3-0.4,0.5-1,0.5-1.7c0-0.5-0.1-0.9-0.3-1.3
			c-0.3-0.5-0.7-0.8-1.2-0.8c-0.7,0-1.2,0.4-1.7,1.1c-0.4,0.6-0.6,1.2-0.6,1.8c0,0.5,0.1,0.8,0.2,0.9h-0.6h-0.4H96
			c-0.5,0-0.8-0.1-1-0.4c-0.1-0.1-0.1-0.4-0.2-0.8c-0.1-0.3-0.2-0.4-0.4-0.4c-0.2,0-0.4,0.1-0.5,0.4c-0.1,0.5-0.2,0.7-0.3,0.8
			c-0.2,0.3-0.5,0.4-1,0.4h0v0h-0.9c-1.2,0-2.3,0.1-3.2,0.4c-1.4,0.4-2,1.1-2,2c0,0.5,0.2,0.8,0.7,0.9c0.3,0.1,0.7,0.1,1.4,0.1
			c0.4,0,0.9,0,1.3,0c0.2,0,0.4,0.1,0.4,0.1c0,0.1-0.1,0.1-0.4,0.2c-0.7,0.1-1.6,0.2-2.8,0.2c-2.3,0-3.4-0.7-3.4-2
			c0-0.1,0-0.4,0.1-0.6c0-0.3,0.1-0.5,0.1-0.6c0-0.4-0.2-0.6-0.5-0.6c-0.3,0-0.6,0.4-0.8,1.1c-0.3,0.7-0.4,1.4-0.4,2
			c0,0.9,0.2,1.6,0.6,2.1c0.7,0.9,1.9,1.3,3.7,1.3c3.2,0,4.8-1,4.8-3c0-0.6-0.3-1-1-1.2c-0.3-0.1-0.9-0.1-1.7-0.1
			c-0.5,0-0.8-0.1-0.8-0.2c0-0.1,0.1-0.1,0.3-0.2c0.3-0.1,0.7-0.2,1.1-0.2c0.8,0,1.4,0.1,1.8,0.3c0.3,0.1,0.5,0.3,0.7,0.6
			c0.2,0.2,0.4,0.3,0.5,0.3h0h0.4h0.3c0.7,0,1.3-0.3,1.6-0.9c0.4,0.6,0.9,0.9,1.5,0.9h0.1h0.4h0.1c0.7,0,1.5-0.3,2.2-1
			c0.2,0.2,0.4,0.4,0.7,0.6c0.4,0.2,0.8,0.4,1.2,0.4h0.2h0.4h0.1c1.1,0,1.9-0.3,2.4-0.9c0.4-0.5,0.5-1.4,0.5-2.7
			c0-1.3-0.4-2.4-1.1-3.3C103.2,87.9,103.1,87.8,103.1,87.8z M99.4,91.2c-0.2,0.1-0.4,0.2-0.6,0.2c-0.1,0-0.3-0.1-0.5-0.2
			C98.1,91,98,90.8,98,90.7c0-0.2,0.1-0.3,0.3-0.4c0.2-0.1,0.4-0.1,0.6-0.1c0.2,0,0.3,0.1,0.5,0.2c0.2,0.1,0.3,0.3,0.3,0.4
			C99.7,90.9,99.6,91,99.4,91.2z"/>
		<path class="st0" d="M102.4,86.7c0.1,0.1,0.1,0.1,0.2,0l0.9-0.9c0.1-0.1,0.1-0.1,0-0.2l-1-0.9c-0.1-0.1-0.2-0.1-0.2,0l-0.9,0.9
			c-0.1,0.1-0.1,0.2,0,0.3L102.4,86.7z"/>
		<path class="st0" d="M112.9,96.1c-0.1-0.1-0.1-0.1-0.2,0l-0.7,0.8l-0.8-0.8c-0.1-0.1-0.1-0.1-0.2,0l-0.8,0.8
			c-0.1,0.1-0.1,0.2,0,0.2l0.8,0.8c0.1,0.1,0.1,0.1,0.2,0l0.8-0.8l0.8,0.8c0.1,0.1,0.1,0.1,0.2,0l0.8-0.8c0.1-0.1,0.1-0.1,0-0.2
			L112.9,96.1z"/>
		<path class="st0" d="M119.8,91.1c-0.8,0.1-1.6,0.2-2.2,0.2c-0.4,0-0.7,0-1.1-0.1c-0.5-0.1-0.8-0.3-0.8-0.6c0-0.2,0.2-0.4,0.7-0.6
			c0.4-0.1,0.8-0.2,1.2-0.2c0.2,0,0.5,0,0.9,0.1c0.4,0.1,0.7,0.1,0.9,0.1c0.2,0,0.2-0.1,0.2-0.4c0-0.1,0-0.2,0-0.3
			c-0.2-0.5-0.4-0.9-0.8-1.3c-0.5-0.4-1-0.6-1.5-0.6c-0.8,0-1.5,0.3-2.1,1c-0.6,0.7-0.9,1.4-0.9,2.2c0,0.2,0.2,0.5,0.5,0.8
			c-0.1,0.1-0.3,0.2-0.5,0.2h-0.1h-0.4h-0.1c-0.5,0-0.8-0.1-1-0.4c-0.1-0.1-0.1-0.4-0.2-0.8c-0.1-0.3-0.2-0.4-0.4-0.4
			c-0.2,0-0.4,0.1-0.5,0.4c-0.1,0.5-0.2,0.7-0.3,0.8c-0.2,0.3-0.5,0.4-1,0.4h0v0h-0.2c-0.4,0-0.8-0.2-1.2-0.5
			c-0.2-0.1-0.5-0.4-0.9-0.9c-0.1-0.1-0.2-0.1-0.3,0l-1.1,2.3c1,1,1.6,1.6,1.6,1.9c0,0.3-0.6,0.9-1.7,1.7c-0.9,0.6-1.6,1.1-2.3,1.4
			c-0.2,0.1-0.2,0.2-0.2,0.4c0,0.3,0.2,0.5,0.6,0.5h3.3c0.2,0,0.3-0.1,0.4-0.2c0.3-0.3,0.6-0.7,0.8-1.3c0.3-0.6,0.4-1.2,0.4-1.7
			v-0.6c0.1,0.1,0.3,0.2,0.5,0.2v0h0h0.4h0.3c0.7,0,1.3-0.3,1.6-0.9c0.4,0.6,0.9,0.9,1.5,0.9h0.1h0.4h0.1c0.4,0,0.8-0.1,1.4-0.2
			c0.6-0.2,1.1-0.4,1.3-0.6c0.2,0,0.6,0.1,1.1,0.1c0.5,0,0.9,0,1.1-0.1c0.1,0,0.2-0.5,0.4-1.3l0.3-1.3c0-0.1,0.1-0.2,0.1-0.3
			C120.1,91.1,120,91.1,119.8,91.1z"/>
		<path class="st0" d="M117,87c0.1,0.1,0.1,0.1,0.2,0l0.9-0.9c0.1-0.1,0.1-0.1,0-0.2l-1-0.9c-0.1-0.1-0.2-0.1-0.2,0l-0.9,0.9
			c-0.1,0.1-0.1,0.2,0,0.3L117,87z"/>
		<path class="st0" d="M129.7,90.2c-0.1-0.1-0.2-0.2-0.2-0.2c0,0-0.1,0.1-0.2,0.2l-1.2,2.3c0.2,0.1,0.5,0.4,0.9,0.9
			c0.4,0.5,0.6,0.8,0.6,1c0,0.7-0.9,1-2.8,1c-1.8,0-2.7-0.5-2.7-1.4c0-0.1,0-0.3,0.1-0.6c0.1-0.3,0.1-0.4,0.1-0.6
			c0-0.5-0.1-0.8-0.4-0.8c-0.4,0-0.7,0.4-0.9,1.3c-0.2,0.7-0.3,1.3-0.3,2c0,1.1,0.4,1.9,1.2,2.4c0.7,0.5,1.6,0.7,2.7,0.7
			c1.3,0,2.3-0.3,3-0.8c1-0.7,1.4-1.9,1.4-3.7c0-0.8-0.2-1.6-0.5-2.4C130.3,91,130,90.5,129.7,90.2z"/>
		<path class="st0" d="M126.2,90.7c0.1,0.1,0.1,0.1,0.2,0l0.9-0.9c0,0,0.1-0.1,0.1-0.1c0,0,0-0.1,0-0.1l-1-0.9
			c-0.1-0.1-0.2-0.1-0.2,0l-0.9,0.9c-0.1,0.1-0.1,0.2,0,0.3L126.2,90.7z"/>
		<path class="st0" d="M134.7,84.7c0-0.1-0.1-0.2-0.1-0.2c0,0-0.1,0.1-0.3,0.2l-2.1,2.3c0.6,4.1,1,6.5,1.2,7.2
			c0.1,0.5,0.3,0.7,0.5,0.7c0.2,0,0.4-0.2,0.5-0.6c0.2-0.3,0.3-0.8,0.4-1.5c0.1-0.6,0.2-1.1,0.2-1.5c0-1.8,0-2.9,0-3.3
			C135.1,86.7,134.9,85.6,134.7,84.7z"/>
		<path class="st0" d="M138.3,90.4c-0.1-0.1-0.2-0.1-0.3,0l-1.1,2.3c1,1,1.6,1.6,1.6,1.9c0,0.3-0.6,0.9-1.7,1.7
			c-0.9,0.6-1.6,1.1-2.3,1.4c-0.2,0.1-0.2,0.2-0.2,0.4c0,0.3,0.2,0.5,0.6,0.5h3.3c0.2,0,0.3-0.1,0.4-0.2c0.9-1,1.4-2.3,1.4-4
			c0-1-0.1-1.8-0.4-2.4C139.3,91.4,138.9,90.9,138.3,90.4z"/>
		<path class="st0" d="M146.6,87c0.1,0.1,0.1,0.1,0.2,0l0.9-0.9c0.1-0.1,0.1-0.1,0-0.2l-1-0.9c-0.1-0.1-0.2-0.1-0.2,0l-0.9,0.9
			c-0.1,0.1-0.1,0.2,0,0.2L146.6,87z"/>
		<path class="st0" d="M157.1,90.1c-0.7-0.2-1.3-0.3-1.6-0.4c-0.4-0.1-1-0.5-1.9-1c-0.7-0.4-1.3-0.7-1.7-0.7c-0.7,0-1.3,0.4-1.8,1.2
			c-0.4,0.6-0.7,1.1-0.7,1.4c0,0.3,0.1,0.5,0.4,0.5c0.1,0,0.2-0.1,0.5-0.3c0.3-0.2,0.5-0.3,0.7-0.3c0.2,0,0.6,0.1,1,0.3l1.4,0.6
			c-0.7,0.3-1.7,0.4-3.2,0.4h-1.2h-0.4h-0.5c0.3-0.4,0.5-1,0.5-1.7c0-0.5-0.1-0.9-0.3-1.3c-0.3-0.5-0.7-0.8-1.2-0.8
			c-0.7,0-1.2,0.4-1.7,1.1c-0.4,0.6-0.6,1.2-0.6,1.8c0,0.5,0.1,0.8,0.2,0.9h-0.6h-0.2c-0.6,0-0.9-0.3-0.9-1v-6.1
			c0-0.1,0-0.2-0.1-0.2c-0.1,0-0.1,0-0.3,0.1l-2,1.4c-0.1,0.1-0.1,0.2-0.1,0.5c0.1,0.4,0.1,1.3,0.2,2.6c0.1,1.3,0.1,2.3,0.1,3
			c0,1.8,0.9,2.7,2.6,2.7h0.3v0h0.5c0.7,0,1.5-0.3,2.2-1c0.2,0.2,0.4,0.4,0.7,0.6c0.4,0.2,0.8,0.4,1.2,0.4h0.2h0.4h0.9
			c0.8,0,1.5-0.2,2.2-0.5c0.3-0.1,0.7-0.4,1.3-0.9c0.5-0.4,0.9-0.7,1.2-0.9c0.4-0.2,1-0.3,1.8-0.3l0.8-1.9c0.1-0.1,0.1-0.2,0.1-0.3
			C157.3,90.2,157.3,90.2,157.1,90.1z M147.2,91.2c-0.2,0.1-0.4,0.2-0.6,0.2c-0.1,0-0.3-0.1-0.5-0.2c-0.2-0.2-0.3-0.3-0.3-0.4
			c0-0.2,0.1-0.3,0.3-0.4c0.2-0.1,0.4-0.1,0.6-0.1c0.2,0,0.3,0.1,0.5,0.2c0.2,0.1,0.3,0.3,0.3,0.4C147.6,90.9,147.5,91,147.2,91.2z"
			/>
		<path class="st0" d="M168.6,96.1c-0.1-0.1-0.1-0.1-0.2,0l-0.7,0.8l-0.8-0.8c-0.1-0.1-0.1-0.1-0.2,0l-0.8,0.8
			c-0.1,0.1-0.1,0.2,0,0.2l0.8,0.8c0.1,0.1,0.1,0.1,0.2,0l0.8-0.8l0.8,0.8c0.1,0.1,0.1,0.1,0.2,0l0.8-0.8c0.1-0.1,0.1-0.1,0-0.2
			L168.6,96.1z"/>
		<path class="st0" d="M166,94.9c1.1,0,1.9-0.3,2.4-0.9c0.4-0.5,0.5-1.4,0.5-2.7c0-1.3-0.4-2.4-1.1-3.3c-0.1-0.1-0.1-0.1-0.2-0.1
			c0,0-0.1,0.1-0.2,0.2l-1.3,1.9c-0.1,0.1-0.1,0.2,0,0.2c0.5,0.4,0.8,0.8,1.1,1.2c0.1,0.1,0.1,0.2,0.1,0.3c0,0.2-0.1,0.2-0.4,0.2
			h-1.2h-0.4h-0.1c-0.4,0-0.6-0.3-0.8-1l-0.7-3.6c0-0.1-0.1-0.2-0.1-0.2c0,0-0.1,0-0.2,0.1l-1.6,1.6l0.1,0.6c-1.1,1-1.7,1.5-1.7,1.5
			c-0.4,0.5-0.6,1.1-0.6,1.6c0,0.5,0.4,0.9,1.1,1.2c0.6,0.2,1.1,0.3,1.5,0.3c0.2,0,0.4-0.2,0.6-0.7c0.3,1.1,0.9,1.6,2,1.6h0.3h0.4
			H166z M161.6,91.4c0-0.2,0.3-0.5,1-1l0.4,1.4C162,91.8,161.6,91.6,161.6,91.4z"/>
		<path class="st0" d="M173.3,87c-0.1,0-0.1-0.1-0.2-0.1c-0.1,0-0.1,0.1-0.2,0.2l-1.1,2.3c1.2,0.7,2.1,1.2,2.6,1.8
			c0.1,0.1,0.2,0.3,0.2,0.4c0,0.2-0.5,0.3-1.4,0.3c-0.7,0-1.2-0.1-1.4-0.2c-0.2-0.1-0.4-0.4-0.5-0.8c-0.1-0.3-0.2-0.4-0.4-0.4
			c-0.2,0-0.3,0.1-0.4,0.3c-0.2,0.5-0.4,1.1-0.4,1.7c0,1.6,0.9,2.3,2.7,2.3c2.1,0,3.2-1.1,3.2-3.4c0-1.2-0.4-2.3-1.3-3.2
			C174.3,87.7,173.8,87.2,173.3,87z"/>
		<path class="st0" d="M191,87.8c0,0-0.1,0.1-0.2,0.2l-1.3,1.9c-0.1,0.1-0.1,0.2,0,0.2c0.5,0.4,0.8,0.8,1.1,1.2
			c0.1,0.1,0.1,0.2,0.1,0.3c0,0.2-0.1,0.2-0.4,0.2h-1.2h-0.4H188c-0.7,0-1.1-0.1-1.3-0.4h1.3l0.7-2.1c0-0.1,0.1-0.2,0.1-0.2
			c0-0.1-0.1-0.1-0.2-0.1h-0.8c-0.6,0-1.3-0.2-2.4-0.5c-1-0.4-1.8-0.5-2.2-0.5c-0.7,0-1.2,0.4-1.7,1.2c-0.4,0.6-0.5,1.2-0.5,1.6
			c0,0.4,0.1,0.6,0.4,0.6c0.1,0,0.3-0.1,0.6-0.4c0.3-0.2,0.5-0.4,0.8-0.4c0.3,0,1.1,0.2,2.3,0.5c-1,0.5-2.2,0.7-3.5,0.7h-0.8h-0.2
			c-0.6,0-0.9-0.3-0.9-1v-6.1c0-0.1,0-0.2-0.1-0.2c-0.1,0-0.1,0-0.3,0.1l-2,1.4c-0.1,0.1-0.1,0.2-0.1,0.5c0.1,0.4,0.1,1.3,0.2,2.6
			c0.1,1.3,0.1,2.3,0.1,3c0,1.8,0.9,2.7,2.6,2.7h0.3v0h0.7c0.9,0,1.7-0.2,2.5-0.5c0.8-0.4,1.5-0.9,2-1.6c0.4,1.4,1.2,2.1,2.4,2.1
			h0.9h0.4h0.1c1.1,0,1.9-0.3,2.4-0.9c0.4-0.5,0.5-1.4,0.5-2.7c0-1.3-0.4-2.4-1.1-3.3C191.1,87.9,191.1,87.8,191,87.8z"/>
		<path class="st0" d="M191.8,85.1c-0.1-0.1-0.1-0.1-0.2,0l-0.7,0.7l-0.8-0.7c-0.1-0.1-0.1-0.1-0.2,0l-0.8,0.8
			c-0.1,0.1-0.1,0.2,0,0.2l0.8,0.8c0.1,0.1,0.1,0.1,0.2,0l0.8-0.8l0.8,0.8c0.1,0.1,0.1,0.1,0.2,0l0.8-0.8c0.1-0.1,0.1-0.1,0-0.2
			L191.8,85.1z"/>
		<path class="st0" d="M196,87.9c0-1.3-0.2-2.4-0.4-3.3c0-0.1-0.1-0.2-0.1-0.2c0,0-0.1,0.1-0.3,0.2l-2.1,2.3c0.6,4.1,1,6.5,1.2,7.2
			c0.1,0.5,0.3,0.7,0.5,0.7c0.2,0,0.4-0.2,0.5-0.6c0.2-0.3,0.3-0.8,0.4-1.5c0.1-0.6,0.2-1.1,0.2-1.5C196,89.4,196,88.3,196,87.9z"/>
	</g>
	<g>
		<path class="st0" d="M82.1,111.6c0-0.7,0-1.2-0.1-1.7h1l0.1,1.1h0c0.3-0.6,1.1-1.2,2.1-1.2c0.9,0,2.2,0.5,2.2,2.7v3.8h-1.2v-3.7
			c0-1-0.4-1.9-1.5-1.9c-0.8,0-1.4,0.5-1.5,1.2c-0.1,0.1-0.1,0.3-0.1,0.5v3.8h-1.2V111.6z"/>
		<path class="st0" d="M95.1,113c0,2.3-1.6,3.4-3.2,3.4c-1.7,0-3-1.3-3-3.3c0-2.1,1.4-3.4,3.2-3.4C93.9,109.7,95.1,111,95.1,113z
			 M90.1,113c0,1.4,0.8,2.4,1.9,2.4c1.1,0,1.9-1,1.9-2.5c0-1.1-0.5-2.4-1.9-2.4C90.7,110.6,90.1,111.8,90.1,113z"/>
		<path class="st0" d="M96.6,111.6c0-0.7,0-1.2-0.1-1.7h1l0.1,1.1h0c0.3-0.6,1.1-1.2,2.1-1.2c0.9,0,2.2,0.5,2.2,2.7v3.8h-1.2v-3.7
			c0-1-0.4-1.9-1.5-1.9c-0.8,0-1.4,0.5-1.5,1.2c-0.1,0.1-0.1,0.3-0.1,0.5v3.8h-1.2V111.6z"/>
		<path class="st0" d="M106.5,112.2v0.9h-3.2v-0.9H106.5z"/>
		<path class="st0" d="M113.9,113c0,2.3-1.6,3.4-3.2,3.4c-1.7,0-3-1.3-3-3.3c0-2.1,1.4-3.4,3.2-3.4C112.6,109.7,113.9,111,113.9,113
			z M108.8,113c0,1.4,0.8,2.4,1.9,2.4c1.1,0,1.9-1,1.9-2.5c0-1.1-0.5-2.4-1.9-2.4C109.4,110.6,108.8,111.8,108.8,113z"/>
		<path class="st0" d="M116.6,108.1c0,0.4-0.3,0.7-0.7,0.7c-0.4,0-0.7-0.3-0.7-0.7c0-0.4,0.3-0.7,0.7-0.7
			C116.4,107.3,116.6,107.7,116.6,108.1z M115.3,116.2v-6.4h1.2v6.4H115.3z"/>
		<path class="st0" d="M118.4,106.9h1.2v9.3h-1.2V106.9z"/>
		<path class="st0" d="M129.8,106.9v7.7c0,0.6,0,1.2,0.1,1.6h-1l-0.1-1.1h0c-0.4,0.7-1.1,1.2-2.2,1.2c-1.5,0-2.7-1.3-2.7-3.2
			c0-2.1,1.3-3.4,2.8-3.4c1,0,1.6,0.5,1.9,1h0v-3.8H129.8z M128.6,112.4c0-0.1,0-0.3-0.1-0.5c-0.2-0.7-0.8-1.3-1.7-1.3
			c-1.2,0-1.9,1.1-1.9,2.5c0,1.3,0.6,2.4,1.9,2.4c0.8,0,1.5-0.5,1.7-1.4c0-0.2,0.1-0.3,0.1-0.5V112.4z"/>
		<path class="st0" d="M131.7,111.8c0-0.7,0-1.4-0.1-2h1l0,1.2h0.1c0.3-0.9,1-1.4,1.8-1.4c0.1,0,0.2,0,0.3,0v1.1c-0.1,0-0.2,0-0.4,0
			c-0.8,0-1.4,0.6-1.5,1.5c0,0.2-0.1,0.3-0.1,0.5v3.4h-1.1V111.8z"/>
		<path class="st0" d="M137.3,108.1c0,0.4-0.3,0.7-0.7,0.7c-0.4,0-0.7-0.3-0.7-0.7c0-0.4,0.3-0.7,0.7-0.7
			C137.1,107.3,137.3,107.7,137.3,108.1z M136,116.2v-6.4h1.2v6.4H136z"/>
		<path class="st0" d="M139.1,106.9h1.2v9.3h-1.2V106.9z"/>
		<path class="st0" d="M142.2,106.9h1.2v9.3h-1.2V106.9z"/>
		<path class="st0" d="M146.6,108.1c0,0.4-0.3,0.7-0.7,0.7c-0.4,0-0.7-0.3-0.7-0.7c0-0.4,0.3-0.7,0.7-0.7
			C146.3,107.3,146.6,107.7,146.6,108.1z M145.3,116.2v-6.4h1.2v6.4H145.3z"/>
		<path class="st0" d="M148.4,111.6c0-0.7,0-1.2-0.1-1.7h1l0.1,1.1h0c0.3-0.6,1.1-1.2,2.1-1.2c0.9,0,2.2,0.5,2.2,2.7v3.8h-1.2v-3.7
			c0-1-0.4-1.9-1.5-1.9c-0.8,0-1.4,0.5-1.5,1.2c-0.1,0.1-0.1,0.3-0.1,0.5v3.8h-1.2V111.6z"/>
		<path class="st0" d="M161.1,109.8c0,0.5-0.1,1-0.1,1.7v3.7c0,1.5-0.3,2.3-0.9,2.9c-0.6,0.6-1.5,0.8-2.3,0.8
			c-0.8,0-1.6-0.2-2.1-0.5l0.3-0.9c0.4,0.3,1.1,0.5,1.9,0.5c1.2,0,2-0.6,2-2.2v-0.7h0c-0.4,0.6-1,1.1-2,1.1c-1.6,0-2.7-1.3-2.7-3.1
			c0-2.2,1.4-3.4,2.9-3.4c1.1,0,1.7,0.6,2,1.1h0l0.1-1H161.1z M159.9,112.4c0-0.2,0-0.4-0.1-0.5c-0.2-0.7-0.8-1.2-1.6-1.2
			c-1.1,0-1.9,0.9-1.9,2.4c0,1.2,0.6,2.3,1.9,2.3c0.7,0,1.4-0.4,1.6-1.2c0.1-0.2,0.1-0.4,0.1-0.6V112.4z"/>
		<path class="st0" d="M171.1,114.5c0,0.7,0,1.2,0.1,1.7h-1l-0.1-1h0c-0.3,0.5-1,1.2-2.1,1.2c-1,0-2.2-0.6-2.2-2.8v-3.7h1.2v3.5
			c0,1.2,0.4,2,1.4,2c0.8,0,1.3-0.5,1.5-1.1c0.1-0.2,0.1-0.4,0.1-0.6v-3.9h1.2V114.5z"/>
		<path class="st0" d="M173,111.6c0-0.7,0-1.2-0.1-1.7h1l0.1,1.1h0c0.3-0.6,1.1-1.2,2.1-1.2c0.9,0,2.2,0.5,2.2,2.7v3.8h-1.2v-3.7
			c0-1-0.4-1.9-1.5-1.9c-0.8,0-1.4,0.5-1.5,1.2c-0.1,0.1-0.1,0.3-0.1,0.5v3.8H173V111.6z"/>
		<path class="st0" d="M181.6,108.1c0,0.4-0.3,0.7-0.7,0.7c-0.4,0-0.7-0.3-0.7-0.7c0-0.4,0.3-0.7,0.7-0.7
			C181.3,107.3,181.6,107.7,181.6,108.1z M180.3,116.2v-6.4h1.2v6.4H180.3z"/>
		<path class="st0" d="M189.1,113c0,2.3-1.6,3.4-3.2,3.4c-1.7,0-3-1.3-3-3.3c0-2.1,1.4-3.4,3.2-3.4C187.9,109.7,189.1,111,189.1,113
			z M184.1,113c0,1.4,0.8,2.4,1.9,2.4c1.1,0,1.9-1,1.9-2.5c0-1.1-0.5-2.4-1.9-2.4C184.7,110.6,184.1,111.8,184.1,113z"/>
		<path class="st0" d="M190.6,111.6c0-0.7,0-1.2-0.1-1.7h1l0.1,1.1h0c0.3-0.6,1.1-1.2,2.1-1.2c0.9,0,2.2,0.5,2.2,2.7v3.8h-1.2v-3.7
			c0-1-0.4-1.9-1.5-1.9c-0.8,0-1.4,0.5-1.5,1.2c-0.1,0.1-0.1,0.3-0.1,0.5v3.8h-1.2V111.6z"/>
	</g>
</g>
</svg>
