<?xml version="1.0" encoding="utf-8"?>
<!-- Generator: Adobe Illustrator 27.8.1, SVG Export Plug-In . SVG Version: 6.00 Build 0)  -->
<svg version="1.1" id="Layer_1" xmlns="http://www.w3.org/2000/svg" xmlns:xlink="http://www.w3.org/1999/xlink" x="0px" y="0px"
	 viewBox="0 0 200 200" style="enable-background:new 0 0 200 200;" xml:space="preserve">
<style type="text/css">
	.st0{fill:#C8C8C8;}
</style>
<g>
	<path class="st0" d="M159.3,65.3c-10.4,10.3-20.8,20.6-31.2,30.9c-0.2-0.1-0.1-0.3-0.1-0.5c0-3.1,0-6.1,0-9.2c0-2.8,0-5.7-0.1-8.5
		c-0.1-2.9-0.1-5.8-0.2-8.8c-0.1-2.3-0.1-4.7-0.3-7c-0.1-1.2-0.1-2.5-0.1-3.7c-0.1-1-0.3-1.9-0.5-2.8c-0.1-0.6-0.3-1.2-0.4-1.7
		c-0.3-0.9-0.6-1.8-0.9-2.7c-0.6-1.4-1.2-2.8-2-4.1c-1-1.7-2.1-3.3-3.5-4.8c-1-1.1-2-2.1-3.1-3c-1.2-1-2.4-1.9-3.7-2.6
		c-0.8-0.5-1.6-0.9-2.4-1.3c-0.7-0.3-1.4-0.6-2.1-0.9c-0.7-0.3-1.4-0.5-2.1-0.8c-0.6-0.2-1.2-0.3-1.8-0.5c-0.8-0.2-1.5-0.4-2.3-0.5
		c-0.6-0.1-1.2-0.2-1.9-0.3c-1.4-0.2-2.7-0.2-4.1-0.3c-0.9-0.1-1.7,0-2.6,0.1c-0.6,0.1-1.1,0.2-1.7,0.3c-0.8,0.1-1.5,0.3-2.3,0.5
		c-0.6,0.1-1.2,0.3-1.9,0.5c-0.7,0.2-1.4,0.5-2.1,0.7c-0.7,0.3-1.3,0.5-2,0.9c-1.2,0.6-2.4,1.2-3.5,2c-2.5,1.6-4.6,3.5-6.5,5.8
		c-1.2,1.4-2.2,2.9-3.2,4.5c-0.7,1.3-1.4,2.6-2,3.9c-0.3,0.8-0.7,1.6-0.9,2.4c-0.3,1-0.6,2.1-0.7,3.2c0,0.5-0.1,1-0.2,1.6
		c-0.2,1.9-0.2,3.7-0.2,5.6c0,5.3,0,10.5-0.1,15.8c0,3.9,0,7.7-0.1,11.6c0,1.7,0,3.4,0,5.1c0,0.1,0,0.2-0.1,0.4
		c-5.1-5.3-10.5-10.3-15.7-15.4C45.6,76.4,40.3,71.4,35,66.3c1.4-1.4,2.8-2.8,4.2-4.2c5.7-5.8,11.5-11.6,17.2-17.4
		c5.1-5.1,10.2-10.3,15.2-15.4c4.8-4.9,9.7-9.8,14.5-14.7c2.4-2.5,4.9-4.9,7.3-7.4c1-1,1.9-1.9,2.8-2.9c0.3-0.3,0.4-0.3,0.7,0
		c2.3,2.3,4.7,4.6,7,6.9c3,3,6.1,6,9.1,8.9c4,3.9,8,7.9,12,11.8c3,2.9,5.9,5.8,8.9,8.7c3,2.9,6,5.9,9,8.8c2.9,2.8,5.8,5.7,8.7,8.5
		c2.5,2.4,4.9,4.8,7.4,7.2C159.2,65.2,159.2,65.2,159.3,65.3z"/>
	<g>
		<path class="st0" d="M78.4,99.4c-0.8-2.2-1.5-4.3-2.2-6.4c-0.6,0-1.2,0-1.7,0c0,2.8,0,5.5,0,8.3c0.5,0,0.9,0,1.4,0
			c0-1.8,0-3.6,0-5.3c0,0,0,0,0.1,0c0.6,1.8,1.2,3.6,1.8,5.4c0.4,0,0.8,0,1.3,0c0.6-1.8,1.2-3.6,1.8-5.4c0,0,0.1,0,0.1,0
			c0,1.8,0,3.6,0,5.4c0.5,0,0.9,0,1.3,0c0-2.8,0-5.5,0-8.3c-0.6,0-1.1,0-1.7,0C79.8,95.1,79.1,97.2,78.4,99.4z"/>
		<path class="st0" d="M122.4,94.5c-0.9-1.4-2.3-1.9-3.9-1.7c-1.4,0.2-2.5,0.9-3,2.2c-0.5,1.3-0.6,2.6-0.1,3.9c1,3.2,5,3.3,6.7,1.4
			c0.8-0.9,1.1-2,1.1-3.1C123.2,96.1,122.9,95.2,122.4,94.5z M121.5,98.7c-0.4,1-1.2,1.6-2.4,1.6c-1.1,0-1.9-0.5-2.4-1.6
			c-0.2-0.5-0.3-1-0.3-1.4c0-0.7,0.1-1.3,0.3-1.8c0.5-1,1.3-1.5,2.4-1.5c1.1,0,1.8,0.6,2.2,1.5C121.9,96.6,121.9,97.7,121.5,98.7z"
			/>
		<path class="st0" d="M103.9,96.7c-0.3-0.1-0.6-0.2-1-0.3c-0.6-0.2-1.2-0.3-1.8-0.6c-0.6-0.2-0.7-0.7-0.4-1.2
			c0.2-0.3,0.4-0.5,0.7-0.6c0.6-0.2,1.3-0.2,1.8,0.1c0.5,0.2,0.7,0.6,0.7,1.1c0,0.1,0,0.2,0.1,0.2c0.4,0,0.8,0.1,1.3,0
			c0.1-0.8-0.1-1.3-0.6-1.9c-0.5-0.6-1.2-0.8-2-0.9c-0.9-0.1-1.7,0-2.4,0.4c-0.8,0.5-1.2,1.3-1.1,2.3c0.1,0.9,0.6,1.4,1.5,1.7
			c0.4,0.1,0.8,0.3,1.3,0.4c0.6,0.1,1.2,0.3,1.7,0.6c0.4,0.2,0.6,0.5,0.5,0.9c-0.1,0.5-0.4,0.8-0.9,1c-0.5,0.2-1,0.1-1.5,0.1
			c-0.8-0.1-1.5-0.7-1.5-1.7c0,0,0-0.1,0-0.1c-0.4,0-0.8,0-1.3,0c0,0.8,0.1,1.4,0.6,2c0.5,0.6,1.2,1,2,1c1.1,0.1,2.1,0,3-0.6
			c0.8-0.6,1.2-1.3,1-2.3C105.4,97.7,104.8,97,103.9,96.7z"/>
		<path class="st0" d="M93.7,93c-1,2.8-2,5.5-3,8.3c0.5,0,1,0,1.4,0c0.3-0.8,0.6-1.6,0.8-2.4c1,0,1.9,0,2.9,0
			c0.3,0.8,0.5,1.6,0.8,2.4c0.5,0,1,0,1.5,0c-1-2.8-1.9-5.5-2.9-8.3C94.7,93,94.2,93,93.7,93z M93.4,97.7c0.3-0.9,0.7-1.8,1-2.7
			c0,0,0.1,0,0.1,0c0.3,0.9,0.6,1.8,0.9,2.7C94.7,97.7,94.1,97.7,93.4,97.7z"/>
		<path class="st0" d="M112.3,99.1c-0.3,0.5-0.6,0.9-1.2,1.1c-1,0.3-2-0.2-2.5-1.2c-0.4-0.8-0.4-1.7-0.3-2.6
			c0.1-0.5,0.2-0.9,0.5-1.3c0.8-1.3,2.8-1.4,3.6,0.1c0.1,0.2,0.2,0.4,0.3,0.6c0.5,0,0.9,0,1.3,0c0,0,0-0.1,0-0.1
			c-0.5-1.9-2-3.2-4.1-2.7c-1.3,0.2-2.2,0.9-2.6,2.1c-0.6,1.5-0.6,3,0.1,4.4c0.8,1.8,2.5,2.3,3.8,2c1.6-0.3,2.9-1.9,3-3.5
			c-0.4,0-0.9,0-1.3,0C112.6,98.4,112.5,98.8,112.3,99.1z"/>
		<path class="st0" d="M88.1,92.9c-1.1,0-2.3,0-3.4,0c-0.1,0-0.3,0-0.4,0.1c0,2.8,0,5.5,0,8.2c0.5,0,0.9,0,1.4,0c0-1.1,0-2.2,0-3.4
			c0.8,0,1.5,0,2.3,0c1.4,0.1,2.5-1,2.5-2.4C90.4,94,89.5,92.9,88.1,92.9z M87.8,96.7c-0.7,0-1.4,0-2.2,0c0-0.8,0-1.6,0-2.5
			c0.8,0,1.6-0.1,2.4,0c0.7,0.1,1,0.6,1,1.3C89,96.2,88.5,96.6,87.8,96.7z"/>
		<path class="st0" d="M71.1,101.3c0.5,0,0.9,0,1.3,0c0-2.8,0-5.5,0-8.3c-0.5,0-0.9,0-1.3,0C71.1,95.8,71.1,98.5,71.1,101.3z"/>
	</g>
	<g>
		<path class="st0" d="M41.4,124c0,0.1,0,0.2,0,0.3c-0.1,1.3-0.4,2.4-0.8,3.4c-0.3,0.7-0.6,1.3-1,1.9c-1,1.3-2.1,1.9-3.4,1.9
			c-0.6,0-1.2-0.2-1.6-0.7c-0.4-0.4-0.7-1-0.7-1.8c0-1.2,0.4-2.5,1.1-4l0.2-0.4c0,0,0,0,0,0.1c0,0.1-0.1,0.2-0.1,0.4
			c-0.1,0.2-0.2,0.4-0.3,0.7c-0.1,0.2-0.2,0.5-0.2,0.7s-0.1,0.4-0.2,0.7c0,0.2,0,0.3,0,0.5c0,0,0,0.1,0,0.1c0.1,0.6,0.3,1,0.8,1.3
			c0.4,0.3,0.9,0.4,1.5,0.4c0.8,0,1.5-0.2,2.2-0.6c0.5-0.4,0.9-0.8,1.3-1.3c0.5-0.6,0.7-1.4,0.7-2.5c0-0.2,0-0.3,0-0.5
			c0-0.3,0-0.5,0.1-0.7c0.1-0.2,0.2-0.7,0.5-1.4c0.1-0.2,0.1-0.3,0.1-0.3c0,0,0,0,0.1,0c0,0,0,0,0,0c0,0,0,0,0,0.1c0,0,0,0.1,0,0.1
			l-0.1,0.6L41.4,124z M38.8,125.3c0,0,0,0.1,0,0.1c0,0.1,0,0.1,0,0.2c0,0.1-0.1,0.3-0.2,0.4c0,0-0.1,0.1-0.1,0.1
			c0,0-0.1,0.1-0.1,0.2c0,0.1-0.1,0.1-0.1,0.2c0,0-0.1,0.1-0.1,0.1c-0.1,0.1-0.1,0.1-0.1,0.1c0,0-0.1,0-0.1,0c0,0,0,0,0,0s0,0,0,0
			c0,0,0,0-0.1,0c-0.1-0.1-0.3-0.2-0.4-0.4c-0.1-0.1-0.3-0.2-0.5-0.3c0,0,0,0,0-0.1s0,0,0-0.1l0.9-1.5c0,0,0.1-0.1,0.1,0
			s0.1,0,0.1,0c0.2,0.1,0.3,0.2,0.5,0.4C38.6,125,38.7,125.1,38.8,125.3z"/>
		<path class="st0" d="M43.9,121c0.1-0.1,0.1-0.2,0.1-0.2c0,0,0.1,0,0.1,0.1c0,0,0,0,0,0.1c-0.1,0.4-0.1,0.7-0.1,0.9
			c0,0.2,0,0.4-0.1,0.5s0,0.3,0,0.4c0,0.1,0,0.2,0,0.3c0,0.1,0,0.2,0,0.4c-0.1,0.6-0.2,1.1-0.3,1.5c-0.1,0.4-0.3,0.8-0.5,1.1
			c-0.2,0.3-0.3,0.5-0.4,0.5c0,0,0,0,0,0c0,0,0-0.1,0-0.2c0.1-0.1,0.1-0.3,0.1-0.5c0-0.2,0.1-0.4,0.1-0.6c0-0.2,0.1-0.5,0.1-0.7
			c0-0.2,0.1-0.5,0.1-0.7c0-0.1,0-0.3,0.1-0.6c0-0.3,0.1-0.5,0.2-0.7L43.9,121z"/>
		<path class="st0" d="M48.8,123.6c-0.1,0.2-0.1,0.4-0.2,0.6s-0.2,0.3-0.3,0.4c-0.1,0.1-0.2,0.2-0.3,0.3c-0.1,0.1-0.3,0.2-0.4,0.2
			c-0.1,0.1-0.3,0.1-0.4,0.2c-0.1,0.1-0.2,0.2-0.3,0.2c-0.1,0.1-0.2,0.3-0.3,0.5c-0.1,0.2-0.2,0.4-0.2,0.6c-0.1,0.2-0.2,0.4-0.3,0.6
			s-0.2,0.4-0.4,0.5c-0.2,0.2-0.5,0.4-0.9,0.4l-1.1,0.2c0,0-0.1,0-0.1,0c0,0-0.1,0-0.1,0c-0.1,0-0.1-0.1-0.1-0.1c0,0,0,0,0-0.1
			c0-0.1,0.1-0.2,0.3-0.3c0.3-0.2,0.5-0.4,0.7-0.5c0.2-0.1,0.3-0.2,0.4-0.3c0.1-0.1,0.2-0.1,0.3-0.2s0.1-0.1,0.2-0.2
			c0.3-0.2,0.5-0.5,0.7-0.8c0.1-0.1,0.1-0.3,0.2-0.4c0.1-0.1,0.1-0.3,0.2-0.4c0.1-0.1,0.1-0.3,0.2-0.4c0.1-0.1,0.2-0.2,0.3-0.4
			c0.1-0.1,0.2-0.2,0.4-0.4s0.4-0.2,0.6-0.4c0.3-0.1,0.5-0.3,0.5-0.6c0-0.1,0.1-0.2,0.2-0.3c0.1-0.1,0.1-0.2,0.2-0.2
			c0.1,0,0.1,0,0.1,0.1c0,0,0,0.1,0,0.1c0,0.1,0,0.2-0.1,0.3C48.8,123.3,48.8,123.4,48.8,123.6z M46.8,131.3c0,0.1,0,0.1,0,0.2
			c0,0.1,0,0.1,0,0.2c0,0.1-0.1,0.2-0.2,0.4c-0.1,0.1-0.1,0.2-0.2,0.3c-0.1,0.1-0.1,0.2-0.2,0.2c-0.1,0.1-0.1,0.1-0.1,0.1
			c0,0-0.1,0-0.1,0c0,0-0.1,0-0.1,0s0,0-0.1,0c-0.1-0.1-0.3-0.2-0.4-0.3c-0.1-0.1-0.3-0.2-0.4-0.3c0,0,0,0,0-0.1c0,0,0,0,0-0.1
			l0.9-1.4c0,0,0.1-0.1,0.1-0.1c0,0,0.1,0,0.1,0c0.1,0,0.2,0.1,0.2,0.2c0.1,0.1,0.2,0.1,0.2,0.2c0.1,0.1,0.1,0.1,0.2,0.2
			C46.8,131.1,46.8,131.2,46.8,131.3z M48.6,131.2c0,0.1,0,0.1,0,0.2c0,0.1,0,0.1,0,0.2c0,0.1-0.1,0.2-0.2,0.4
			c-0.1,0.1-0.1,0.2-0.2,0.3c-0.1,0.1-0.1,0.2-0.2,0.2c-0.1,0.1-0.1,0.1-0.1,0.1c0,0-0.1,0-0.1,0c0,0-0.1,0-0.1,0c0,0,0,0-0.1,0
			c-0.1-0.1-0.3-0.2-0.4-0.3c-0.1-0.1-0.3-0.2-0.4-0.3c0,0,0,0,0-0.1c0,0,0,0,0-0.1l0.9-1.4c0,0,0.1-0.1,0.1,0c0,0,0.1,0,0.1,0
			c0.1,0,0.2,0.1,0.2,0.2s0.2,0.1,0.2,0.2c0.1,0.1,0.1,0.1,0.2,0.2C48.6,131,48.6,131.1,48.6,131.2z"/>
		<path class="st0" d="M50.5,121c0.1-0.1,0.1-0.2,0.1-0.2c0,0,0.1,0,0.1,0.1c0,0,0,0,0,0.1c0,0.1-0.1,0.2-0.1,0.4
			c0,0.2-0.1,0.4-0.1,0.5c0,0.2,0,0.4-0.1,0.7c0,0.3,0,0.5-0.1,0.8c0,0.3,0,0.5-0.1,0.8c0,0.3,0,0.5-0.1,0.7
			c-0.1,0.6-0.2,1.1-0.3,1.5c-0.1,0.4-0.3,0.8-0.5,1.1s-0.3,0.5-0.4,0.5c0,0,0,0,0,0c0,0,0-0.1,0-0.2c0.1-0.1,0.1-0.3,0.1-0.5
			c0-0.2,0.1-0.4,0.1-0.6c0-0.2,0.1-0.5,0.1-0.7c0-0.2,0.1-0.5,0.1-0.7c0-0.2,0.1-0.5,0.1-0.9c0-0.4,0-0.7,0.1-1
			c0-0.3,0.1-0.5,0.2-0.7L50.5,121z"/>
		<path class="st0" d="M52.8,123.8c-0.2,0.4-0.3,0.7-0.5,1.1s-0.3,0.7-0.4,1.1c-0.2,0.7-0.3,1.2-0.3,1.6c0,0.1,0,0.1,0,0.2
			c0,0.5,0.2,0.8,0.6,1.1c0.3,0.3,0.8,0.4,1.4,0.4c0.5,0,1-0.1,1.5-0.3c0.4-0.2,0.7-0.4,1-0.6c0.3-0.2,0.5-0.5,0.6-0.7
			c0.2-0.3,0.2-0.5,0.2-0.6c0-0.1,0-0.1-0.1-0.2s-0.2-0.1-0.3-0.1c-0.1,0-0.2-0.1-0.4-0.1c-0.1,0-0.2-0.1-0.3-0.1
			c-0.2-0.1-0.3-0.2-0.4-0.3s-0.2-0.3-0.2-0.6c0-0.3,0.1-0.7,0.3-1.1c0-0.1,0.1-0.1,0.1-0.1c0,0,0.1,0,0.1,0c0,0,0.1,0,0.1,0
			c0,0,0.1,0.1,0.1,0.1c0,0.1,0,0.1,0.1,0.2c0.1,0.1,0.3,0.1,0.5,0.2c0.2,0.1,0.4,0.2,0.4,0.2c0.2,0.1,0.3,0.4,0.3,0.7
			c0,0.5-0.1,1.1-0.3,1.8c-0.2,0.7-0.5,1.3-0.9,1.8c-0.2,0.2-0.3,0.5-0.6,0.7c-0.2,0.2-0.5,0.4-0.7,0.6c-0.5,0.3-1.1,0.5-1.8,0.5
			c-0.8,0-1.3-0.3-1.7-0.7c-0.2-0.2-0.3-0.5-0.4-0.8c-0.1-0.3-0.1-0.5-0.1-0.8c0-0.4,0.1-0.9,0.2-1.3c0.1-0.5,0.2-0.9,0.4-1.3
			s0.4-0.9,0.6-1.3c0.2-0.4,0.4-0.8,0.6-1.2c0-0.1,0.1-0.1,0.1-0.1c0-0.1,0.1-0.1,0.1-0.1c0,0,0,0,0,0h0c0,0,0,0,0,0c0,0,0,0,0,0
			C52.9,123.7,52.8,123.7,52.8,123.8z"/>
		<path class="st0" d="M56.8,115.8c0,0,0,0.1,0,0.1c0,0.1,0,0.1,0,0.2c0,0.1-0.1,0.3-0.2,0.4c0,0.1-0.1,0.2-0.2,0.3
			c-0.1,0.1-0.2,0.2-0.2,0.3c-0.1,0.1-0.1,0.1-0.1,0.1c0,0-0.1,0-0.1,0c0,0,0,0,0,0c0,0,0,0,0,0c0,0,0,0,0,0
			c-0.1-0.1-0.3-0.2-0.4-0.3c-0.1-0.1-0.3-0.2-0.4-0.3c0,0,0,0,0-0.1s0,0,0-0.1l0.9-1.4c0,0,0.1-0.1,0.1,0c0,0,0.1,0,0.1,0
			c0.1,0,0.2,0.1,0.2,0.2c0.1,0.1,0.2,0.1,0.2,0.2c0.1,0.1,0.1,0.1,0.2,0.2C56.8,115.6,56.8,115.7,56.8,115.8z M55.5,124.5
			c0.2-0.5,0.3-0.8,0.4-0.9c0.2-0.6,0.4-1,0.4-1.3c0-0.1,0-0.2-0.1-0.4c-0.1-0.2-0.2-0.4-0.2-0.5c0-0.1-0.1-0.1-0.1-0.2
			c0-0.1-0.1-0.1-0.1-0.2c-0.1-0.1-0.1-0.2-0.1-0.2c0.1-0.2,0.1-0.3,0.1-0.4c0-0.1,0.1-0.2,0.1-0.3c0.2-0.5,0.3-0.8,0.4-1
			c0.2,0.1,0.4,0.3,0.6,0.7c0.2,0.4,0.3,0.8,0.3,1.2c0,0.4-0.1,0.9-0.3,1.6c-0.1,0.3-0.3,0.7-0.4,1c-0.1,0.3-0.3,0.7-0.4,1
			c0,0,0,0.1-0.1,0.1c0,0-0.1,0-0.1,0C55.7,124.7,55.6,124.7,55.5,124.5C55.6,124.6,55.5,124.6,55.5,124.5z"/>
		<path class="st0" d="M58.8,127.8c-0.3,0.4-0.6,0.6-0.9,0.7c-0.4,0.1-0.7,0.2-1.2,0.2c-0.1,0-0.1,0-0.2,0c0,0,0,0,0,0
			c0,0,0-0.1,0.1-0.1c0.5-0.3,0.9-0.6,1.3-0.8c0.4-0.3,0.7-0.6,1-0.9s0.5-0.7,0.7-1.1c0.2-0.4,0.4-0.8,0.6-1.2
			c0-0.1,0.1-0.1,0.1-0.1c0,0,0,0,0,0c0,0,0,0,0,0.1c0,0,0,0.1,0,0.1c-0.2,0.4-0.2,0.7-0.3,0.9v0c0,0.1-0.1,0.2-0.1,0.2
			c-0.1,0.3-0.3,0.6-0.4,0.9C59.2,127.2,59,127.6,58.8,127.8z"/>
		<path class="st0" d="M63.8,126c0,0,0.1,0.1,0.1,0.1c0,0.1,0,0.2,0,0.2c0,0.1,0,0.2,0,0.2c0,0.1,0,0.1-0.1,0.1
			c-0.1,0.1-0.1,0.1-0.2,0.2c-0.1,0.1-0.2,0.1-0.3,0.2s-0.2,0.1-0.3,0.1c0,0-0.1,0-0.1,0c-0.1,0-0.2,0-0.2,0
			c-0.4,0.4-0.8,0.7-1.1,0.9c-0.3,0.2-0.6,0.3-1,0.3c-0.2,0-0.4-0.1-0.5-0.1c-0.1-0.1-0.3-0.2-0.4-0.3c-0.1-0.1-0.2-0.2-0.2-0.4
			c-0.1-0.1-0.1-0.3-0.1-0.4c0-0.1-0.1-0.3-0.1-0.4c0-0.1,0-0.2,0-0.3c0-0.1,0.1-0.3,0.1-0.5c0.1-0.2,0.1-0.3,0.2-0.4
			c0.1-0.1,0.1-0.3,0.2-0.4c0.1-0.1,0.2-0.2,0.2-0.2c0,0.3,0,0.6,0.2,0.8c0.1,0.2,0.3,0.4,0.4,0.5c0.2,0.1,0.4,0.2,0.6,0.2
			s0.5,0,0.8-0.1c0,0,0-0.1,0-0.2c0-0.1,0-0.1,0-0.2c0-0.1,0-0.1-0.1-0.2c0-0.1-0.1-0.1-0.1-0.1c-0.1,0-0.1,0-0.2,0
			c-0.1,0-0.2,0-0.4,0.1c-0.1,0-0.1,0-0.1-0.1c0,0,0,0,0,0c0,0,0-0.1,0.1-0.1c0.1-0.1,0.2-0.3,0.4-0.4c0.1-0.1,0.3-0.2,0.5-0.3
			c0.2-0.1,0.4-0.1,0.6-0.1c0.2,0,0.4,0.1,0.7,0.2c0.2,0.1,0.3,0.3,0.3,0.5c0,0.1,0,0.1,0,0.2c0,0.1-0.1,0.2-0.2,0.4
			s-0.2,0.2-0.3,0.3c0,0,0.1,0,0.2,0c0.1,0,0.1,0,0.2-0.1c0.1,0,0.1,0,0.2-0.1C63.7,126,63.7,126,63.8,126z"/>
		<path class="st0" d="M65.4,124c0.1-0.1,0.2-0.3,0.3-0.4c0.1-0.1,0.2-0.2,0.2-0.3c0,0,0.1,0,0.1-0.1s0.1,0,0.1,0.1
			c0.1,0.2,0.3,0.3,0.4,0.5c0.1,0.2,0.2,0.3,0.2,0.5c0,0.1,0,0.1,0,0.2c0,0.1,0,0.2-0.1,0.3c-0.1,0.2-0.2,0.4-0.4,0.5
			c-0.1,0.1-0.3,0.2-0.4,0.2c-0.1,0-0.2,0-0.3-0.1c-0.1,0-0.1,0-0.2,0c-0.1,0-0.2,0-0.3,0.1c-0.1,0.1-0.3,0.2-0.4,0.4
			c0,0.1-0.1,0.1-0.2,0.2c-0.1,0.1-0.2,0.2-0.2,0.3s-0.2,0.2-0.2,0.3c-0.1,0.1-0.1,0.2-0.2,0.2c0-0.1,0-0.2-0.1-0.4s0-0.2,0.1-0.4
			c0.1-0.1,0.1-0.2,0.2-0.3s0.2-0.4,0.4-0.6C64.7,124.6,65,124.2,65.4,124z"/>
		<path class="st0" d="M70,124.2C69.9,124.2,69.9,124.2,70,124.2c-0.1,0-0.2,0-0.2,0.1c-0.1,0.1-0.2,0.1-0.3,0.2
			c-0.7,0.5-1.2,1.1-1.6,1.9c-0.5,0.8-0.7,1.6-0.7,2.2c0,0.6,0.2,1.1,0.6,1.5c0.4,0.4,0.9,0.6,1.6,0.6c0.1,0,0.2,0,0.3,0
			c0.7,0,1.3-0.1,1.9-0.3c0.5-0.2,0.9-0.4,1.3-0.7c0.3-0.2,0.5-0.4,0.7-0.6c0.2-0.2,0.4-0.4,0.6-0.6c0.2-0.2,0.3-0.3,0.3-0.3
			c0,0,0,0,0,0c0,0.1-0.1,0.2-0.2,0.3c-0.1,0.2-0.3,0.4-0.5,0.7c-1.5,2.1-3.1,3.2-5,3.2c-0.9,0-1.5-0.3-1.9-0.8s-0.6-1.1-0.6-1.9
			c0-1,0.4-2.2,1-3.3c0.5-0.7,1-1.4,1.6-2c0.1-0.1,0.2-0.2,0.4-0.4c0.2-0.1,0.2-0.2,0.3-0.2c0.1-0.1,0.2-0.2,0.2-0.4
			c0-0.1,0-0.1,0-0.2s0-0.1,0-0.1c0-0.1-0.1-0.2-0.2-0.2c-0.1-0.1-0.2-0.1-0.3-0.1c-0.1,0-0.1,0-0.2,0c-0.1,0-0.1,0.1-0.2,0.1
			c0-0.1,0-0.2,0.2-0.4c0.1-0.2,0.3-0.4,0.6-0.5c0.3-0.1,0.5-0.2,0.8-0.2c0.3,0,0.5,0.1,0.8,0.2c0.2,0.1,0.3,0.2,0.3,0.4
			c0,0,0,0.1,0,0.1c0,0.1-0.1,0.2-0.1,0.3c-0.1,0.1-0.1,0.2-0.3,0.3c0,0,0,0.1,0,0.1c0,0,0,0.1,0.1,0.1c0,0,0.1,0,0.1,0
			c0.1,0,0.1,0,0.2,0c0.1,0,0.2-0.1,0.3-0.2c0,0.1,0,0.1,0.1,0.2c0,0.1,0,0.1,0,0.2c0,0.1,0,0.1,0,0.2c0,0.1,0,0.1-0.1,0.2
			c-0.3,0.2-0.5,0.4-0.7,0.4c0,0-0.1,0-0.1,0c-0.1,0-0.2,0-0.3,0C70.2,124.3,70.1,124.3,70,124.2z"/>
		<path class="st0" d="M71.1,127.8c0,0.1,0,0.1,0,0.2c0,0.1,0,0.1,0,0.2c0,0.1-0.1,0.2-0.2,0.4c-0.1,0.1-0.1,0.2-0.2,0.3
			c-0.1,0.1-0.1,0.2-0.2,0.2c-0.1,0.1-0.1,0.1-0.1,0.1c0,0-0.1,0-0.1,0s-0.1,0-0.1,0s0,0-0.1,0c-0.1-0.1-0.3-0.2-0.4-0.3
			c-0.1-0.1-0.3-0.2-0.4-0.3c0,0,0,0,0-0.1c0,0,0,0,0-0.1l0.9-1.4c0,0,0.1-0.1,0.1,0c0,0,0.1,0,0.1,0c0.1,0,0.2,0.1,0.2,0.2
			c0.1,0.1,0.2,0.1,0.2,0.2c0.1,0.1,0.1,0.1,0.2,0.2C71.1,127.6,71.1,127.7,71.1,127.8z M72.9,127.7c0,0.1,0,0.1,0,0.2
			c0,0.1,0,0.1,0,0.2c0,0.1-0.1,0.2-0.2,0.4c-0.1,0.1-0.1,0.2-0.2,0.3c-0.1,0.1-0.1,0.2-0.2,0.3c-0.1,0.1-0.1,0.1-0.1,0.1
			c0,0-0.1,0-0.1,0c0,0-0.1,0-0.1,0s0,0-0.1,0c-0.1-0.1-0.3-0.2-0.4-0.3c-0.1-0.1-0.3-0.2-0.4-0.3c0,0,0,0,0-0.1c0,0,0,0,0-0.1
			l0.9-1.4c0,0,0.1-0.1,0.1,0s0.1,0,0.1,0c0.1,0,0.2,0.1,0.2,0.2s0.2,0.1,0.2,0.2c0.1,0.1,0.1,0.1,0.2,0.2
			C72.9,127.5,72.9,127.6,72.9,127.7z M71.5,123.3c0.1-0.1,0.1-0.1,0.2-0.2c0.1-0.1,0.1-0.1,0.2-0.2c0.1-0.1,0.2-0.3,0.2-0.4v-0.6
			c0-0.1,0-0.3,0.1-0.5c0.1-0.2,0.2-0.5,0.3-0.6l0.4-0.9c0,0,0-0.1,0.1-0.1c0,0,0,0.1,0,0.2l0,0.6l0,0.8c0,0.3-0.1,0.6-0.2,0.9
			c-0.1,0.3-0.2,0.6-0.4,0.9c-0.2,0.4-0.5,0.7-0.7,0.9c-0.1-0.1-0.1-0.3-0.1-0.4C71.4,123.5,71.4,123.4,71.5,123.3z"/>
		<path class="st0" d="M74.2,125.1c0,0.4-0.1,0.7-0.3,1c-0.1,0.3-0.3,0.4-0.5,0.4c0-0.1,0-0.6,0.1-1.4c0.1-0.8,0.2-1.3,0.2-1.7
			s0.1-0.7,0.2-1.1s0.1-0.7,0.2-0.9c0.1-0.2,0.1-0.4,0.2-0.6s0.2-0.4,0.2-0.6c0,0,0-0.1,0.1-0.1c0,0,0,0,0,0.1
			c-0.1,0.7-0.2,1.3-0.3,2s-0.1,1.2-0.2,1.5s0,0.5,0,0.5C74.2,124.7,74.2,124.9,74.2,125.1z"/>
		<path class="st0" d="M77.1,126.7c-0.1,0-0.2,0-0.2,0s-0.1,0-0.2,0c-0.2,0.1-0.5,0.4-0.8,0.8c-0.4,0.6-0.8,0.8-1.2,0.8
			c-0.4,0-0.8-0.2-1-0.6c-0.2-0.4-0.3-0.8-0.3-1.4c0.1-0.3,0.2-0.6,0.3-0.9c0.1-0.3,0.3-0.4,0.4-0.5c0,1,0.4,1.4,1.2,1.4
			c0.3,0,0.6-0.1,0.8-0.3c0.2-0.2,0.4-0.4,0.5-0.5c0.2-0.1,0.3-0.2,0.4-0.2c0.1,0.1,0.1,0.3,0.1,0.5S77.2,126.6,77.1,126.7z
			 M77,120.7c0,0,0,0.1,0,0.1c0,0.1,0,0.1,0,0.2c0,0.1-0.1,0.3-0.2,0.4c0,0.1-0.1,0.2-0.2,0.3s-0.2,0.2-0.2,0.3
			c-0.1,0.1-0.1,0.1-0.1,0.1c0,0-0.1,0-0.1,0c0,0,0,0,0,0s0,0,0,0c0,0,0,0-0.1,0c-0.1-0.1-0.3-0.2-0.4-0.3c-0.1-0.1-0.3-0.2-0.4-0.3
			c0,0,0,0,0-0.1s0,0,0-0.1l0.9-1.4c0,0,0.1-0.1,0.1,0c0,0,0.1,0,0.1,0c0.1,0,0.2,0.1,0.2,0.2s0.2,0.1,0.2,0.2
			c0.1,0.1,0.1,0.1,0.2,0.2C76.9,120.5,76.9,120.6,77,120.7z"/>
		<path class="st0" d="M79.3,124.8c0.3-0.4,0.6-0.8,0.8-1.2s0.5-0.6,0.8-0.8c0.1-0.1,0.3-0.2,0.4-0.2c0,0,0.1,0,0.1,0
			c0.1,0,0.2,0,0.2,0c0.1,0,0.2,0.1,0.3,0.2c0.1,0.1,0.1,0.2,0.1,0.3c0,0.4-0.1,0.7-0.2,1c-0.1,0.3-0.3,0.6-0.5,0.9
			c-0.2,0.3-0.5,0.5-0.7,0.7c-0.3,0.2-0.5,0.3-0.8,0.4c-0.1,0-0.2,0-0.4,0s-0.3,0-0.4,0c-0.1,0-0.3-0.1-0.4-0.1
			c-0.1-0.1-0.2-0.2-0.3-0.3c-0.1,0.1-0.2,0.2-0.2,0.3c-0.1,0.1-0.2,0.2-0.2,0.4c-0.1,0.1-0.1,0.1-0.2,0.2c-0.1,0-0.1,0.1-0.2,0.1
			c-0.1,0-0.1,0-0.2,0c-0.1,0-0.1,0-0.2,0c-0.1-0.1-0.1-0.2-0.1-0.3c0-0.1,0-0.2,0-0.2c0,0,0-0.1,0-0.1c0-0.1,0-0.2,0.1-0.3
			c0-0.1,0.1-0.2,0.1-0.2c0,0,0.1,0,0.1,0c0,0,0.1,0,0.1,0c0,0,0.1,0,0.1,0c0,0,0.1,0,0.1,0c0,0,0.1,0,0.1,0c0,0,0.1,0,0.1,0
			c0.1,0,0.1-0.1,0.2-0.1c0.1-0.1,0.1-0.1,0.2-0.3c0.1-0.1,0.2-0.2,0.3-0.4c0.1-0.1,0.1-0.2,0.2-0.2c0.1,0,0.2,0,0.3,0.1
			C79.1,124.8,79.2,124.8,79.3,124.8z M79.6,124.9c0.5-0.1,0.9-0.2,1.2-0.4c0.3-0.2,0.6-0.4,0.8-0.7c-0.1,0-0.2-0.1-0.3-0.1
			c-0.1,0-0.2-0.1-0.3-0.1c0,0-0.1,0-0.1,0c-0.1,0-0.1,0-0.2,0c-0.1,0-0.2,0.1-0.3,0.1c-0.2,0.2-0.4,0.4-0.5,0.6
			C79.9,124.5,79.8,124.7,79.6,124.9z"/>
		<path class="st0" d="M84.6,126.1c-0.2,0.6-0.4,1-0.6,1.2c-0.2,0.2-0.3,0.4-0.4,0.5c-0.1,0.1-0.3,0.2-0.5,0.2
			c-0.2,0.1-0.4,0.1-0.7,0.2c-0.2,0.1-0.4,0.1-0.5,0.1c0,0-0.1,0-0.1,0c0,0,0,0,0,0c0-0.1,0.2-0.2,0.5-0.4c0.4-0.2,0.6-0.4,0.9-0.6
			s0.4-0.4,0.6-0.6c0.2-0.2,0.3-0.5,0.4-0.7c0,0-0.1,0-0.2,0.1c-0.1,0-0.1,0-0.2,0s-0.1,0-0.2,0s-0.1,0-0.2,0
			c-0.2,0-0.4-0.1-0.6-0.2s-0.2-0.3-0.2-0.5c0-0.1,0-0.2,0.1-0.3c0-0.1,0.1-0.3,0.3-0.6c0.1-0.3,0.3-0.5,0.5-0.7s0.3-0.3,0.5-0.3
			c0.2,0,0.4,0.1,0.6,0.3s0.3,0.5,0.3,0.7c0,0.1,0,0.1,0,0.2c0,0.1,0,0.2,0,0.3c0,0.1,0,0.3-0.1,0.4c0,0.1-0.1,0.2-0.1,0.4
			C84.7,125.9,84.7,126,84.6,126.1z"/>
		<path class="st0" d="M92.3,124c0,0.1,0,0.2,0,0.3c-0.1,1.3-0.4,2.4-0.8,3.4c-0.3,0.7-0.6,1.3-1,1.9c-1,1.3-2.1,1.9-3.4,1.9
			c-0.6,0-1.2-0.2-1.6-0.7c-0.4-0.4-0.7-1-0.7-1.8c0-1.2,0.4-2.5,1.1-4l0.2-0.4c0,0,0,0,0,0.1c0,0.1-0.1,0.2-0.1,0.4
			c-0.1,0.2-0.2,0.4-0.3,0.7c-0.1,0.2-0.2,0.5-0.2,0.7s-0.1,0.4-0.2,0.7c0,0.2,0,0.3,0,0.5c0,0,0,0.1,0,0.1c0.1,0.6,0.3,1,0.8,1.3
			c0.4,0.3,0.9,0.4,1.5,0.4c0.8,0,1.5-0.2,2.2-0.6c0.5-0.4,0.9-0.8,1.3-1.3c0.5-0.6,0.7-1.4,0.7-2.5c0-0.2,0-0.3,0-0.5
			c0-0.3,0-0.5,0.1-0.7c0.1-0.2,0.2-0.7,0.5-1.4c0.1-0.2,0.1-0.3,0.1-0.3c0,0,0,0,0.1,0c0,0,0,0,0,0c0,0,0,0,0,0.1c0,0,0,0.1,0,0.1
			l-0.1,0.6L92.3,124z M89.6,125.3c0,0,0,0.1,0,0.1c0,0.1,0,0.1,0,0.2c0,0.1-0.1,0.3-0.2,0.4c0,0-0.1,0.1-0.1,0.1
			c0,0-0.1,0.1-0.1,0.2c0,0.1-0.1,0.1-0.1,0.2c0,0-0.1,0.1-0.1,0.1c-0.1,0.1-0.1,0.1-0.1,0.1c0,0-0.1,0-0.1,0c0,0,0,0,0,0s0,0,0,0
			c0,0,0,0-0.1,0c-0.1-0.1-0.3-0.2-0.4-0.4c-0.1-0.1-0.3-0.2-0.5-0.3c0,0,0,0,0-0.1s0,0,0-0.1l0.9-1.5c0,0,0.1-0.1,0.1,0
			s0.1,0,0.1,0c0.2,0.1,0.3,0.2,0.5,0.4C89.4,125,89.5,125.1,89.6,125.3z"/>
		<path class="st0" d="M92.5,128.2c0.1-0.1,0.2-0.2,0.4-0.3c0.4-0.3,0.7-0.6,0.9-0.8c0.3-0.3,0.4-0.5,0.4-0.6c0,0,0,0,0-0.1
			c0-0.2-0.1-0.4-0.3-0.6c-0.2-0.3-0.5-0.5-0.8-0.7c0,0,0,0,0-0.1s0,0,0,0l0.3-0.6l0.4-0.9c0-0.1,0.1-0.1,0.1-0.2c0,0,0,0,0.1,0
			c0,0,0,0,0,0c0.2,0.1,0.3,0.3,0.5,0.4s0.3,0.3,0.4,0.5c0.1,0.2,0.2,0.5,0.2,0.8c0,0.4-0.1,0.8-0.2,1.1c-0.1,0.4-0.3,0.7-0.5,1.1
			c-0.1,0.1-0.2,0.3-0.3,0.4c-0.1,0.1-0.2,0.2-0.4,0.3c-0.2,0.1-0.6,0.2-1.1,0.4c0,0-0.1,0-0.1,0s0,0-0.1,0c0,0,0,0,0,0c0,0,0,0,0,0
			C92.5,128.3,92.5,128.2,92.5,128.2z"/>
		<path class="st0" d="M96.4,125.1c0,0.4-0.1,0.7-0.3,1c-0.1,0.3-0.3,0.4-0.5,0.4c0-0.1,0-0.6,0.1-1.4c0.1-0.8,0.2-1.3,0.2-1.7
			s0.1-0.7,0.2-1.1s0.1-0.7,0.2-0.9c0.1-0.2,0.1-0.4,0.2-0.6s0.2-0.4,0.2-0.6c0,0,0-0.1,0.1-0.1c0,0,0,0,0,0.1
			c-0.1,0.7-0.2,1.3-0.3,2s-0.1,1.2-0.2,1.5s0,0.5,0,0.5C96.4,124.7,96.4,124.9,96.4,125.1z"/>
		<path class="st0" d="M100.2,126c0,0,0.1,0.1,0.1,0.1c0,0.1,0,0.2,0,0.2c0,0.1,0,0.2,0,0.2c0,0.1,0,0.1-0.1,0.1
			c-0.1,0.1-0.1,0.1-0.2,0.2c-0.1,0.1-0.2,0.1-0.3,0.2s-0.2,0.1-0.3,0.1c0,0-0.1,0-0.1,0c-0.1,0-0.2,0-0.2,0
			c-0.4,0.4-0.8,0.7-1.1,0.9c-0.3,0.2-0.6,0.3-1,0.3c-0.2,0-0.4-0.1-0.5-0.1c-0.1-0.1-0.3-0.2-0.4-0.3c-0.1-0.1-0.2-0.2-0.2-0.4
			c-0.1-0.1-0.1-0.3-0.1-0.4c0-0.1-0.1-0.3-0.1-0.4c0-0.1,0-0.2,0-0.3c0-0.1,0.1-0.3,0.1-0.5c0.1-0.2,0.1-0.3,0.2-0.4
			c0.1-0.1,0.1-0.3,0.2-0.4c0.1-0.1,0.2-0.2,0.2-0.2c0,0.3,0,0.6,0.2,0.8c0.1,0.2,0.3,0.4,0.4,0.5c0.2,0.1,0.4,0.2,0.6,0.2
			s0.5,0,0.8-0.1c0,0,0-0.1,0-0.2c0-0.1,0-0.1,0-0.2c0-0.1,0-0.1-0.1-0.2c0-0.1-0.1-0.1-0.1-0.1c-0.1,0-0.1,0-0.2,0
			c-0.1,0-0.2,0-0.4,0.1c-0.1,0-0.1,0-0.1-0.1c0,0,0,0,0,0c0,0,0-0.1,0.1-0.1c0.1-0.1,0.2-0.3,0.4-0.4c0.1-0.1,0.3-0.2,0.5-0.3
			c0.2-0.1,0.4-0.1,0.6-0.1c0.2,0,0.4,0.1,0.7,0.2c0.2,0.1,0.3,0.3,0.3,0.5c0,0.1,0,0.1,0,0.2c0,0.1-0.1,0.2-0.2,0.4
			s-0.2,0.2-0.3,0.3c0,0,0.1,0,0.2,0c0.1,0,0.1,0,0.2-0.1c0.1,0,0.1,0,0.2-0.1C100.1,126,100.1,126,100.2,126z"/>
		<path class="st0" d="M101.8,124c0.1-0.1,0.2-0.3,0.3-0.4c0.1-0.1,0.2-0.2,0.2-0.3c0,0,0.1,0,0.1-0.1c0,0,0.1,0,0.1,0.1
			c0.1,0.2,0.3,0.3,0.4,0.5c0.1,0.2,0.2,0.3,0.2,0.5c0,0.1,0,0.1,0,0.2c0,0.1,0,0.2-0.1,0.3c-0.1,0.2-0.2,0.4-0.4,0.5
			c-0.1,0.1-0.3,0.2-0.4,0.2c-0.1,0-0.2,0-0.3-0.1c-0.1,0-0.1,0-0.2,0c-0.1,0-0.2,0-0.3,0.1c-0.1,0.1-0.3,0.2-0.4,0.4
			c0,0.1-0.1,0.1-0.2,0.2c-0.1,0.1-0.2,0.2-0.2,0.3s-0.2,0.2-0.2,0.3c-0.1,0.1-0.1,0.2-0.2,0.2c0-0.1,0-0.2-0.1-0.4s0-0.2,0.1-0.4
			c0.1-0.1,0.1-0.2,0.2-0.3s0.2-0.4,0.4-0.6C101.1,124.6,101.4,124.2,101.8,124z"/>
		<path class="st0" d="M104.8,123.8c-0.2,0.4-0.3,0.7-0.5,1.1s-0.3,0.7-0.4,1.1c-0.2,0.7-0.3,1.2-0.3,1.6c0,0.1,0,0.1,0,0.2
			c0,0.5,0.2,0.8,0.6,1.1c0.3,0.3,0.8,0.4,1.4,0.4c0.5,0,1-0.1,1.5-0.3c0.4-0.2,0.7-0.4,1-0.6c0.3-0.2,0.5-0.5,0.6-0.7
			c0.2-0.3,0.2-0.5,0.2-0.6c0-0.1,0-0.1-0.1-0.2c-0.1-0.1-0.2-0.1-0.3-0.1s-0.2-0.1-0.4-0.1c-0.1,0-0.2-0.1-0.3-0.1
			c-0.2-0.1-0.3-0.2-0.4-0.3c-0.1-0.1-0.2-0.3-0.2-0.6c0-0.3,0.1-0.7,0.3-1.2c0.2-0.5,0.5-1,0.9-1.5c0.3-0.4,0.6-0.7,0.9-0.9
			c0.2-0.2,0.5-0.4,0.7-0.6c0.2-0.2,0.4-0.3,0.7-0.4c0.1,0,0.2-0.1,0.2-0.1c0.1,0,0.1,0,0.2,0c0,0,0,0,0.1,0c0,0,0.1,0.1,0.1,0.1
			c0,0.1,0,0.2-0.1,0.3c0,0.1-0.1,0.2-0.1,0.3c0,0.1-0.1,0.2-0.1,0.3c0,0.1-0.1,0.2-0.1,0.3c0,0.1-0.1,0.2-0.1,0.2
			c0,0.1-0.1,0.1-0.1,0.1c0,0,0,0,0,0c0,0,0,0,0,0c0,0-0.1,0-0.1,0c-0.1,0-0.4,0-0.6,0.1c-0.3,0.1-0.6,0.3-0.9,0.5
			c-0.3,0.3-0.6,0.5-0.7,0.7c-0.2,0.2-0.2,0.4-0.2,0.5c0,0,0,0,0,0.1c0,0.1,0,0.2,0.1,0.3c0.1,0.1,0.3,0.1,0.5,0.2
			c0.2,0.1,0.4,0.2,0.4,0.2c0.2,0.1,0.3,0.4,0.3,0.7c0,0.5-0.1,1.1-0.3,1.8s-0.5,1.3-0.9,1.8c-0.2,0.2-0.3,0.5-0.6,0.7
			c-0.2,0.2-0.5,0.4-0.7,0.6c-0.5,0.3-1.1,0.5-1.8,0.5c-0.8,0-1.3-0.3-1.7-0.7c-0.2-0.2-0.3-0.5-0.4-0.8c-0.1-0.3-0.1-0.5-0.1-0.8
			c0-0.4,0.1-0.9,0.2-1.3s0.2-0.9,0.4-1.3s0.4-0.9,0.6-1.3c0.2-0.4,0.4-0.8,0.6-1.2c0-0.1,0.1-0.1,0.1-0.1c0-0.1,0.1-0.1,0.1-0.1h0
			c0,0,0,0,0,0c0,0,0,0,0,0C104.9,123.7,104.9,123.7,104.8,123.8z"/>
		<path class="st0" d="M113.3,123.5c-0.2,1-0.3,1.8-0.5,2.3c-0.1,0.5-0.3,0.9-0.4,1.2c-0.1,0.3-0.2,0.5-0.4,0.6
			c-0.1,0.1-0.4,0.3-0.7,0.4s-0.6,0.2-0.9,0.3c-0.2,0.1-0.4,0.1-0.4,0.1c-0.1,0-0.1,0-0.1,0c0,0,0,0,0,0c0,0,0-0.1,0-0.1
			c0.1-0.1,0.2-0.3,0.5-0.4c0.2-0.2,0.5-0.4,0.8-0.7c0.3-0.3,0.6-0.5,0.7-0.7c0.2-0.2,0.3-0.5,0.4-0.9c0.1-0.4,0.2-0.7,0.4-1.1
			c0.1-0.4,0.2-0.7,0.3-0.8c0.1-0.1,0.1-0.2,0.2-0.2C113.3,123.4,113.3,123.4,113.3,123.5C113.3,123.5,113.3,123.5,113.3,123.5z
			 M113.7,120.3c0,0,0,0.1,0,0.1c0,0.1,0,0.1,0,0.2c0,0.1-0.1,0.3-0.2,0.4c0,0.1-0.1,0.2-0.2,0.3c-0.1,0.1-0.2,0.2-0.2,0.3
			c-0.1,0.1-0.1,0.1-0.1,0.1s-0.1,0-0.1,0c0,0,0,0,0,0s0,0,0,0c0,0,0,0-0.1,0c-0.1-0.1-0.3-0.2-0.4-0.3c-0.1-0.1-0.3-0.2-0.4-0.3
			c0,0,0,0,0-0.1s0,0,0-0.1l0.9-1.4c0,0,0.1-0.1,0.1,0c0,0,0.1,0,0.1,0c0.1,0,0.2,0.1,0.2,0.2c0.1,0.1,0.2,0.1,0.2,0.2
			c0.1,0.1,0.1,0.1,0.2,0.2C113.6,120.1,113.7,120.2,113.7,120.3z"/>
		<path class="st0" d="M114.6,125.1c0,0.4-0.1,0.7-0.3,1s-0.3,0.4-0.5,0.4c0-0.1,0-0.6,0.1-1.4c0.1-0.8,0.2-1.3,0.2-1.7
			c0-0.3,0.1-0.7,0.2-1.1c0.1-0.4,0.1-0.7,0.2-0.9c0.1-0.2,0.1-0.4,0.2-0.6c0.1-0.2,0.2-0.4,0.2-0.6c0,0,0-0.1,0.1-0.1
			c0,0,0,0,0,0.1c-0.1,0.7-0.2,1.3-0.3,2c-0.1,0.7-0.1,1.2-0.2,1.5c0,0.3,0,0.5,0,0.5C114.6,124.7,114.6,124.9,114.6,125.1z"/>
		<path class="st0" d="M117.7,126.7c-0.1,0-0.1,0-0.2,0c-0.1,0-0.1,0-0.2,0c-0.2,0-0.3,0-0.4,0.1c-0.1,0.1-0.3,0.4-0.7,0.8
			c-0.3,0.5-0.7,0.8-1.2,0.8c-0.5,0-0.8-0.2-1-0.6c-0.2-0.4-0.2-0.8-0.2-1.3c0-0.7,0.1-1.1,0.3-1.5c0.1-0.3,0.3-0.5,0.4-0.5
			c0,0,0.1,0,0.1,0.1v0.5c0,0.2,0.1,0.4,0.1,0.6c0.1,0.2,0.2,0.4,0.4,0.6c0.2,0.1,0.4,0.2,0.7,0.2c0.4,0,0.8-0.1,1-0.4
			c0.2-0.3,0.4-0.4,0.5-0.4c0,0,0.1,0,0.1,0c0,0,0.1,0,0.1,0c0.1,0,0.2,0,0.2,0c0.2,0,0.4-0.1,0.5-0.2s0.3-0.3,0.4-0.5c0,0,0,0,0,0
			c0,0,0,0,0.1,0c0,0,0,0,0,0c0.1,0,0.1,0,0.2,0s0.1,0,0.2,0c0.1,0,0.1-0.1,0.2-0.2c0.1-0.1,0.1-0.2,0.2-0.4
			c0.1-0.1,0.1-0.2,0.1-0.2c0,0,0,0,0,0c0,0,0,0,0,0.1c0,0,0,0.1,0,0.2c-0.1,0.4-0.2,0.7-0.3,0.9c-0.1,0.2-0.2,0.4-0.4,0.5
			c-0.1,0.1-0.3,0.2-0.5,0.2c-0.1,0.1-0.2,0.2-0.4,0.4S117.8,126.6,117.7,126.7z"/>
		<path class="st0" d="M122.4,126.1c-0.2,0.6-0.4,1-0.6,1.2c-0.2,0.2-0.3,0.4-0.4,0.5c-0.1,0.1-0.3,0.2-0.5,0.2
			c-0.2,0.1-0.4,0.1-0.7,0.2c-0.2,0.1-0.4,0.1-0.5,0.1c0,0-0.1,0-0.1,0c0,0,0,0,0,0c0-0.1,0.2-0.2,0.5-0.4c0.4-0.2,0.6-0.4,0.9-0.6
			s0.4-0.4,0.6-0.6c0.2-0.2,0.3-0.5,0.4-0.7c0,0-0.1,0-0.2,0.1c-0.1,0-0.1,0-0.2,0s-0.1,0-0.2,0c-0.1,0-0.1,0-0.2,0
			c-0.2,0-0.4-0.1-0.6-0.2c-0.1-0.1-0.2-0.3-0.2-0.5c0-0.1,0-0.2,0.1-0.3c0-0.1,0.1-0.3,0.3-0.6s0.3-0.5,0.5-0.7s0.3-0.3,0.5-0.3
			c0.2,0,0.4,0.1,0.6,0.3s0.3,0.5,0.3,0.7c0,0.1,0,0.1,0,0.2c0,0.1,0,0.2,0,0.3c0,0.1,0,0.3-0.1,0.4c0,0.1-0.1,0.2-0.1,0.4
			C122.5,125.9,122.4,126,122.4,126.1z"/>
		<path class="st0" d="M122.2,125.6c0,0,0-0.2-0.1-0.5c0-0.1,0-0.2,0-0.2c0-0.1,0.1-0.3,0.4-0.4c0.2-0.1,0.4-0.2,0.5-0.3
			c0.1-0.1,0.2-0.2,0.2-0.3c0-0.1,0-0.1,0-0.2c0,0,0,0,0-0.1c0-0.1,0-0.2,0-0.3c0-0.1,0-0.2,0-0.3c0-0.1,0-0.2,0-0.2
			c0-0.1,0.2-0.6,0.6-1.7c0,0,0,0,0.1,0s0,0,0,0c0,0,0,0.1,0,0.2l0,1.4c0,0.5-0.1,1-0.3,1.4c-0.2,0.4-0.4,0.8-0.6,1
			c-0.2,0.2-0.3,0.4-0.4,0.4c-0.1,0.1-0.1,0.1-0.2,0.1C122.2,125.9,122.2,125.8,122.2,125.6z M124.4,117.2c0,0,0,0.1,0,0.1
			c0,0.1,0,0.1,0,0.2c0,0.1-0.1,0.3-0.2,0.4c0,0.1-0.1,0.2-0.2,0.3c-0.1,0.1-0.2,0.2-0.2,0.3c-0.1,0.1-0.1,0.1-0.1,0.1
			c0,0-0.1,0-0.1,0c0,0,0,0,0,0s0,0,0,0c0,0,0,0-0.1,0c-0.1-0.1-0.3-0.2-0.4-0.3c-0.1-0.1-0.3-0.2-0.4-0.3c0,0,0,0,0-0.1s0,0,0-0.1
			l0.9-1.4c0,0,0.1-0.1,0.1,0c0,0,0.1,0,0.1,0c0.1,0,0.2,0.1,0.2,0.2c0.1,0.1,0.2,0.1,0.2,0.2c0.1,0.1,0.1,0.1,0.2,0.2
			C124.3,117,124.4,117.1,124.4,117.2z"/>
		<path class="st0" d="M126.8,126.1c-0.2,0.6-0.4,1-0.6,1.2c-0.2,0.2-0.3,0.4-0.4,0.5c-0.1,0.1-0.3,0.2-0.5,0.2
			c-0.2,0.1-0.4,0.1-0.7,0.2c-0.2,0.1-0.4,0.1-0.5,0.1c0,0-0.1,0-0.1,0c0,0,0,0,0,0c0-0.1,0.2-0.2,0.5-0.4c0.4-0.2,0.6-0.4,0.9-0.6
			c0.2-0.2,0.4-0.4,0.6-0.6c0.2-0.2,0.3-0.5,0.4-0.7c0,0-0.1,0-0.2,0.1c-0.1,0-0.1,0-0.2,0c-0.1,0-0.1,0-0.2,0s-0.1,0-0.2,0
			c-0.2,0-0.4-0.1-0.6-0.2c-0.1-0.1-0.2-0.3-0.2-0.5c0-0.1,0-0.2,0.1-0.3c0-0.1,0.1-0.3,0.3-0.6c0.1-0.3,0.3-0.5,0.5-0.7
			s0.3-0.3,0.5-0.3c0.2,0,0.4,0.1,0.6,0.3s0.3,0.5,0.3,0.7c0,0.1,0,0.1,0,0.2c0,0.1,0,0.2,0,0.3c0,0.1,0,0.3-0.1,0.4
			c0,0.1-0.1,0.2-0.1,0.4C126.9,125.9,126.9,126,126.8,126.1z"/>
		<path class="st0" d="M128.2,128.4c-0.1,0-0.1,0-0.2,0c-0.4,0-0.8,0.1-1.2,0.3c0,0,0,0-0.1,0s0,0-0.1,0c0,0,0,0,0-0.1
			c0,0,0-0.1,0.1-0.2c0.1-0.2,0.3-0.4,0.5-0.7c0.3-0.3,0.6-0.6,0.9-0.8c0.1,0.2,0.2,0.5,0.2,0.7
			C128.5,127.9,128.4,128.1,128.2,128.4z"/>
		<path class="st0" d="M132.9,126.9c-0.1,0.1-0.3,0.3-0.4,0.3c-0.1,0.1-0.3,0.1-0.4,0.1c-0.1,0-0.2,0-0.3,0c-0.1,0-0.2,0-0.3-0.1
			l-0.6,0.5l-0.5,0.5c-0.4,0.3-0.8,0.4-1.2,0.4c-0.2,0-0.3,0-0.5-0.1c-0.1-0.1-0.3-0.1-0.3-0.1c0-0.1-0.1-0.2-0.1-0.3
			c0-0.1-0.1-0.2-0.1-0.4c0,0,0-0.1,0-0.1c0-0.1,0-0.2,0-0.3c0-0.1,0.1-0.3,0.2-0.4c0.2-0.1,0.5-0.2,0.7-0.2c0.2,0,0.4,0,0.6,0.1
			c0.1,0,0.2,0,0.4,0c0.3,0,0.5,0,0.7-0.1c0.2-0.1,0.3-0.2,0.3-0.3c0-0.3,0-0.4-0.1-0.5c-0.1-0.1-0.2-0.1-0.4-0.1
			c-0.3,0-0.4,0-0.3,0c0,0-0.1,0-0.1-0.1c0,0,0,0,0,0c0-0.1,0.1-0.3,0.4-0.4c0.1-0.1,0.3-0.2,0.4-0.2c0.1-0.1,0.3-0.1,0.4-0.1
			c0.1,0,0.3-0.1,0.5-0.1c0.2,0,0.4,0,0.6,0.1c0.2,0.1,0.3,0.2,0.3,0.4c0,0.1,0,0.2-0.1,0.3c-0.1,0.2-0.2,0.3-0.3,0.5
			c0,0,0.1,0.1,0.2,0.1c0.1,0,0.2,0,0.2,0c0.1,0,0.2-0.1,0.3-0.2c0,0,0.1,0.1,0.1,0.1c0,0.1,0,0.1,0,0.2c0,0.1,0,0.1,0,0.2
			C132.9,126.8,132.9,126.8,132.9,126.9z"/>
		<path class="st0" d="M132.9,126.1c0.1,0,0.1,0,0.2-0.1c0.1,0,0.1-0.1,0.2-0.1c0.1,0,0.1-0.1,0.2-0.2c0.1-0.1,0.1-0.1,0.2-0.2
			c0.1-0.1,0.2-0.3,0.3-0.4c0,0,0,0,0.1,0s0,0,0.1,0c0,0,0.1,0,0.1,0c0,0,0.1,0,0.1,0c0.1,0,0.2-0.1,0.4-0.2
			c0.1-0.1,0.2-0.3,0.3-0.5c0,0,0,0,0.1,0c0,0,0,0,0.1,0c0,0,0.1,0,0.1,0c0.1,0,0.1,0,0.2,0c0.1,0,0.2-0.2,0.3-0.3
			c0.1-0.2,0.1-0.3,0.2-0.4c0,0,0.1-0.1,0.1-0.1c0,0,0,0.1,0,0.1c0,0.1-0.1,0.3-0.1,0.6c-0.1,0.3-0.2,0.5-0.3,0.7s-0.3,0.3-0.5,0.4
			c-0.1,0.2-0.3,0.3-0.5,0.5s-0.4,0.2-0.6,0.3c-0.2,0.1-0.3,0.3-0.5,0.4c-0.2,0.1-0.3,0.2-0.5,0.3c0-0.1-0.1-0.2-0.1-0.4
			S132.8,126.3,132.9,126.1z"/>
		<path class="st0" d="M138.6,126.1c-0.2,0.6-0.4,1-0.6,1.2c-0.2,0.2-0.3,0.4-0.4,0.5c-0.1,0.1-0.3,0.2-0.5,0.2
			c-0.2,0.1-0.4,0.1-0.7,0.2c-0.2,0.1-0.4,0.1-0.5,0.1c0,0-0.1,0-0.1,0c0,0,0,0,0,0c0-0.1,0.2-0.2,0.5-0.4c0.4-0.2,0.6-0.4,0.9-0.6
			s0.4-0.4,0.6-0.6c0.2-0.2,0.3-0.5,0.4-0.7c0,0-0.1,0-0.2,0.1c-0.1,0-0.1,0-0.2,0s-0.1,0-0.2,0c-0.1,0-0.1,0-0.2,0
			c-0.2,0-0.4-0.1-0.6-0.2c-0.1-0.1-0.2-0.3-0.2-0.5c0-0.1,0-0.2,0.1-0.3c0-0.1,0.1-0.3,0.3-0.6s0.3-0.5,0.5-0.7s0.3-0.3,0.5-0.3
			c0.2,0,0.4,0.1,0.6,0.3s0.3,0.5,0.3,0.7c0,0.1,0,0.1,0,0.2c0,0.1,0,0.2,0,0.3c0,0.1,0,0.3-0.1,0.4c0,0.1-0.1,0.2-0.1,0.4
			C138.7,125.9,138.6,126,138.6,126.1z"/>
		<path class="st0" d="M138.4,125.6c0,0,0-0.2-0.1-0.5c0-0.1,0-0.2,0-0.2c0-0.1,0.1-0.3,0.4-0.4c0.2-0.1,0.4-0.2,0.5-0.3
			c0.1-0.1,0.2-0.2,0.2-0.3c0-0.1,0-0.1,0-0.2c0,0,0,0,0-0.1c0-0.1,0-0.2,0-0.3c0-0.1,0-0.2,0-0.3c0-0.1,0-0.2,0-0.2
			c0-0.1,0.2-0.6,0.6-1.7c0,0,0,0,0.1,0s0,0,0,0c0,0,0,0.1,0,0.2l0,1.4c0,0.5-0.1,1-0.3,1.4c-0.2,0.4-0.4,0.8-0.6,1
			c-0.2,0.2-0.3,0.4-0.4,0.4c-0.1,0.1-0.1,0.1-0.2,0.1C138.4,125.9,138.4,125.8,138.4,125.6z M140.2,117.3c0,0.1,0,0.1,0,0.2
			c0,0.1,0,0.1,0,0.2c0,0.1-0.1,0.2-0.2,0.4c-0.1,0.1-0.1,0.2-0.2,0.3c-0.1,0.1-0.1,0.2-0.2,0.2c-0.1,0.1-0.1,0.1-0.1,0.1
			c0,0-0.1,0-0.1,0c0,0,0,0,0,0s0,0,0,0c0,0,0,0-0.1,0c-0.1-0.1-0.3-0.2-0.4-0.3c-0.1-0.1-0.3-0.2-0.4-0.3c0,0,0,0,0-0.1
			c0,0,0,0,0-0.1l0.9-1.4c0,0,0.1-0.1,0.1,0s0.1,0,0.1,0c0.1,0,0.2,0.1,0.2,0.2c0.1,0.1,0.2,0.1,0.2,0.2c0.1,0.1,0.1,0.1,0.2,0.2
			C140.1,117.1,140.2,117.2,140.2,117.3z M142,117.2c0,0.1,0,0.1,0,0.2c0,0.1,0,0.1,0,0.2c0,0.1-0.1,0.2-0.2,0.4
			c-0.1,0.1-0.1,0.2-0.2,0.3c-0.1,0.1-0.1,0.2-0.2,0.3c-0.1,0.1-0.1,0.1-0.1,0.1c0,0-0.1,0-0.1,0c0,0,0,0,0,0s0,0,0,0c0,0,0,0-0.1,0
			c-0.1-0.1-0.3-0.2-0.4-0.3c-0.1-0.1-0.3-0.2-0.4-0.3c0,0,0,0,0-0.1c0,0,0,0,0-0.1l0.9-1.4c0,0,0.1-0.1,0.1,0s0.1,0,0.1,0
			c0.1,0,0.2,0.1,0.2,0.2c0.1,0.1,0.2,0.1,0.2,0.2c0.1,0.1,0.1,0.1,0.2,0.2C141.9,117,142,117.1,142,117.2z"/>
		<path class="st0" d="M147.7,124c0,0.1,0,0.2,0,0.3c-0.1,1.3-0.4,2.4-0.8,3.4c-0.3,0.7-0.6,1.3-1,1.9c-1,1.3-2.1,1.9-3.4,1.9
			c-0.6,0-1.2-0.2-1.6-0.7c-0.4-0.4-0.7-1-0.7-1.8c0-1.2,0.4-2.5,1.1-4l0.2-0.4c0,0,0,0,0,0.1s-0.1,0.2-0.1,0.4
			c-0.1,0.2-0.2,0.4-0.3,0.7c-0.1,0.2-0.2,0.5-0.2,0.7c-0.1,0.2-0.1,0.4-0.2,0.7c0,0.2,0,0.3,0,0.5c0,0,0,0.1,0,0.1
			c0.1,0.6,0.3,1,0.8,1.3c0.4,0.3,0.9,0.4,1.5,0.4c0.8,0,1.5-0.2,2.2-0.6c0.5-0.4,0.9-0.8,1.3-1.3c0.5-0.6,0.7-1.4,0.7-2.5
			c0-0.2,0-0.3,0-0.5c0-0.3,0-0.5,0.1-0.7c0.1-0.2,0.2-0.7,0.5-1.4c0.1-0.2,0.1-0.3,0.1-0.3c0,0,0,0,0.1,0c0,0,0,0,0,0
			c0,0,0,0,0,0.1c0,0,0,0.1,0,0.1l-0.1,0.6L147.7,124z M145.1,125.3c0,0,0,0.1,0,0.1c0,0.1,0,0.1,0,0.2c0,0.1-0.1,0.3-0.2,0.4
			c0,0-0.1,0.1-0.1,0.1c0,0-0.1,0.1-0.1,0.2c0,0.1-0.1,0.1-0.1,0.2c0,0-0.1,0.1-0.1,0.1c-0.1,0.1-0.1,0.1-0.1,0.1s-0.1,0-0.1,0
			c0,0,0,0,0,0s0,0,0,0c0,0,0,0-0.1,0c-0.1-0.1-0.3-0.2-0.4-0.4c-0.1-0.1-0.3-0.2-0.5-0.3c0,0,0,0,0-0.1s0,0,0-0.1l0.9-1.5
			c0,0,0.1-0.1,0.1,0c0,0,0.1,0,0.1,0c0.2,0.1,0.3,0.2,0.5,0.4C144.9,125,145,125.1,145.1,125.3z"/>
		<path class="st0" d="M149.3,125.1c0,0.4-0.1,0.7-0.3,1s-0.3,0.4-0.5,0.4c0-0.1,0-0.6,0.1-1.4c0.1-0.8,0.2-1.3,0.2-1.7
			c0-0.3,0.1-0.7,0.2-1.1c0.1-0.4,0.1-0.7,0.2-0.9c0.1-0.2,0.1-0.4,0.2-0.6c0.1-0.2,0.2-0.4,0.2-0.6c0,0,0-0.1,0.1-0.1
			c0,0,0,0,0,0.1c-0.1,0.7-0.2,1.3-0.3,2c-0.1,0.7-0.1,1.2-0.2,1.5c0,0.3,0,0.5,0,0.5C149.3,124.7,149.3,124.9,149.3,125.1z"/>
		<path class="st0" d="M149.3,125.4c0,0.4,0.1,0.7,0.2,0.9s0.3,0.3,0.5,0.3c0,0,0.1-0.1,0.2-0.4c0.1-0.2,0.2-0.4,0.2-0.6
			c0.2,0,0.3,0.1,0.4,0.3c0.1,0.1,0.1,0.3,0.1,0.4c0,0.4-0.1,0.9-0.3,1.3c-0.3,0.6-0.6,0.8-1.1,0.8c-0.3,0-0.5-0.1-0.7-0.4
			c-0.2-0.3-0.3-0.8-0.3-1.5c0-0.1,0.1-0.3,0.1-0.4s0.1-0.3,0.2-0.4c0.1-0.1,0.1-0.2,0.2-0.3c0.1-0.1,0.2-0.2,0.3-0.3V125.4z"/>
		<path class="st0" d="M153.9,123.5c-0.2,1-0.3,1.8-0.5,2.3c-0.1,0.5-0.3,0.9-0.4,1.2c-0.1,0.3-0.2,0.5-0.4,0.6
			c-0.1,0.1-0.4,0.3-0.7,0.4s-0.6,0.2-0.9,0.3c-0.2,0.1-0.4,0.1-0.4,0.1c-0.1,0-0.1,0-0.1,0c0,0,0,0,0,0c0,0,0-0.1,0-0.1
			c0.1-0.1,0.2-0.3,0.5-0.4c0.2-0.2,0.5-0.4,0.8-0.7c0.3-0.3,0.6-0.5,0.7-0.7c0.2-0.2,0.3-0.5,0.4-0.9c0.1-0.4,0.2-0.7,0.4-1.1
			c0.1-0.4,0.2-0.7,0.3-0.8c0.1-0.1,0.1-0.2,0.2-0.2C153.9,123.4,154,123.4,153.9,123.5C154,123.5,154,123.5,153.9,123.5z
			 M154.3,120.3c0,0,0,0.1,0,0.1c0,0.1,0,0.1,0,0.2c0,0.1-0.1,0.3-0.2,0.4c0,0.1-0.1,0.2-0.2,0.3c-0.1,0.1-0.2,0.2-0.2,0.3
			c-0.1,0.1-0.1,0.1-0.1,0.1s-0.1,0-0.1,0c0,0,0,0,0,0s0,0,0,0c0,0,0,0-0.1,0c-0.1-0.1-0.3-0.2-0.4-0.3c-0.1-0.1-0.3-0.2-0.4-0.3
			c0,0,0,0,0-0.1s0,0,0-0.1l0.9-1.4c0,0,0.1-0.1,0.1,0c0,0,0.1,0,0.1,0c0.1,0,0.2,0.1,0.2,0.2c0.1,0.1,0.2,0.1,0.2,0.2
			c0.1,0.1,0.1,0.1,0.2,0.2C154.3,120.1,154.3,120.2,154.3,120.3z"/>
		<path class="st0" d="M155.2,125.1c0,0.4-0.1,0.7-0.3,1s-0.3,0.4-0.5,0.4c0-0.1,0-0.6,0.1-1.4c0.1-0.8,0.2-1.3,0.2-1.7
			c0-0.3,0.1-0.7,0.2-1.1c0.1-0.4,0.1-0.7,0.2-0.9c0.1-0.2,0.1-0.4,0.2-0.6c0.1-0.2,0.2-0.4,0.2-0.6c0,0,0-0.1,0.1-0.1
			c0,0,0,0,0,0.1c-0.1,0.7-0.2,1.3-0.3,2c-0.1,0.7-0.1,1.2-0.2,1.5c0,0.3,0,0.5,0,0.5C155.2,124.7,155.2,124.9,155.2,125.1z"/>
		<path class="st0" d="M158.3,126.7c-0.1,0-0.1,0-0.2,0c-0.1,0-0.1,0-0.2,0c-0.2,0-0.3,0-0.4,0.1c-0.1,0.1-0.3,0.4-0.7,0.8
			c-0.3,0.5-0.7,0.8-1.2,0.8c-0.5,0-0.8-0.2-1-0.6c-0.2-0.4-0.2-0.8-0.2-1.3c0-0.7,0.1-1.1,0.3-1.5c0.1-0.3,0.3-0.5,0.4-0.5
			c0,0,0.1,0,0.1,0.1v0.5c0,0.2,0.1,0.4,0.1,0.6c0.1,0.2,0.2,0.4,0.4,0.6c0.2,0.1,0.4,0.2,0.7,0.2c0.4,0,0.8-0.1,1-0.4
			c0.2-0.3,0.4-0.4,0.5-0.4c0,0,0.1,0,0.1,0c0,0,0.1,0,0.1,0c0.1,0,0.2,0,0.2,0c0.2,0,0.4-0.1,0.5-0.2s0.3-0.3,0.4-0.5c0,0,0,0,0,0
			c0,0,0,0,0.1,0c0,0,0,0,0,0c0.1,0,0.1,0,0.2,0s0.1,0,0.2,0c0.1,0,0.1-0.1,0.2-0.2c0.1-0.1,0.1-0.2,0.2-0.4
			c0.1-0.1,0.1-0.2,0.1-0.2c0,0,0,0,0,0c0,0,0,0,0,0.1c0,0,0,0.1,0,0.2c-0.1,0.4-0.2,0.7-0.3,0.9c-0.1,0.2-0.2,0.4-0.4,0.5
			c-0.1,0.1-0.3,0.2-0.5,0.2c-0.1,0.1-0.2,0.2-0.4,0.4S158.5,126.6,158.3,126.7z"/>
	</g>
	<g>
		<path class="st0" d="M16.2,155.7c0,0.2,0,0.4-0.1,0.6c-0.2,2.7-0.8,5.1-1.6,7.2c-0.6,1.4-1.3,2.7-2.1,4c-2,2.8-4.5,4.1-7.4,4.1
			c-1.4-0.1-2.5-0.5-3.5-1.4c-1-0.9-1.5-2.1-1.5-3.7c0-2.6,0.8-5.4,2.4-8.5l0.5-0.9c0.1,0,0.1,0.1,0.1,0.3c0,0.2-0.1,0.5-0.3,0.9
			c-0.2,0.5-0.4,0.9-0.6,1.4c-0.2,0.5-0.4,1-0.5,1.4c-0.1,0.5-0.3,0.9-0.3,1.4c-0.1,0.4-0.1,0.7-0.1,1c0,0.1,0,0.2,0,0.3
			c0.2,1.3,0.7,2.2,1.6,2.8c0.9,0.6,2,0.9,3.2,1c1.6,0,3.2-0.4,4.7-1.3c1.1-0.7,2-1.7,2.7-2.8c1-1.3,1.5-3.1,1.5-5.2
			c0-0.3,0-0.7,0-1c0-0.6,0.1-1.1,0.2-1.5c0.1-0.5,0.5-1.5,1.1-3c0.1-0.4,0.2-0.6,0.3-0.7c0.1,0,0.1-0.1,0.1-0.1c0,0,0,0,0.1,0
			c0,0,0,0.1,0,0.1c0,0.1,0,0.2,0,0.3l-0.2,1.3L16.2,155.7z M10.4,158.6c0,0.1,0,0.2,0,0.3c0,0.1,0,0.3-0.1,0.4
			c-0.1,0.3-0.2,0.6-0.4,0.8c-0.1,0.1-0.1,0.2-0.2,0.3c-0.1,0.1-0.2,0.2-0.2,0.3c-0.1,0.1-0.2,0.2-0.3,0.3c-0.1,0.1-0.2,0.2-0.3,0.3
			c-0.1,0.1-0.2,0.2-0.3,0.3c-0.1,0.1-0.2,0.1-0.2,0.1c0,0-0.1,0-0.1,0c0,0-0.1,0-0.1,0c0,0-0.1,0-0.1-0.1c-0.3-0.3-0.6-0.5-0.9-0.8
			c-0.3-0.3-0.6-0.5-1-0.7c0,0-0.1-0.1-0.1-0.1c0,0,0-0.1,0.1-0.2l2-3.1c0.1-0.1,0.1-0.1,0.2-0.1c0.1,0,0.1,0,0.2,0.1
			c0.4,0.2,0.7,0.5,1,0.8S10.3,158.2,10.4,158.6z"/>
		<path class="st0" d="M21.5,149.3c0.1-0.3,0.2-0.4,0.3-0.4c0.1,0,0.1,0,0.1,0.1c0,0,0,0.1,0,0.1c-0.1,0.9-0.2,1.6-0.3,1.9
			c-0.1,0.4-0.1,0.8-0.1,1.1s-0.1,0.6-0.1,0.8c0,0.2,0,0.5-0.1,0.7c0,0.2,0,0.5-0.1,0.8c-0.1,1.3-0.3,2.4-0.6,3.2
			c-0.3,0.8-0.6,1.6-1,2.3c-0.4,0.7-0.7,1.1-0.9,1.1c0,0,0,0,0-0.1c0-0.1,0-0.2,0.1-0.4c0.1-0.3,0.2-0.6,0.3-1.1
			c0.1-0.4,0.2-0.9,0.3-1.4c0.1-0.5,0.2-1,0.2-1.5c0.1-0.5,0.1-1,0.2-1.5c0-0.3,0.1-0.7,0.2-1.3c0.1-0.6,0.2-1.1,0.4-1.6L21.5,149.3
			z"/>
		<path class="st0" d="M31.9,154.8c-0.1,0.5-0.3,0.9-0.5,1.3c-0.2,0.4-0.4,0.7-0.6,0.9c-0.2,0.2-0.5,0.4-0.7,0.6
			c-0.3,0.2-0.6,0.3-0.9,0.5c-0.3,0.1-0.6,0.3-0.8,0.4c-0.2,0.2-0.4,0.3-0.5,0.5c-0.2,0.2-0.4,0.6-0.6,1s-0.3,0.9-0.5,1.3
			c-0.2,0.5-0.4,0.9-0.6,1.4s-0.5,0.8-0.8,1.1c-0.4,0.5-1.1,0.8-1.9,0.9l-2.3,0.4c-0.1,0-0.1,0-0.2,0s-0.2,0-0.2,0
			c-0.1,0-0.2-0.1-0.2-0.2c0,0,0-0.1,0-0.2c0.1-0.2,0.3-0.4,0.6-0.6c0.6-0.4,1.2-0.8,1.6-1s0.7-0.5,0.9-0.6c0.2-0.2,0.4-0.3,0.6-0.4
			c0.1-0.1,0.3-0.2,0.5-0.4c0.7-0.5,1.2-1.1,1.4-1.6c0.2-0.3,0.3-0.6,0.4-0.9s0.3-0.6,0.4-0.8c0.1-0.3,0.3-0.5,0.4-0.8
			s0.3-0.5,0.6-0.8c0.2-0.3,0.5-0.5,0.9-0.8c0.4-0.3,0.8-0.5,1.3-0.8c0.6-0.3,1-0.7,1.2-1.2c0.1-0.2,0.2-0.5,0.4-0.7
			s0.3-0.3,0.4-0.3c0.1,0,0.2,0.1,0.2,0.3c0,0.1,0,0.2,0,0.3c0,0.2-0.1,0.4-0.2,0.6C32,154.3,31.9,154.5,31.9,154.8z M27.7,171.3
			c0,0.1,0.1,0.2,0.1,0.4c0,0.1,0,0.2-0.1,0.4c-0.1,0.3-0.2,0.5-0.4,0.8c-0.1,0.2-0.3,0.4-0.4,0.6c-0.1,0.2-0.3,0.4-0.5,0.5
			c-0.1,0.1-0.2,0.2-0.3,0.3c-0.1,0.1-0.2,0.1-0.2,0.1c-0.1,0-0.1,0-0.2,0c0,0-0.1,0-0.1-0.1c-0.3-0.2-0.6-0.5-0.9-0.7
			c-0.3-0.2-0.6-0.5-0.9-0.7c0-0.1-0.1-0.1-0.1-0.1c0,0,0-0.1,0.1-0.2l1.9-3c0.1-0.1,0.1-0.1,0.2-0.1c0.1,0,0.1,0,0.2,0.1
			c0.2,0.1,0.3,0.2,0.5,0.3s0.3,0.2,0.5,0.4c0.1,0.1,0.3,0.3,0.4,0.5C27.6,170.9,27.7,171.1,27.7,171.3z M31.5,171.1
			c0,0.1,0.1,0.2,0.1,0.4c0,0.1,0,0.2-0.1,0.4c-0.1,0.3-0.2,0.5-0.4,0.8c-0.1,0.2-0.3,0.4-0.4,0.6s-0.3,0.4-0.5,0.5
			c-0.1,0.1-0.2,0.2-0.3,0.3s-0.2,0.1-0.2,0.1c-0.1,0-0.1,0-0.2,0s-0.1,0-0.1-0.1c-0.3-0.2-0.6-0.5-0.9-0.7
			c-0.3-0.2-0.6-0.5-0.9-0.7c0-0.1-0.1-0.1-0.1-0.1c0,0,0-0.1,0.1-0.2l1.9-3c0.1-0.1,0.1-0.1,0.2-0.1c0.1,0,0.1,0,0.2,0.1
			c0.2,0.1,0.3,0.2,0.5,0.3c0.2,0.1,0.3,0.2,0.5,0.4c0.1,0.1,0.3,0.3,0.4,0.5C31.4,170.7,31.5,170.9,31.5,171.1z"/>
		<path class="st0" d="M35.7,149.4c0.1-0.3,0.2-0.4,0.3-0.4c0.1,0,0.1,0,0.1,0.1c0,0,0,0.1,0,0.1c-0.1,0.2-0.1,0.5-0.2,0.9
			s-0.1,0.8-0.2,1c-0.1,0.4-0.1,0.9-0.2,1.5c-0.1,0.5-0.1,1.1-0.1,1.7c0,0.6-0.1,1.1-0.1,1.7s-0.1,1-0.1,1.4
			c-0.1,1.3-0.3,2.4-0.6,3.2s-0.6,1.6-1,2.3c-0.4,0.7-0.7,1.1-0.9,1.1c0,0,0,0,0-0.1c0-0.1,0-0.2,0.1-0.4c0.1-0.3,0.2-0.6,0.3-1.1
			s0.2-0.9,0.3-1.4c0.1-0.5,0.1-1,0.2-1.5c0.1-0.5,0.1-1,0.2-1.5c0.1-0.4,0.1-1.1,0.2-2c0-0.9,0.1-1.6,0.2-2.2s0.2-1.1,0.4-1.6
			L35.7,149.4z"/>
		<path class="st0" d="M40.7,155.4c-0.4,0.8-0.7,1.6-1.1,2.4c-0.4,0.8-0.7,1.6-0.9,2.3c-0.5,1.4-0.7,2.6-0.7,3.5c0,0.2,0,0.3,0,0.4
			c0.1,1,0.5,1.8,1.2,2.4c0.7,0.6,1.7,0.9,3.1,0.9c1.1,0,2.2-0.2,3.2-0.7c0.8-0.3,1.5-0.8,2.1-1.3c0.6-0.5,1.1-1,1.4-1.6
			c0.3-0.5,0.5-1,0.5-1.4c0-0.2-0.1-0.3-0.2-0.4c-0.2-0.1-0.4-0.2-0.6-0.3s-0.5-0.2-0.8-0.2c-0.3-0.1-0.5-0.1-0.6-0.2
			c-0.4-0.1-0.7-0.4-0.9-0.6c-0.2-0.3-0.4-0.7-0.3-1.3c0-0.7,0.2-1.5,0.7-2.4c0.1-0.1,0.2-0.2,0.3-0.2c0.1,0,0.2-0.1,0.3-0.1
			c0.1,0,0.2,0,0.2,0.1c0.1,0.1,0.1,0.1,0.1,0.2c0,0.1,0.1,0.3,0.2,0.4c0.2,0.1,0.5,0.3,1.1,0.5c0.5,0.2,0.8,0.3,1,0.4
			c0.4,0.3,0.6,0.8,0.6,1.5c0,1.1-0.2,2.4-0.7,3.9c-0.4,1.5-1.1,2.7-1.8,3.8c-0.3,0.5-0.7,1-1.2,1.5c-0.5,0.5-1,0.9-1.6,1.2
			c-1.1,0.7-2.3,1.1-3.7,1.1c-1.6,0-2.8-0.6-3.7-1.6c-0.4-0.5-0.6-1.1-0.8-1.7c-0.1-0.6-0.2-1.1-0.2-1.7c0-1,0.2-1.9,0.4-2.9
			c0.2-1,0.5-1.9,0.9-2.9s0.8-1.9,1.2-2.8s0.9-1.8,1.4-2.6c0.1-0.1,0.1-0.2,0.1-0.2c0.1-0.1,0.2-0.2,0.2-0.2c0,0,0,0,0,0h0
			c0,0,0,0,0,0.1c0,0,0,0,0,0.1C40.8,155.1,40.8,155.2,40.7,155.4z"/>
		<path class="st0" d="M49.3,138.1c0,0.1,0,0.2,0,0.3c0,0.1,0,0.3-0.1,0.4c-0.1,0.3-0.2,0.6-0.4,0.8c-0.1,0.2-0.2,0.4-0.4,0.6
			s-0.4,0.4-0.5,0.6c-0.1,0.1-0.2,0.2-0.3,0.3s-0.2,0.1-0.2,0.1c0,0-0.1,0-0.1,0c0,0-0.1,0-0.1,0c0,0-0.1,0-0.1-0.1
			c-0.3-0.2-0.6-0.5-0.9-0.7c-0.3-0.2-0.6-0.5-1-0.7c0,0-0.1-0.1-0.1-0.1c0,0,0-0.1,0.1-0.2l2-3c0.1-0.1,0.1-0.1,0.2-0.1
			c0.1,0,0.1,0,0.2,0.1c0.2,0.1,0.3,0.2,0.5,0.3c0.2,0.1,0.3,0.3,0.5,0.4c0.1,0.2,0.3,0.3,0.4,0.5S49.3,138,49.3,138.1z M46.5,156.9
			c0.4-1,0.7-1.6,0.8-1.9c0.5-1.3,0.8-2.2,0.8-2.7c0-0.2-0.1-0.4-0.2-0.8c-0.2-0.4-0.3-0.8-0.5-1.2c-0.1-0.1-0.2-0.3-0.2-0.4
			s-0.1-0.3-0.2-0.4c-0.2-0.2-0.2-0.4-0.2-0.5c0.1-0.4,0.2-0.7,0.3-0.9c0.1-0.3,0.2-0.5,0.3-0.7c0.3-1,0.6-1.7,0.8-2
			c0.4,0.1,0.8,0.6,1.2,1.4c0.4,0.8,0.6,1.7,0.6,2.5c0,0.9-0.2,2-0.7,3.3c-0.3,0.7-0.6,1.4-0.9,2.2c-0.3,0.7-0.6,1.4-0.8,2.2
			c0,0.1-0.1,0.2-0.2,0.2c-0.1,0-0.2,0.1-0.3,0.1c-0.1,0-0.2,0-0.3-0.1C46.6,157.1,46.5,157,46.5,156.9z"/>
		<path class="st0" d="M53.5,163.8c-0.6,0.8-1.3,1.3-2,1.5c-0.8,0.2-1.6,0.4-2.5,0.5c-0.2,0-0.3,0-0.4,0c0,0,0,0,0,0
			c0-0.1,0.1-0.2,0.3-0.3c1-0.6,2-1.2,2.8-1.8s1.5-1.2,2-1.9c0.5-0.7,1-1.5,1.5-2.4c0.4-0.9,0.8-1.8,1.2-2.5
			c0.1-0.1,0.2-0.2,0.3-0.2c0,0,0,0,0.1,0c0.1,0,0.1,0.1,0.1,0.2c0,0.1,0,0.2-0.1,0.3c-0.3,0.8-0.5,1.4-0.6,1.9v0
			c-0.1,0.2-0.1,0.4-0.2,0.4c-0.3,0.7-0.6,1.3-0.9,1.9C54.4,162.6,53.9,163.4,53.5,163.8z"/>
		<path class="st0" d="M64.2,160c0.1,0,0.2,0.1,0.2,0.3c0,0.2,0,0.3,0,0.5c0,0.2,0,0.3-0.1,0.5c0,0.2-0.1,0.3-0.1,0.3
			c-0.2,0.1-0.3,0.2-0.5,0.4c-0.2,0.1-0.3,0.2-0.5,0.3c-0.2,0.1-0.4,0.2-0.6,0.2c-0.1,0-0.2,0-0.2,0c-0.2,0-0.3,0-0.5-0.1
			c-0.9,0.9-1.6,1.6-2.3,2c-0.7,0.4-1.4,0.7-2.1,0.6c-0.4,0-0.8-0.1-1.1-0.3c-0.3-0.2-0.6-0.4-0.8-0.6s-0.4-0.5-0.5-0.8
			c-0.1-0.3-0.2-0.6-0.3-0.9c-0.1-0.3-0.1-0.6-0.1-0.9c0-0.3,0-0.5,0-0.7c0.1-0.3,0.2-0.6,0.3-1s0.2-0.7,0.4-1
			c0.1-0.3,0.3-0.5,0.4-0.8s0.3-0.3,0.5-0.4c0,0.7,0.1,1.3,0.3,1.7c0.2,0.5,0.5,0.8,0.9,1.1c0.4,0.2,0.8,0.4,1.4,0.4
			s1.1-0.1,1.7-0.3c0-0.1,0-0.2,0-0.4c0-0.1,0-0.3-0.1-0.4s-0.1-0.3-0.2-0.4c-0.1-0.1-0.2-0.2-0.3-0.2c-0.1,0-0.2-0.1-0.4-0.1
			c-0.2,0-0.5,0-0.8,0.1c-0.1,0-0.2,0-0.2-0.1c0,0,0,0,0-0.1c0-0.1,0-0.2,0.1-0.3c0.2-0.3,0.5-0.6,0.8-0.8c0.3-0.2,0.6-0.5,1-0.7
			c0.4-0.2,0.8-0.3,1.2-0.3c0.5,0,1,0.1,1.5,0.3c0.5,0.3,0.7,0.6,0.7,1c0,0.1,0,0.2-0.1,0.4c-0.1,0.3-0.2,0.5-0.4,0.8
			s-0.4,0.5-0.6,0.7c0.1,0,0.2,0,0.3-0.1c0.1,0,0.2-0.1,0.4-0.1c0.1-0.1,0.2-0.1,0.4-0.2C64,160.1,64.1,160.1,64.2,160z"/>
		<path class="st0" d="M67.7,155.7c0.2-0.3,0.4-0.6,0.6-0.9c0.2-0.3,0.4-0.5,0.5-0.7c0.1-0.1,0.1-0.1,0.2-0.1c0.1,0,0.1,0,0.2,0.1
			c0.3,0.3,0.6,0.7,0.8,1c0.2,0.3,0.4,0.7,0.5,1.1c0,0.1,0,0.3,0,0.4c0,0.2,0,0.5-0.1,0.7c-0.1,0.4-0.4,0.8-0.9,1.2
			c-0.2,0.2-0.6,0.4-0.9,0.4c-0.2,0-0.4,0-0.7-0.1c-0.1,0-0.3-0.1-0.4-0.1c-0.2,0-0.5,0.1-0.7,0.2c-0.3,0.2-0.6,0.4-0.9,0.8
			c-0.1,0.1-0.2,0.3-0.4,0.4c-0.2,0.2-0.3,0.4-0.5,0.6c-0.2,0.2-0.3,0.4-0.5,0.6c-0.2,0.2-0.3,0.4-0.4,0.5c-0.1-0.3-0.1-0.5-0.1-0.8
			s0-0.5,0.1-0.8c0.1-0.2,0.3-0.4,0.5-0.7c0.2-0.3,0.5-0.8,0.8-1.3C66.1,157,66.9,156.2,67.7,155.7z"/>
		<path class="st0" d="M71,164.7c0.2-0.2,0.5-0.4,0.8-0.6c0.8-0.6,1.5-1.2,2-1.8c0.5-0.6,0.8-1,0.9-1.3c0,0,0-0.1,0-0.1
			c0-0.3-0.2-0.8-0.6-1.2c-0.5-0.6-1-1.1-1.7-1.5c-0.1,0-0.1-0.1-0.1-0.1c0,0,0-0.1,0-0.1l0.6-1.4l0.8-1.9c0.1-0.2,0.1-0.3,0.2-0.4
			c0-0.1,0.1-0.1,0.1-0.1c0,0,0.1,0,0.1,0c0.4,0.3,0.7,0.6,1.1,1c0.3,0.3,0.6,0.7,0.9,1.2c0.3,0.4,0.4,1,0.4,1.7
			c0,0.8-0.1,1.6-0.4,2.4s-0.6,1.5-1.1,2.4c-0.2,0.3-0.4,0.6-0.6,0.8s-0.5,0.4-0.9,0.6s-1.2,0.5-2.4,0.8c-0.1,0-0.1,0-0.2,0
			c-0.1,0-0.1,0-0.1,0c0,0,0,0,0,0c0,0,0,0,0-0.1C70.8,164.9,70.9,164.8,71,164.7z"/>
		<path class="st0" d="M81.4,149.3c0.1-0.3,0.2-0.4,0.3-0.4c0.1,0,0.1,0,0.1,0.1c0,0,0,0.1,0,0.1c-0.1,0.9-0.2,1.6-0.3,1.9
			c-0.1,0.4-0.1,0.8-0.1,1.1s-0.1,0.6-0.1,0.8c0,0.2,0,0.5-0.1,0.7c0,0.2,0,0.5-0.1,0.8c-0.1,1.3-0.3,2.4-0.6,3.2
			c-0.3,0.8-0.6,1.6-1,2.3c-0.4,0.7-0.7,1.1-0.9,1.1c0,0,0,0,0-0.1c0-0.1,0-0.2,0.1-0.4c0.1-0.3,0.2-0.6,0.3-1.1
			c0.1-0.4,0.2-0.9,0.3-1.4c0.1-0.5,0.2-1,0.2-1.5c0.1-0.5,0.1-1,0.2-1.5c0-0.3,0.1-0.7,0.2-1.3c0.1-0.6,0.2-1.1,0.4-1.6L81.4,149.3
			z"/>
		<path class="st0" d="M87.2,160.3c-0.5,1.2-0.9,2.1-1.3,2.6c-0.3,0.5-0.6,0.9-0.9,1.1c-0.2,0.2-0.6,0.4-1,0.5
			c-0.4,0.2-0.9,0.3-1.4,0.4s-0.9,0.2-1.1,0.2c-0.1,0-0.2,0-0.2,0c0,0,0,0,0,0c0-0.1,0.4-0.4,1.1-0.8c0.8-0.5,1.4-0.9,1.9-1.3
			c0.5-0.4,0.9-0.8,1.3-1.3c0.4-0.5,0.7-1,0.8-1.5c-0.1,0-0.2,0.1-0.3,0.1c-0.1,0-0.3,0.1-0.4,0.1c-0.1,0-0.3,0-0.4,0
			c-0.1,0-0.3,0-0.4,0c-0.5,0-0.9-0.2-1.2-0.5c-0.3-0.3-0.5-0.6-0.4-1.1c0-0.2,0.1-0.5,0.2-0.7c0.1-0.3,0.3-0.7,0.6-1.4
			c0.3-0.6,0.6-1.1,1-1.5c0.3-0.4,0.7-0.6,1-0.6c0.5,0,1,0.2,1.3,0.7s0.6,1,0.6,1.6c0,0.1,0,0.3,0,0.4c0,0.2,0,0.4,0,0.6
			c0,0.3-0.1,0.6-0.1,0.8c0,0.2-0.1,0.5-0.2,0.8S87.3,160,87.2,160.3z"/>
		<path class="st0" d="M86.3,158.4c0,0,0-0.1,0-0.1c0-0.1,0-0.1,0-0.1c0.1-0.4,0.5-1,1.1-1.6c0.6-0.3,1-0.7,1.3-1.3
			c0.2-0.4,0.6-1.1,1.1-2c0.1-0.2,0.3-0.5,0.7-0.9c0.4-0.4,0.7-0.8,1-1c0.1-0.1,0.3-0.4,0.7-1c0.1-0.1,0.2-0.3,0.4-0.6
			c0.2,0,0.5,0.3,1,0.9c0.4,0.6,0.7,1.2,0.7,1.8c0,0.5-0.1,1-0.4,1.5c-0.3,0.5-0.6,0.8-0.9,1c-0.2,0.2-0.5,0.2-0.7,0.2
			c-0.2,0-0.4,0-0.6-0.1c-0.3,0-0.4,0-0.5,0c-0.2,0-0.4,0-0.6,0.1c-0.6,0.3-1.2,1-1.8,2.1c-0.2,0.3-0.3,0.5-0.4,0.7
			c-0.1,0.2-0.2,0.3-0.2,0.4c-0.3,0.4-0.5,0.8-0.7,1c-0.3,0.4-0.5,0.6-0.7,0.7c-0.2,0.2-0.4,0.3-0.7,0.3L86.3,158.4z"/>
		<path class="st0" d="M98.1,163.8c-0.6,0.8-1.3,1.3-2,1.5c-0.8,0.2-1.6,0.4-2.5,0.5c-0.2,0-0.3,0-0.4,0c0,0,0,0,0,0
			c0-0.1,0.1-0.2,0.3-0.3c1-0.6,2-1.2,2.8-1.8s1.5-1.2,2-1.9c0.5-0.7,1-1.5,1.5-2.4c0.4-0.9,0.8-1.8,1.2-2.5
			c0.1-0.1,0.2-0.2,0.3-0.2c0,0,0,0,0.1,0c0.1,0,0.1,0.1,0.1,0.2c0,0.1,0,0.2-0.1,0.3c-0.3,0.8-0.5,1.4-0.6,1.9v0
			c-0.1,0.2-0.1,0.4-0.2,0.4c-0.3,0.7-0.6,1.3-0.9,1.9C98.9,162.6,98.4,163.4,98.1,163.8z"/>
		<path class="st0" d="M103.2,175.4c0,0.1,0,0.2,0,0.4c0,0.1,0,0.3,0,0.4c-0.1,0.3-0.2,0.5-0.4,0.8c-0.2,0.2-0.3,0.4-0.5,0.6
			c-0.2,0.2-0.3,0.4-0.5,0.5c-0.1,0.1-0.2,0.2-0.3,0.3s-0.2,0.1-0.2,0.1c-0.1,0-0.1,0-0.2,0c0,0-0.1,0-0.1-0.1
			c-0.3-0.2-0.6-0.5-0.9-0.7c-0.3-0.2-0.6-0.5-1-0.7c0-0.1-0.1-0.1-0.1-0.1s0-0.1,0.1-0.1l2.1-3c0.1-0.1,0.1-0.1,0.2-0.1
			c0.1,0,0.1,0,0.2,0.1c0.2,0.1,0.4,0.2,0.6,0.3c0.2,0.1,0.4,0.2,0.5,0.4c0.2,0.1,0.3,0.3,0.4,0.5S103.1,175.2,103.2,175.4z
			 M99,162.4c0-1.1,0.6-2.3,1.7-3.4v0c0,0.3,0.1,0.6,0.2,0.9c0.2,0.3,0.4,0.5,0.6,0.6c0.2,0.2,0.5,0.3,0.8,0.4
			c0.3,0.1,0.6,0.1,0.9,0.1c0.5,0,0.8,0,1.2-0.1s0.6-0.2,0.9-0.4c0.3-0.1,0.5-0.3,0.7-0.5s0.4-0.3,0.6-0.5c0.2-0.2,0.4-0.3,0.6-0.4
			c0.2-0.1,0.4-0.2,0.7-0.2c0.1,0.4,0.2,0.8,0.2,1.2s-0.1,0.8-0.2,1.2c-0.2-0.1-0.4-0.1-0.6-0.2c0,0-0.1,0-0.1,0
			c-0.2,0-0.3,0-0.5,0.1c-0.2,0.1-0.5,0.3-0.7,0.5c-0.2,0.2-0.5,0.6-0.8,1.1c-0.1,0.2-0.3,0.4-0.5,0.6c-0.2,0.3-0.4,0.5-0.7,0.7
			s-0.6,0.4-1,0.6s-0.8,0.2-1.3,0.2c-0.5,0-0.9-0.1-1.2-0.3c-0.3-0.2-0.6-0.4-0.8-0.7s-0.3-0.5-0.4-0.9
			C99.1,163,99.1,162.7,99,162.4z M107.3,175.2c0,0.1,0.1,0.2,0.1,0.3c0,0.1,0,0.3-0.1,0.4c-0.1,0.3-0.2,0.5-0.4,0.8
			c-0.1,0.2-0.3,0.4-0.5,0.6c-0.2,0.2-0.3,0.4-0.5,0.5c-0.1,0.1-0.2,0.2-0.3,0.3c-0.1,0-0.2,0.1-0.2,0.1c-0.1,0-0.1,0-0.2,0
			c0,0-0.1,0-0.1-0.1c-0.3-0.2-0.6-0.5-0.9-0.7c-0.3-0.2-0.6-0.5-1-0.7c0-0.1-0.1-0.1-0.1-0.1c0,0,0-0.1,0.1-0.2l2.1-3
			c0.1-0.1,0.1-0.1,0.2-0.1c0.1,0,0.1,0,0.2,0.1c0.2,0.1,0.4,0.2,0.5,0.3s0.4,0.2,0.5,0.4c0.2,0.1,0.3,0.3,0.4,0.5
			C107.2,174.8,107.3,175,107.3,175.2z"/>
		<path class="st0" d="M107.8,161.6c-0.1-0.4-0.2-0.8-0.3-1.2c0-0.1,0-0.1,0-0.2c0-0.3,0.1-0.7,0.3-1c0.3,0,0.6,0.1,1,0.2
			c0,0,0.1,0,0.1,0c0.3,0,0.6-0.2,0.8-0.7c0.1-0.3,0.2-0.6,0.3-1c0.1-0.4,0.1-0.7,0.1-1.1v-2.2c0-0.2,0-0.5,0-0.9
			c0-0.3,0.1-0.6,0.2-1c0.1-0.3,0.3-0.9,0.6-1.7c0.3-0.8,0.5-1.3,0.6-1.5c0.1-0.2,0.2-0.3,0.3-0.3c0,0,0,0,0.1,0
			c0,0,0.1,0.1,0.1,0.2c0,0.1,0,0.2,0,0.3c-0.1,0.3-0.1,0.6-0.2,0.9c-0.1,0.3-0.1,1-0.2,2c-0.2,2.3-0.3,3.5-0.3,3.4
			c-0.1,0.8-0.2,1.5-0.4,2.1c-0.1,0.6-0.4,1.2-0.7,1.7c-0.3,0.6-0.7,1.1-1.1,1.5C108.7,161.4,108.3,161.6,107.8,161.6z"/>
		<path class="st0" d="M117.5,160.3c-0.5,1.2-0.9,2.1-1.3,2.6c-0.3,0.5-0.6,0.9-0.9,1.1c-0.2,0.2-0.6,0.4-1,0.5
			c-0.4,0.2-0.9,0.3-1.4,0.4c-0.5,0.1-0.9,0.2-1.1,0.2c-0.1,0-0.2,0-0.2,0c0,0,0,0,0,0c0-0.1,0.4-0.4,1.1-0.8
			c0.8-0.5,1.4-0.9,1.9-1.3c0.5-0.4,0.9-0.8,1.3-1.3c0.4-0.5,0.7-1,0.8-1.5c-0.1,0-0.2,0.1-0.3,0.1c-0.1,0-0.3,0.1-0.4,0.1
			c-0.1,0-0.3,0-0.4,0c-0.1,0-0.3,0-0.4,0c-0.5,0-0.9-0.2-1.2-0.5c-0.3-0.3-0.5-0.6-0.4-1.1c0-0.2,0.1-0.5,0.2-0.7
			c0.1-0.3,0.3-0.7,0.6-1.4c0.3-0.6,0.6-1.1,1-1.5c0.3-0.4,0.7-0.6,1-0.6c0.5,0,1,0.2,1.3,0.7s0.6,1,0.6,1.6c0,0.1,0,0.3,0,0.4
			c0,0.2,0,0.4,0,0.6c0,0.3-0.1,0.6-0.1,0.8c0,0.2-0.1,0.5-0.2,0.8S117.6,160,117.5,160.3z"/>
		<path class="st0" d="M117.1,159.2c0-0.1-0.1-0.4-0.2-1c0-0.2,0-0.3,0-0.5c0-0.3,0.3-0.6,0.9-0.8c0.5-0.2,0.9-0.4,1.1-0.7
			c0.3-0.2,0.4-0.5,0.5-0.7c0-0.1,0-0.3,0-0.4c0,0,0-0.1,0-0.2c0-0.2,0-0.3-0.1-0.5c0-0.2,0-0.4,0-0.6c0-0.2,0-0.3,0-0.4
			c0-0.2,0.4-1.3,1.2-3.5c0-0.1,0.1-0.1,0.1-0.1c0,0,0.1,0,0.1,0.1c0,0.1,0.1,0.2,0.1,0.5l0,3c0,1.1-0.3,2.1-0.7,3
			c-0.5,1-0.9,1.7-1.3,2.2c-0.4,0.5-0.7,0.8-0.9,0.9c-0.2,0.2-0.3,0.3-0.4,0.3C117.2,159.8,117.1,159.6,117.1,159.2z M121,141.4
			c0,0.1,0.1,0.2,0.1,0.4c0,0.1,0,0.3-0.1,0.4c-0.1,0.3-0.2,0.5-0.4,0.8c-0.1,0.2-0.3,0.4-0.4,0.6c-0.1,0.2-0.3,0.4-0.5,0.5
			c-0.1,0.1-0.2,0.2-0.3,0.3c-0.1,0.1-0.2,0.1-0.2,0.1c0,0,0,0-0.1,0s-0.1,0-0.1,0c0,0-0.1,0-0.1-0.1c-0.3-0.2-0.6-0.5-0.9-0.7
			c-0.3-0.2-0.6-0.5-0.9-0.7c0-0.1-0.1-0.1-0.1-0.1c0,0,0-0.1,0.1-0.1l1.9-3c0.1-0.1,0.1-0.1,0.2-0.1s0.1,0,0.2,0.1
			c0.2,0.1,0.3,0.2,0.5,0.3c0.2,0.1,0.3,0.2,0.5,0.4c0.1,0.1,0.3,0.3,0.4,0.5S120.9,141.2,121,141.4z M124.8,141.2
			c0,0.1,0.1,0.2,0.1,0.4c0,0.1,0,0.3-0.1,0.4c-0.1,0.3-0.2,0.5-0.4,0.8c-0.1,0.2-0.3,0.4-0.4,0.6c-0.1,0.2-0.3,0.4-0.5,0.5
			c-0.1,0.1-0.2,0.2-0.3,0.3c-0.1,0.1-0.2,0.1-0.2,0.1c0,0-0.1,0-0.1,0c0,0-0.1,0-0.1,0c0,0-0.1,0-0.1-0.1c-0.3-0.2-0.6-0.5-0.9-0.7
			c-0.3-0.2-0.6-0.5-0.9-0.7c0-0.1-0.1-0.1-0.1-0.1c0,0,0-0.1,0.1-0.1l1.9-3c0.1-0.1,0.1-0.1,0.2-0.1c0.1,0,0.1,0,0.2,0.1
			c0.2,0.1,0.3,0.2,0.5,0.3c0.2,0.1,0.3,0.2,0.5,0.4c0.1,0.1,0.3,0.3,0.4,0.5S124.8,141,124.8,141.2z"/>
		<path class="st0" d="M127.3,160.3c-0.5,1.2-0.9,2.1-1.3,2.6c-0.3,0.5-0.6,0.9-0.9,1.1c-0.2,0.2-0.6,0.4-1,0.5
			c-0.4,0.2-0.9,0.3-1.4,0.4s-0.9,0.2-1.1,0.2c-0.1,0-0.2,0-0.2,0c0,0,0,0,0,0c0-0.1,0.4-0.4,1.1-0.8c0.8-0.5,1.4-0.9,1.9-1.3
			c0.5-0.4,0.9-0.8,1.3-1.3c0.4-0.5,0.7-1,0.8-1.5c-0.1,0-0.2,0.1-0.3,0.1c-0.1,0-0.3,0.1-0.4,0.1c-0.1,0-0.3,0-0.4,0
			c-0.1,0-0.3,0-0.4,0c-0.5,0-0.9-0.2-1.2-0.5s-0.5-0.6-0.4-1.1c0-0.2,0.1-0.5,0.2-0.7c0.1-0.3,0.3-0.7,0.6-1.4
			c0.3-0.6,0.6-1.1,1-1.5c0.3-0.4,0.7-0.6,1-0.6c0.5,0,1,0.2,1.3,0.7s0.6,1,0.6,1.6c0,0.1,0,0.3,0,0.4c0,0.2,0,0.4,0,0.6
			c0,0.3-0.1,0.6-0.1,0.8c0,0.2-0.1,0.5-0.2,0.8C127.5,159.7,127.4,160,127.3,160.3z"/>
		<path class="st0" d="M130.5,165.1c-0.1,0-0.3,0-0.4,0c-0.9,0-1.7,0.2-2.5,0.7c-0.1,0-0.1,0.1-0.2,0.1c-0.1,0-0.1,0-0.1-0.1
			c0,0-0.1-0.1-0.1-0.1c0-0.1,0-0.2,0.1-0.4c0.2-0.4,0.5-0.9,1.1-1.6c0.6-0.7,1.2-1.2,2-1.7c0.3,0.5,0.5,1,0.5,1.6
			S130.8,164.6,130.5,165.1z"/>
		<path class="st0" d="M138.2,162.3c-0.2,0-0.4-0.1-0.5-0.1c-0.1,0-0.1,0-0.2,0c-0.5,0.1-1,0.4-1.5,0.9c-0.5,0.5-1.1,1-1.7,1.5
			c-0.7,0.5-1.2,0.7-1.7,0.8c-0.1,0-0.3,0-0.4,0c-0.3,0-0.6,0-0.8-0.1c-0.3-0.1-0.7-0.2-1-0.2c-0.4-0.5-0.5-1.1-0.6-1.6
			c0-0.5,0.2-1,0.6-1.6c0.7-0.4,1.2-0.5,1.7-0.5c0.4,0,0.8,0.1,1.2,0.2c0.4,0.2,0.7,0.2,1,0.2c0.6,0,1-0.1,1.2-0.2
			c0.2-0.1,0.5-0.3,0.8-0.6c0.2-0.1,0.3-0.3,0.4-0.4c0.1-0.1,0.3-0.3,0.6-0.5c0.2-0.2,0.5-0.3,0.8-0.4c0.1,0.3,0.1,0.6,0.2,0.8
			c0.1,0.2,0.1,0.4,0.1,0.6c0,0.2-0.1,0.5-0.2,0.8C138.4,162.1,138.3,162.2,138.2,162.3z M135.8,174.3c0,0.1,0,0.2,0,0.4
			c0,0.1,0,0.2,0,0.4c-0.1,0.3-0.2,0.5-0.4,0.8c-0.1,0.2-0.3,0.4-0.4,0.6c-0.1,0.2-0.3,0.4-0.5,0.5c-0.1,0.1-0.2,0.2-0.3,0.3
			s-0.2,0.1-0.2,0.1s-0.1,0-0.2,0s-0.1,0-0.1-0.1c-0.3-0.2-0.6-0.5-0.9-0.7c-0.3-0.2-0.6-0.5-0.9-0.7c0-0.1-0.1-0.1-0.1-0.1
			c0,0,0-0.1,0.1-0.2l1.9-3c0.1-0.1,0.1-0.1,0.2-0.1c0.1,0,0.1,0,0.2,0.1c0.2,0.1,0.3,0.2,0.5,0.3c0.2,0.1,0.3,0.2,0.5,0.4
			c0.1,0.1,0.3,0.3,0.4,0.5S135.7,174.1,135.8,174.3z M139.6,174.1c0,0.1,0,0.2,0,0.4c0,0.1,0,0.2,0,0.4c-0.1,0.3-0.2,0.5-0.4,0.8
			c-0.1,0.2-0.3,0.4-0.4,0.6c-0.1,0.2-0.3,0.4-0.5,0.5c-0.1,0.1-0.2,0.2-0.3,0.3c-0.1,0-0.2,0.1-0.2,0.1s-0.1,0-0.2,0
			s-0.1,0-0.1-0.1c-0.3-0.2-0.6-0.5-0.9-0.7c-0.3-0.2-0.6-0.5-0.9-0.7c0-0.1-0.1-0.1-0.1-0.1c0,0,0-0.1,0.1-0.2l1.9-3
			c0.1-0.1,0.1-0.1,0.2-0.1c0.1,0,0.1,0,0.2,0.1c0.2,0.1,0.3,0.2,0.5,0.3c0.2,0.1,0.3,0.2,0.5,0.4c0.1,0.1,0.3,0.3,0.4,0.5
			C139.5,173.7,139.6,173.9,139.6,174.1z"/>
		<path class="st0" d="M145.1,162.8c-0.1,0.2-0.1,0.3-0.2,0.5c-0.1,0.2-0.1,0.3-0.2,0.4c-0.1,0.3-0.3,0.4-0.4,0.4
			c-0.1,0-0.1,0-0.2-0.2c0,0,0-0.1,0-0.1c0-0.1,0-0.2,0-0.3c0.2-0.6,0.3-1,0.3-1.3c0.1-0.4,0.1-0.7,0.1-1.1c0-0.4-0.2-0.7-0.5-1
			c-0.3-0.3-0.7-0.4-1.1-0.4c-0.4,0-0.8,0.1-1.1,0.4c-0.3,0.2-0.5,0.5-0.8,0.8c-0.1,0.2-0.3,0.4-0.4,0.5c-0.1,0.2-0.3,0.3-0.4,0.5
			c-0.4,0.4-0.7,0.7-1,0.7c-0.2,0-0.4-0.1-0.5-0.2c-0.1-0.1-0.4-0.2-0.7-0.2c-0.2-0.1-0.4-0.2-0.6-0.4c-0.2-0.1-0.4-0.4-0.5-0.6
			l0.7-1.1c0.2-0.2,0.3-0.3,0.5-0.3c0.1,0,0.1,0,0.2,0c0.3,0.1,0.6,0.2,0.9,0.3c0.2,0.1,0.5,0.1,0.7,0.1c0.1,0,0.1,0,0.2,0
			c0.3,0,0.7-0.4,1.2-1.1c0.3-0.4,0.6-0.8,0.9-1.1c0.1-0.1,0.3-0.3,0.6-0.5c0.3-0.1,0.6-0.2,0.9-0.2c0.4,0,0.7,0.1,1,0.4
			c0.3,0.3,0.6,0.6,0.8,1c0.1,0.1,0.1,0.2,0.1,0.2c0.1,0.2,0.1,0.3,0.2,0.4c0,0,0,0.2,0,0.4c0,0.1,0,0.1,0,0.1c0,0.1,0,0.1,0,0.1
			c0,0.1,0,0.1,0,0.2L145.1,162.8z"/>
		<path class="st0" d="M149.1,154.2c0,0,0.1,0,0.1,0c0,0,0.1,0,0.1,0c0,0,0,0.1,0,0.2c0,0,0,0.1,0,0.1c-0.1,0.3-0.3,0.5-0.4,0.8
			c-0.1,0.3-0.2,0.5-0.4,0.8c0,0.1-0.1,0.2-0.2,0.4c-0.1,0.1-0.2,0.3-0.3,0.3c-0.3,0.3-0.6,0.5-0.8,0.8c-0.3,0.2-0.5,0.5-0.7,0.8
			s-0.5,0.6-0.7,0.9c-0.2,0.3-0.4,0.7-0.6,1.1c-0.2,0.1-0.3,0.1-0.5,0.1c-0.2,0-0.3-0.1-0.5-0.1c0.3-0.6,0.6-1.3,1-1.9
			c0.4-0.7,0.8-1.3,1.3-1.8c0.5-0.6,0.9-1.1,1.3-1.5S148.7,154.4,149.1,154.2z M148.4,145.1c0,0.1,0.1,0.2,0.1,0.4
			c0,0.1,0,0.3-0.1,0.4c-0.1,0.3-0.2,0.5-0.4,0.8c-0.1,0.2-0.3,0.4-0.4,0.6c-0.1,0.2-0.3,0.4-0.5,0.5c-0.1,0.1-0.2,0.2-0.3,0.3
			c-0.1,0-0.2,0.1-0.2,0.1c0,0-0.1,0-0.1,0c0,0-0.1,0-0.1,0c0,0-0.1,0-0.1-0.1c-0.3-0.2-0.6-0.5-0.9-0.7c-0.3-0.2-0.6-0.5-0.9-0.7
			c0-0.1-0.1-0.1-0.1-0.1c0,0,0-0.1,0.1-0.1l1.9-3c0.1-0.1,0.1-0.1,0.2-0.1c0.1,0,0.1,0,0.2,0.1c0.2,0.1,0.3,0.2,0.5,0.3
			c0.2,0.1,0.3,0.2,0.5,0.4c0.1,0.1,0.3,0.3,0.4,0.5C148.3,144.8,148.4,144.9,148.4,145.1z M152.3,144.9c0,0.1,0.1,0.2,0.1,0.4
			c0,0.1,0,0.3-0.1,0.4c-0.1,0.3-0.2,0.5-0.4,0.8c-0.1,0.2-0.3,0.4-0.4,0.6c-0.1,0.2-0.3,0.4-0.5,0.5c-0.1,0.1-0.2,0.2-0.3,0.3
			c-0.1,0.1-0.2,0.1-0.2,0.1c0,0-0.1,0-0.1,0c0,0-0.1,0-0.1,0c0,0-0.1,0-0.1-0.1c-0.3-0.2-0.6-0.5-0.9-0.7c-0.3-0.2-0.6-0.5-0.9-0.7
			c0-0.1-0.1-0.1-0.1-0.1c0,0,0-0.1,0.1-0.1l1.9-3c0.1-0.1,0.1-0.1,0.2-0.1s0.1,0,0.2,0.1c0.2,0.1,0.3,0.2,0.5,0.3
			c0.2,0.1,0.3,0.2,0.5,0.4c0.1,0.1,0.3,0.3,0.4,0.5S152.2,144.7,152.3,144.9z"/>
		<path class="st0" d="M174.7,158.4c-0.4,0-0.8,0-1.1,0.1c-0.3,0.1-0.6,0.2-0.9,0.5c-0.3,0.3-0.6,0.6-0.9,1.1
			c-0.2,0.2-0.3,0.4-0.5,0.7c-0.2,0.2-0.3,0.5-0.5,0.7c-0.4,0.5-0.8,0.9-1.3,1.2c-1.2,0.9-2.9,1.6-5.2,2.1c-2.2,0.5-4.7,0.7-7.5,0.7
			c-1,0-2-0.1-2.9-0.2c-1-0.1-1.8-0.3-2.3-0.6c-0.8-0.5-1.2-1.4-1.2-2.7c0-0.8,0.1-1.7,0.2-2.6c0.1-0.9,0.3-1.4,0.4-1.4
			c0.1,0,0.2,0.3,0.3,0.9c0.1,0.6,0.3,1,0.6,1.4s0.9,0.6,1.7,0.8c0.8,0.2,1.9,0.3,3.4,0.3c0.3,0,0.7,0,1,0c0.9,0,2,0,3.1-0.1
			c1.5-0.1,2.7-0.2,3.7-0.3c0.9-0.1,2.1-0.4,3.5-0.8c0.9-0.3,1.6-0.5,2.2-0.9c0.6-0.3,1.1-0.6,1.4-1c0,0,0.2-0.2,0.5-0.7
			c0.3-0.4,0.6-0.7,0.7-0.9c0.4-0.4,0.9-0.7,1.5-0.8c0.4,0.2,0.5,0.6,0.5,1c0,0.1,0,0.2,0,0.2C175.1,157.7,174.9,158.1,174.7,158.4z
			 M160.9,151.6c0,0.1,0.1,0.2,0.1,0.4c0,0.1,0,0.3-0.1,0.4c-0.1,0.3-0.2,0.5-0.4,0.8c-0.1,0.2-0.3,0.4-0.4,0.6
			c-0.1,0.2-0.3,0.4-0.5,0.5c-0.1,0.1-0.2,0.2-0.3,0.3c-0.1,0-0.2,0.1-0.2,0.1c0,0-0.1,0-0.1,0s0,0-0.1,0c0,0-0.1,0-0.1-0.1
			c-0.3-0.2-0.6-0.5-0.9-0.7c-0.3-0.2-0.6-0.5-0.9-0.7c0-0.1-0.1-0.1-0.1-0.1c0,0,0-0.1,0.1-0.1l1.9-3c0.1-0.1,0.1-0.1,0.2-0.1
			c0.1,0,0.1,0,0.2,0.1c0.2,0.1,0.3,0.2,0.5,0.3c0.2,0.1,0.3,0.2,0.5,0.4c0.1,0.1,0.3,0.3,0.4,0.5
			C160.8,151.2,160.9,151.4,160.9,151.6z M164.8,151.4c0,0.1,0.1,0.2,0.1,0.4c0,0.1,0,0.3-0.1,0.4c-0.1,0.3-0.2,0.5-0.4,0.8
			c-0.1,0.2-0.3,0.4-0.4,0.6c-0.1,0.2-0.3,0.4-0.5,0.5c-0.1,0.1-0.2,0.2-0.3,0.3c-0.1,0.1-0.2,0.1-0.2,0.1c0,0-0.1,0-0.1,0
			s0,0-0.1,0c0,0-0.1,0-0.1-0.1c-0.3-0.2-0.6-0.5-0.9-0.7c-0.3-0.2-0.6-0.5-0.9-0.7c0-0.1-0.1-0.1-0.1-0.1c0,0,0-0.1,0.1-0.1l1.9-3
			c0.1-0.1,0.1-0.1,0.2-0.1s0.1,0,0.2,0.1c0.2,0.1,0.3,0.2,0.5,0.3s0.3,0.2,0.5,0.4c0.1,0.1,0.3,0.3,0.4,0.5
			C164.7,151,164.7,151.2,164.8,151.4z"/>
		<path class="st0" d="M174.7,158.4c-0.1-0.4-0.2-0.8-0.2-1.2s0.1-0.8,0.2-1.2c0.3,0,0.7,0.1,1,0.2c0.1,0,0.1,0,0.2,0
			c0.3,0,0.5-0.2,0.7-0.7c0.1-0.2,0.2-0.6,0.3-1c0.1-0.4,0.1-1,0.1-1.7l0-4.1l0.7-2.8l0.7-2c0.1-0.1,0.1-0.2,0.2-0.2
			c0,0,0.1,0,0.1,0.1c0,0.1,0,0.2,0,0.5c0,0.5-0.1,1.1-0.1,1.8c0,0.6-0.1,1.3-0.1,1.8c-0.1,2.5-0.2,4.1-0.3,4.9
			c-0.1,0.8-0.2,1.5-0.4,2c-0.2,0.6-0.4,1.1-0.7,1.6c-0.3,0.5-0.6,1-1,1.4c-0.3,0.4-0.7,0.6-0.9,0.6
			C174.9,158.4,174.7,158.4,174.7,158.4z M180.4,141c0.5-0.4,1.1-0.8,1.6-1.1c0.5-0.3,1-0.7,1.6-1c7.3-5,11.6-7.9,12.7-8.8
			c1.3-1,2-1.6,2.1-1.7c0.1-0.1,0.1-0.1,0.2-0.1s0.1,0,0.1,0.1c0,0.1,0,0.2-0.1,0.3c-0.2,0.4-0.8,1.3-1.9,2.6
			c-1.9,1.7-4.3,3.5-7.2,5.5c-2.9,2-6,3.9-9.1,5.7c-0.2,0.1-0.4,0.3-0.6,0.4c-0.2,0.1-0.4,0.2-0.6,0.3c-0.4,0.3-0.6,0.3-0.6,0
			c0-0.1,0.3-0.5,0.8-1.3C179.7,141.7,180.1,141.3,180.4,141z"/>
		<path class="st0" d="M184.2,158.1c0.4-0.6,0.9-1.1,1.3-1.5c0.4-0.4,0.8-0.8,1.2-1.1c0.4-0.3,0.8-0.6,1.2-0.8s0.8-0.4,1.1-0.5
			c0.4-0.2,0.9-0.3,1.4-0.3s0.9-0.1,1.3-0.2c0.4,0,0.8-0.1,1.1-0.1c0.3,0,0.6-0.1,0.8-0.1c0.2-0.1,0.4-0.3,0.7-0.6
			c0.3-0.3,0.5-0.7,0.8-1.1c0.1-0.2,0.3-0.4,0.4-0.6s0.3-0.4,0.5-0.5c0.2-0.2,0.3-0.3,0.5-0.4s0.4-0.2,0.6-0.3
			c0.2-0.1,0.4-0.1,0.6-0.1c0.2,0,0.3,0,0.5-0.1c0.1,0,0.3,0,0.4,0c0.1,0,0.2,0,0.2,0c0.1,0,0.2-0.1,0.3-0.3
			c0.1-0.1,0.2-0.3,0.3-0.4c0.1-0.1,0.2-0.3,0.3-0.4c0.1-0.1,0.1-0.2,0.2-0.2c0.1,0,0.2,0.1,0.2,0.2c0,0,0,0.1,0,0.2
			c-0.1,0.3-0.2,0.6-0.5,1.1c-0.1,0.2-0.3,0.5-0.4,0.7c-0.2,0.2-0.3,0.4-0.4,0.6c-0.1,0.2-0.3,0.3-0.4,0.4c-0.1,0.1-0.2,0.1-0.3,0.1
			c-0.4,0-0.8,0.1-1.1,0.3c-0.4,0.1-0.7,0.4-1,0.7c-0.3,0.3-0.6,0.7-0.9,1.1c-0.3,0.4-0.7,0.9-1.1,1.5c-0.2,0.2-0.3,0.4-0.6,0.7
			c-0.2,0.3-0.4,0.5-0.7,0.7c-0.2,0.2-0.5,0.5-0.7,0.6c-0.2,0.2-0.5,0.3-0.7,0.4c-0.2,0-0.3,0-0.5,0s-0.4,0-0.6,0.1
			c-0.2,0-0.4,0-0.6,0.1s-0.3,0-0.4,0.1c-0.7,0.1-1.4,0.3-2.1,0.6c-0.7,0.3-1.4,0.8-2.1,1.5s-1.4,1.5-2.2,2.6
			c-0.8,1.1-1.5,1.9-2.2,2.6c-0.7,0.7-1.5,1.3-2.5,1.9c-0.9,0.6-1.7,1-2.4,1.3s-1,0.5-1.2,0.5c-0.2,0.1-0.3,0.1-0.4,0.1
			c-0.1,0-0.1,0-0.1-0.1c0,0,0,0,0,0c0,0,0.1-0.1,0.2-0.2c0.3-0.2,0.7-0.5,1.5-1c0.7-0.5,1.4-1,2-1.4s1.2-1.1,1.9-1.9s1.6-2,2.7-3.5
			C183.2,159.5,183.9,158.5,184.2,158.1z M195.2,140.6c0,0.1,0.1,0.2,0.1,0.4c0,0.1,0,0.3-0.1,0.4c-0.1,0.3-0.2,0.5-0.4,0.8
			c-0.1,0.2-0.3,0.4-0.4,0.6c-0.1,0.2-0.3,0.4-0.5,0.5c-0.1,0.1-0.2,0.2-0.3,0.3c-0.1,0.1-0.2,0.1-0.2,0.1c0,0-0.1,0-0.1,0
			c0,0-0.1,0-0.1,0c0,0-0.1,0-0.1-0.1c-0.3-0.2-0.6-0.5-0.9-0.7c-0.3-0.2-0.6-0.5-0.9-0.7c0-0.1-0.1-0.1-0.1-0.1c0,0,0-0.1,0.1-0.1
			l1.9-3c0.1-0.1,0.1-0.1,0.2-0.1c0.1,0,0.1,0,0.2,0.1c0.2,0.1,0.3,0.2,0.5,0.3c0.2,0.1,0.3,0.2,0.5,0.4c0.1,0.1,0.3,0.3,0.4,0.5
			S195.2,140.4,195.2,140.6z M197.4,135.8c0,0.1,0,0.2,0,0.4c0,0.1,0,0.3,0,0.4c-0.1,0.3-0.2,0.5-0.4,0.8c-0.1,0.2-0.3,0.4-0.4,0.6
			c-0.1,0.2-0.3,0.4-0.5,0.5c-0.1,0.1-0.2,0.2-0.3,0.3c-0.1,0-0.2,0.1-0.2,0.1c0,0,0,0-0.1,0s-0.1,0-0.1,0c0,0-0.1,0-0.1-0.1
			c-0.3-0.2-0.6-0.5-0.9-0.7c-0.3-0.2-0.6-0.5-0.9-0.7c0-0.1-0.1-0.1-0.1-0.1c0,0,0-0.1,0.1-0.1l1.9-3c0.1-0.1,0.1-0.1,0.2-0.1
			c0.1,0,0.1,0,0.2,0.1c0.2,0.1,0.3,0.2,0.5,0.3c0.2,0.1,0.3,0.2,0.5,0.4c0.1,0.1,0.3,0.3,0.4,0.5
			C197.2,135.4,197.3,135.6,197.4,135.8z M199.1,140.4c0,0.1,0.1,0.2,0.1,0.4c0,0.1,0,0.3-0.1,0.4c-0.1,0.3-0.2,0.5-0.4,0.8
			c-0.1,0.2-0.3,0.4-0.4,0.6c-0.1,0.2-0.3,0.4-0.5,0.5c-0.1,0.1-0.2,0.2-0.3,0.3c-0.1,0-0.2,0.1-0.2,0.1c0,0-0.1,0-0.1,0
			c0,0,0,0-0.1,0c0,0-0.1,0-0.1-0.1c-0.3-0.2-0.6-0.5-0.9-0.7c-0.3-0.2-0.6-0.5-0.9-0.7c0-0.1-0.1-0.1-0.1-0.1c0,0,0-0.1,0.1-0.1
			l1.9-3c0.1-0.1,0.1-0.1,0.2-0.1c0.1,0,0.1,0,0.2,0.1c0.2,0.1,0.3,0.2,0.5,0.3c0.2,0.1,0.3,0.2,0.5,0.4c0.1,0.1,0.3,0.3,0.4,0.5
			C199,140,199.1,140.2,199.1,140.4z"/>
	</g>
</g>
</svg>
