<?xml version="1.0" encoding="utf-8"?>
<!-- Generator: Adobe Illustrator 27.8.1, SVG Export Plug-In . SVG Version: 6.00 Build 0)  -->
<svg version="1.1" id="Layer_1" xmlns="http://www.w3.org/2000/svg" xmlns:xlink="http://www.w3.org/1999/xlink" x="0px" y="0px"
	 viewBox="0 0 69 69" style="enable-background:new 0 0 69 69;" xml:space="preserve">
<style type="text/css">
	.st0{fill:url(#SVGID_1_);}
	.st1{fill:url(#SVGID_00000163061847872292104950000010805744900890384528_);}
	.st2{fill:url(#SVGID_00000160907065992494903770000000558989955211967117_);}
	.st3{fill:url(#SVGID_00000165205135417803650820000001253870988015785360_);}
</style>
<g>
	
		<linearGradient id="SVGID_1_" gradientUnits="userSpaceOnUse" x1="137.7641" y1="70.9492" x2="116.9442" y2="-7.2898" gradientTransform="matrix(1 0 0 1 -83.8616 0)">
		<stop  offset="7.621282e-02" style="stop-color:#EC1C24"/>
		<stop  offset="0.8" style="stop-color:#860507"/>
	</linearGradient>
	<path class="st0" d="M69,34.5c0-5.6-2.2-11.1-6.6-15.2c-5.8-5.5-14-6.9-21.1-4.5c2.7,0.9,5.2,2.4,7.4,4.5c4.4,4.1,6.6,9.7,6.6,15.2
		h0c0,0.1,0,0.2,0,0.3c0,0,0,0,0,0c-0.1,8.3-3.2,16.7-9.3,23.3c-5.1,5.5-11.6,8.9-18.4,10.2c11.3,2.3,23.5-1.2,32-10.2
		C65.9,51.4,69,43,69,34.5L69,34.5z"/>
	
		<linearGradient id="SVGID_00000116926223681817166980000016934310663524122497_" gradientUnits="userSpaceOnUse" x1="103.4873" y1="17.5134" x2="121.4582" y2="57.6192" gradientTransform="matrix(1 0 0 1 -83.8616 0)">
		<stop  offset="7.621282e-02" style="stop-color:#EC1C24"/>
		<stop  offset="0.8" style="stop-color:#860507"/>
	</linearGradient>
	<path style="fill:url(#SVGID_00000116926223681817166980000016934310663524122497_);" d="M6.6,49.7c5.8,5.5,14,6.9,21.1,4.5
		c-2.7-0.9-5.2-2.4-7.4-4.5c-4.4-4.1-6.6-9.7-6.6-15.2l0,0c0-0.1,0-0.1,0-0.2c0,0,0-0.1,0-0.1c0.1-8.3,3.2-16.6,9.3-23.2
		C28.1,5.5,34.5,2,41.3,0.7C30-1.6,17.8,1.9,9.3,10.9C3.1,17.6,0,26,0,34.5h0C0,40.1,2.2,45.6,6.6,49.7z"/>
	
		<linearGradient id="SVGID_00000088109317070550514480000010823716615196173740_" gradientUnits="userSpaceOnUse" x1="136.9865" y1="31.9606" x2="81.9777" y2="60.2321" gradientTransform="matrix(1 0 0 1 -83.8616 0)">
		<stop  offset="0.2" style="stop-color:#860507"/>
		<stop  offset="0.2278" style="stop-color:#91080A"/>
		<stop  offset="0.3212" style="stop-color:#B20F13"/>
		<stop  offset="0.4176" style="stop-color:#CB151B"/>
		<stop  offset="0.5171" style="stop-color:#DE1920"/>
		<stop  offset="0.6215" style="stop-color:#E81B23"/>
		<stop  offset="0.7389" style="stop-color:#EC1C24"/>
	</linearGradient>
	<path style="fill:url(#SVGID_00000088109317070550514480000010823716615196173740_);" d="M55.4,34.8L55.4,34.8c0,0.2,0,0.3,0,0.5
		c-0.2,8.2-3.3,16.3-9.3,22.8c-5.1,5.5-11.6,8.9-18.4,10.2c-6.1-1.2-11.9-4.1-16.8-8.6C3.7,52.9,0,43.7,0,34.5h0
		c0,5.6,2.2,11.1,6.6,15.2c5.8,5.5,14,6.9,21.1,4.5c3.1-1.1,6-2.9,8.4-5.5c3.8-4,5.6-9.1,5.6-14.3h13.6
		C55.4,34.6,55.4,34.7,55.4,34.8z"/>
	
		<linearGradient id="SVGID_00000119116475436664448990000013693805050374559904_" gradientUnits="userSpaceOnUse" x1="91.2728" y1="33.196" x2="150.4456" y2="13.6909" gradientTransform="matrix(1 0 0 1 -83.8616 0)">
		<stop  offset="0.2" style="stop-color:#960C10"/>
		<stop  offset="0.3074" style="stop-color:#B21117"/>
		<stop  offset="0.4331" style="stop-color:#CB161C"/>
		<stop  offset="0.5635" style="stop-color:#DE1921"/>
		<stop  offset="0.7005" style="stop-color:#E81B23"/>
		<stop  offset="0.8546" style="stop-color:#EC1C24"/>
	</linearGradient>
	<path style="fill:url(#SVGID_00000119116475436664448990000013693805050374559904_);" d="M69,34.5L69,34.5c0-5.6-2.2-11.1-6.6-15.2
		c-5.8-5.5-14-6.9-21.1-4.5c-3.1,1.1-6,2.9-8.4,5.5c-3.8,4-5.6,9.1-5.6,14.3H13.6c0-0.1,0-0.2,0-0.2c0,0,0-0.1,0-0.1
		c0.1-8.3,3.2-16.6,9.3-23.2C28.1,5.5,34.5,2,41.3,0.7c6.1,1.2,11.9,4.1,16.8,8.6C65.3,16.1,69,25.3,69,34.5z"/>
</g>
</svg>
