<?xml version="1.0" encoding="utf-8"?>
<!-- Generator: Adobe Illustrator 27.8.1, SVG Export Plug-In . SVG Version: 6.00 Build 0)  -->
<svg version="1.1" id="Layer_1" xmlns="http://www.w3.org/2000/svg" xmlns:xlink="http://www.w3.org/1999/xlink" x="0px" y="0px"
	 viewBox="0 0 200 69.8" style="enable-background:new 0 0 200 69.8;" xml:space="preserve">
<style type="text/css">
	.st0{fill:none;}
	.st1{fill:#454545;}
	.st2{fill:url(#SVGID_1_);}
	.st3{fill:url(#SVGID_00000130646126004121418000000011664536477811722141_);}
	.st4{fill:url(#SVGID_00000170261229031009362340000008037393333239253938_);}
	.st5{fill:url(#SVGID_00000074423610488465893510000005699243472397484464_);}
</style>
<g>
	<path class="st0" d="M144.6,35c0-0.1,0-0.1,0-0.2C144.6,34.9,144.6,34.9,144.6,35z"/>
	<rect x="83" y="0.4" class="st1" width="1.1" height="68.9"/>
	<g>
		
			<linearGradient id="SVGID_1_" gradientUnits="userSpaceOnUse" x1="137.7426" y1="71.326" x2="116.9308" y2="-6.8824" gradientTransform="matrix(1 0 0 1 -83.8616 0)">
			<stop  offset="7.621282e-02" style="stop-color:#EC1C24"/>
			<stop  offset="0.8" style="stop-color:#860507"/>
		</linearGradient>
		<path class="st2" d="M69,34.9c0-5.6-2.2-11.1-6.6-15.2c-5.8-5.5-14-6.9-21.1-4.5c2.7,0.9,5.2,2.4,7.4,4.5
			c4.4,4.1,6.6,9.7,6.6,15.2h0c0,0.1,0,0.2,0,0.3c0,0,0,0,0,0c-0.1,8.3-3.2,16.7-9.3,23.3c-5.1,5.5-11.6,8.9-18.4,10.2
			c11.3,2.3,23.5-1.2,32-10.2C65.9,51.8,69,43.3,69,34.9L69,34.9z"/>
		
			<linearGradient id="SVGID_00000043436834852817243520000016774153879787366539_" gradientUnits="userSpaceOnUse" x1="103.4794" y1="17.9112" x2="121.4433" y2="58.0012" gradientTransform="matrix(1 0 0 1 -83.8616 0)">
			<stop  offset="7.621282e-02" style="stop-color:#EC1C24"/>
			<stop  offset="0.8" style="stop-color:#860507"/>
		</linearGradient>
		<path style="fill:url(#SVGID_00000043436834852817243520000016774153879787366539_);" d="M6.6,50.1c5.8,5.5,14,6.9,21.1,4.5
			c-2.7-0.9-5.2-2.4-7.4-4.5c-4.4-4.1-6.6-9.7-6.6-15.2l0,0c0-0.1,0-0.1,0-0.2c0,0,0-0.1,0-0.1c0.1-8.3,3.2-16.6,9.3-23.2
			C28,5.9,34.5,2.4,41.3,1.1C30-1.2,17.8,2.3,9.3,11.3C3.1,18,0,26.4,0,34.9h0C0,40.5,2.2,46,6.6,50.1z"/>
		
			<linearGradient id="SVGID_00000005244991991235247200000008458781918492173755_" gradientUnits="userSpaceOnUse" x1="136.9653" y1="32.3528" x2="81.9784" y2="60.613" gradientTransform="matrix(1 0 0 1 -83.8616 0)">
			<stop  offset="0.2" style="stop-color:#860507"/>
			<stop  offset="0.2278" style="stop-color:#91080A"/>
			<stop  offset="0.3212" style="stop-color:#B20F13"/>
			<stop  offset="0.4176" style="stop-color:#CB151B"/>
			<stop  offset="0.5171" style="stop-color:#DE1920"/>
			<stop  offset="0.6215" style="stop-color:#E81B23"/>
			<stop  offset="0.7389" style="stop-color:#EC1C24"/>
		</linearGradient>
		<path style="fill:url(#SVGID_00000005244991991235247200000008458781918492173755_);" d="M55.3,35.2L55.3,35.2c0,0.2,0,0.3,0,0.5
			C55.1,43.9,52.1,52,46,58.5c-5.1,5.5-11.6,8.9-18.4,10.2c-6.1-1.2-11.9-4.1-16.8-8.6C3.7,53.3,0,44.1,0,34.9h0
			C0,40.5,2.2,46,6.6,50.1c5.8,5.5,14,6.9,21.1,4.5c3.1-1.1,6-2.9,8.4-5.5c3.8-4,5.6-9.1,5.6-14.3h13.6C55.3,35,55.3,35.1,55.3,35.2
			z"/>
		
			<linearGradient id="SVGID_00000021102130349616263740000000958851709371390087_" gradientUnits="userSpaceOnUse" x1="91.2698" y1="33.5875" x2="150.4191" y2="14.0902" gradientTransform="matrix(1 0 0 1 -83.8616 0)">
			<stop  offset="0.2" style="stop-color:#960C10"/>
			<stop  offset="0.3074" style="stop-color:#B21117"/>
			<stop  offset="0.4331" style="stop-color:#CB161C"/>
			<stop  offset="0.5635" style="stop-color:#DE1921"/>
			<stop  offset="0.7005" style="stop-color:#E81B23"/>
			<stop  offset="0.8546" style="stop-color:#EC1C24"/>
		</linearGradient>
		<path style="fill:url(#SVGID_00000021102130349616263740000000958851709371390087_);" d="M69,34.9L69,34.9
			c0-5.6-2.2-11.1-6.6-15.2c-5.8-5.5-14-6.9-21.1-4.5c-3.1,1.1-6,2.9-8.4,5.5c-3.8,4-5.6,9.1-5.6,14.3H13.6c0-0.1,0-0.2,0-0.2
			c0,0,0-0.1,0-0.1c0.1-8.3,3.2-16.6,9.3-23.2C28,5.9,34.5,2.4,41.3,1.1c6.1,1.2,11.9,4.1,16.8,8.6C65.3,16.5,69,25.7,69,34.9z"/>
	</g>
	<g>
		<g>
			<path class="st1" d="M113.7,15.4c0,1.4-0.3,2.3-0.9,3c-0.6,0.6-1.6,0.9-2.9,0.9c-1.6,0-5.4,0-11.4,0v-2.7c6.3,0,9.5,0,9.7,0
				c0.2,0,0.4,0,0.6,0c0.2,0,0.4-0.1,0.5-0.1c0.2-0.1,0.3-0.2,0.4-0.3c0.1-0.1,0.1-0.3,0.1-0.5c0-0.3-0.1-0.5-0.2-0.6
				c-0.1-0.2-0.3-0.3-0.5-0.3c-0.2-0.1-0.4-0.1-0.7-0.1c-0.2,0-0.5,0-0.8,0c-0.2,0-0.8,0-1.7-0.1c-1.5-0.1-2.4-0.1-2.8-0.1
				c-0.4,0-0.7,0-1.1,0c-0.3,0-0.6,0-0.9-0.1c-1.2-0.1-2-0.5-2.6-1.2c-0.4-0.5-0.5-1.3-0.5-2.4c0-1.3,0.3-2.3,0.8-2.9
				c0.5-0.7,1.3-1,2.5-1c1.6,0,5.5,0,11.8,0v2.7c-6.3,0-9.5,0-9.7,0c-0.2,0-0.4,0-0.6,0s-0.3,0.1-0.5,0.1c-0.2,0.1-0.3,0.2-0.4,0.3
				c-0.1,0.1-0.1,0.3-0.1,0.5c0,0.4,0.1,0.7,0.4,0.8c0.3,0.1,0.7,0.2,1.2,0.2h0.3c0.2,0,0.3,0,0.3,0c0.2,0,0.8,0,1.7,0.1
				c1.3,0,2.2,0.1,2.7,0.1c0.5,0,0.9,0,1.3,0.1c0.3,0,0.6,0,0.9,0.1c1.2,0.1,2,0.5,2.5,1.3C113.6,13.7,113.7,14.5,113.7,15.4z"/>
			<path class="st1" d="M118.8,17.2l-1.2,2.2h-4.4l6.9-12.6h5l6.9,12.6h-4.4l-1.2-2.2H118.8z M120.2,14.5h4.9l-2.4-4.5L120.2,14.5z"
				/>
			<path class="st1" d="M142.5,6.7h4.4L140,19.3h-5l-6.9-12.6h4.4l5,9.5L142.5,6.7z"/>
		</g>
		<g>
			<path class="st1" d="M114.1,31.7c-7,0-10.8,0-11.4,0c-0.4,0-0.7,0.1-0.9,0.2c-0.2,0.1-0.3,0.3-0.3,0.5v5c0,0.3,0.1,0.5,0.2,0.6
				c0.2,0.1,0.5,0.1,0.9,0.1c0.6,0,2.8,0,6.8,0c0.4,0,0.7-0.1,0.9-0.2c0.2-0.1,0.3-0.3,0.3-0.5v-1.4H106v-2.4h8.2c0,1.7,0,3.1,0,4.3
				c0,0.5-0.1,1-0.2,1.3c-0.1,0.3-0.3,0.7-0.6,1c-0.3,0.3-0.6,0.5-0.9,0.6c-0.3,0.1-0.8,0.3-1.3,0.3c-0.5,0.1-1.1,0.1-1.9,0.1
				c-0.7,0-1.8,0-3.2,0c-1.4,0-2.5,0-3.2,0c-0.7,0-1.3-0.1-1.8-0.1c-0.5-0.1-0.9-0.2-1.2-0.3c-0.3-0.1-0.6-0.4-0.9-0.6
				c-0.3-0.3-0.5-0.6-0.7-0.9c-0.1-0.3-0.2-0.8-0.2-1.3c0-1.2,0-3.1,0-5.8c0-1.1,0.3-2,1-2.6c0.7-0.6,1.7-0.9,3.1-0.9
				c2.1,0,6.1,0,11.8,0V31.7z"/>
			<path class="st1" d="M120.4,36.5v4.7h-3.9V28.5h3.9v4.5h8.4v-4.5h3.9v12.6h-3.9v-4.7H120.4z"/>
			<path class="st1" d="M139.7,39l-1.2,2.2h-4.4l6.9-12.6h5l6.9,12.6h-4.4l-1.2-2.2H139.7z M141.1,36.3h4.9l-2.4-4.5L141.1,36.3z"/>
			<path class="st1" d="M160.3,41.2h-3.9v-9.7h-5.5v-2.9h14.9v2.9h-5.4V41.2z"/>
			<path class="st1" d="M181.5,38.2v2.9h-9.7h-3.9h-0.3V28.5h0.2h4h9.7v2.9h-9.9v2.1h9.3v2.6h-9.3v2.1H181.5z"/>
			<path class="st1" d="M187.6,36.5v4.7h-3.9V28.5h3.9v4.5h8.4v-4.5h3.9v12.6h-3.9v-4.7H187.6z"/>
		</g>
		<g>
			<path class="st1" d="M102.1,50.5v12.6h-3.9V50.5H102.1z M108.9,50.5h5.2l-7.2,6.1l8.2,6.5h-5.7l-7.2-6.5L108.9,50.5z"/>
			<path class="st1" d="M119.6,60.9l-1.2,2.2h-4.4l6.9-12.6h5l6.9,12.6h-4.4l-1.2-2.2H119.6z M121,58.2h4.9l-2.4-4.5L121,58.2z"/>
			<path class="st1" d="M143.3,50.5h4.4L140.8,63h-5l-6.9-12.6h4.4l5,9.5L143.3,50.5z"/>
			<path class="st1" d="M159.4,58.7v4.4h-4v-4.4l-6.8-8.2h4.7l4.1,5.1l4.1-5.1h4.7L159.4,58.7z"/>
			<path class="st1" d="M168.2,60.9l-1.2,2.2h-4.4l6.9-12.6h5l6.9,12.6h-4.4l-1.2-2.2H168.2z M169.6,58.2h4.9l-2.4-4.5L169.6,58.2z"
				/>
			<path class="st1" d="M185.8,63h-3.7V50.5h6.4l7.6,9.4l0.1,0.2v-9.5h3.7V63h-6.4l-7.7-9.4l0-0.1V63z"/>
		</g>
	</g>
</g>
</svg>
