<?xml version="1.0" encoding="utf-8"?>
<!-- Generator: Adobe Illustrator 27.8.1, SVG Export Plug-In . SVG Version: 6.00 Build 0)  -->
<svg version="1.1" id="Layer_1" xmlns="http://www.w3.org/2000/svg" xmlns:xlink="http://www.w3.org/1999/xlink" x="0px" y="0px"
	 viewBox="0 0 200 200" style="enable-background:new 0 0 200 200;" xml:space="preserve">
<style type="text/css">
	.st0{fill:#C7C7C7;}
</style>
<g>
	<g>
		<g>
			<g>
				<g>
					<g>
						<path class="st0" d="M44,117.8l-11.1,0l-6.3-14.7l-2.7,0l-4.6,14.7H14l-3-3.2l8.6-29l-3.2-4.2h34.6l-5.3,17.4l-8,4.3L44,117.8
							z M36.3,96.6l2.6-8.2l-10.3,0.1L26,96.7L36.3,96.6z"/>
						<path class="st0" d="M174,85.4l-8.3,26.4l-7.3,6.1l-16.9-0.1l-6.3-4.9l9.7-31.5H179L174,85.4z M163.4,87.6L153,87.7l-7.2,23
							l10.3-0.1L163.4,87.6z"/>
					</g>
					<g>
						<polygon class="st0" points="88.3,81.3 78.4,81.3 73.8,96.4 63.4,96.4 68,81.3 58.1,81.3 46.8,117.8 56.7,117.8 61.4,102.9 
							71.7,102.8 69.2,110.7 79.2,110.7 						"/>
						<polygon class="st0" points="103.8,81.3 93.8,81.3 84.7,110.7 94.6,110.7 						"/>
						<polygon class="st0" points="113.5,99.6 116.6,110.7 130.4,110.7 139.6,81.3 129.6,81.3 124.1,99.1 119.3,81.3 109.3,81.3 
							100.1,110.7 110.1,110.7 						"/>
					</g>
				</g>
			</g>
			<g>
				<path class="st0" d="M64.7,112.8c0.4,0,0.8,0,1.1,0.1c0.3,0.1,0.5,0.2,0.7,0.4c0.2,0.2,0.2,0.4,0.3,0.8c0,0.3,0,0.7-0.2,1.1
					l-0.1,0.3c-0.1,0.5-0.3,0.8-0.5,1.1c-0.2,0.3-0.4,0.6-0.7,0.8c-0.3,0.2-0.6,0.3-0.9,0.4c-0.3,0.1-0.7,0.1-1.2,0.1h-3.6l1.5-5.2
					H64.7z M65.2,115.2c0.1-0.3,0.1-0.5,0.1-0.7c0-0.2,0-0.3-0.1-0.4c-0.1-0.1-0.2-0.2-0.3-0.2c-0.1,0-0.3-0.1-0.6-0.1h-2.1
					l-0.9,3.1h2.1c0.2,0,0.4,0,0.6-0.1c0.2,0,0.3-0.1,0.4-0.2c0.1-0.1,0.2-0.2,0.3-0.4c0.1-0.2,0.2-0.4,0.3-0.7L65.2,115.2z"/>
				<path class="st0" d="M67.1,118l1.5-5.2H70l-1.5,5.2H67.1z"/>
				<path class="st0" d="M75.8,118h-1.4l-0.1-1h-2.4l-0.7,1h-1.4l3.5-5.2h2L75.8,118z M74.1,115.9l-0.1-2.3l-1.5,2.3H74.1z"/>
				<path class="st0" d="M81.5,118h-1.2l-0.8-3.6l-1,3.6H77l1.5-5.2h2l0.9,3.7l3-3.7h2l-1.5,5.2h-1.4l1-3.6L81.5,118z"/>
				<path class="st0" d="M89.5,118.1c-0.4,0-0.8-0.1-1.2-0.2s-0.7-0.3-0.9-0.5c-0.2-0.2-0.4-0.5-0.5-0.9c-0.1-0.3-0.1-0.7,0.1-1.2
					s0.3-0.9,0.6-1.2c0.3-0.3,0.6-0.6,1-0.9c0.4-0.2,0.8-0.4,1.2-0.5s0.8-0.2,1.3-0.2c0.4,0,0.8,0.1,1.2,0.2
					c0.4,0.1,0.7,0.3,0.9,0.5c0.2,0.2,0.4,0.5,0.5,0.9c0.1,0.3,0.1,0.7-0.1,1.2s-0.3,0.9-0.6,1.2c-0.3,0.3-0.6,0.6-1,0.9
					c-0.4,0.2-0.8,0.4-1.2,0.5S89.9,118.1,89.5,118.1z M88.5,115.4c-0.1,0.3-0.1,0.5-0.1,0.7c0,0.2,0.1,0.4,0.2,0.5
					c0.1,0.1,0.3,0.2,0.5,0.3c0.2,0.1,0.4,0.1,0.7,0.1c0.3,0,0.5,0,0.8-0.1c0.2-0.1,0.4-0.1,0.6-0.3c0.2-0.1,0.4-0.3,0.5-0.5
					c0.1-0.2,0.3-0.4,0.3-0.7s0.1-0.5,0.1-0.7c0-0.2-0.1-0.4-0.2-0.5c-0.1-0.1-0.3-0.2-0.5-0.3c-0.2-0.1-0.4-0.1-0.7-0.1
					c-0.3,0-0.5,0-0.8,0.1c-0.2,0.1-0.4,0.1-0.6,0.3c-0.2,0.1-0.4,0.3-0.5,0.5C88.7,114.8,88.5,115.1,88.5,115.4z"/>
				<path class="st0" d="M99.6,116.4l1-3.6h1.5l-1.5,5.2h-1.8l-2.2-3.6l-1,3.6h-1.4l1.5-5.2h1.8L99.6,116.4z"/>
				<path class="st0" d="M107.3,112.8c0.4,0,0.8,0,1.1,0.1c0.3,0.1,0.5,0.2,0.7,0.4c0.2,0.2,0.2,0.4,0.3,0.8c0,0.3,0,0.7-0.2,1.1
					l-0.1,0.3c-0.1,0.5-0.3,0.8-0.5,1.1c-0.2,0.3-0.4,0.6-0.7,0.8c-0.3,0.2-0.6,0.3-0.9,0.4c-0.3,0.1-0.7,0.1-1.2,0.1h-3.6l1.5-5.2
					H107.3z M107.8,115.2c0.1-0.3,0.1-0.5,0.1-0.7c0-0.2,0-0.3-0.1-0.4c-0.1-0.1-0.2-0.2-0.3-0.2c-0.1,0-0.3-0.1-0.6-0.1h-2.1
					l-0.9,3.1h2.1c0.2,0,0.4,0,0.6-0.1c0.2,0,0.3-0.1,0.4-0.2c0.1-0.1,0.2-0.2,0.3-0.4c0.1-0.2,0.2-0.4,0.3-0.7L107.8,115.2z"/>
				<path class="st0" d="M118.3,112.8c0.2,0,0.4,0,0.6,0.1c0.2,0.1,0.3,0.1,0.4,0.3c0.1,0.1,0.2,0.3,0.2,0.4c0,0.2,0,0.4-0.1,0.6
					c0,0.1-0.1,0.2-0.2,0.4c-0.1,0.1-0.2,0.2-0.3,0.3c-0.1,0.1-0.2,0.2-0.3,0.2c-0.1,0.1-0.2,0.1-0.3,0.1c0.2,0,0.3,0.1,0.4,0.2
					c0.1,0.1,0.2,0.2,0.3,0.3c0.1,0.1,0.1,0.2,0.1,0.4c0,0.1,0,0.3,0,0.4c-0.1,0.2-0.2,0.5-0.3,0.7c-0.1,0.2-0.3,0.3-0.5,0.5
					c-0.2,0.1-0.4,0.2-0.6,0.3c-0.2,0.1-0.4,0.1-0.6,0.1h-4.6l1.5-5.2H118.3z M114.7,115.8l-0.3,1.1h2.8c0.1,0,0.1,0,0.2,0
					c0.1,0,0.1,0,0.2-0.1c0.1,0,0.1-0.1,0.2-0.2c0.1-0.1,0.1-0.2,0.2-0.3c0-0.1,0-0.2,0-0.3c0-0.1-0.1-0.1-0.1-0.2
					c-0.1,0-0.1-0.1-0.2-0.1c-0.1,0-0.1,0-0.2,0H114.7z M117.4,114.8c0.1,0,0.1,0,0.2,0c0.1,0,0.1,0,0.2-0.1c0.1,0,0.1-0.1,0.2-0.1
					c0.1-0.1,0.1-0.2,0.1-0.3c0-0.1,0-0.2,0-0.3c0-0.1,0-0.1-0.1-0.1c0,0-0.1,0-0.2-0.1c-0.1,0-0.1,0-0.2,0h-2.5l-0.3,1H117.4z"/>
				<path class="st0" d="M120.1,118l1.5-5.2h1.4l-1.5,5.2H120.1z"/>
				<path class="st0" d="M129.9,112.8l-0.3,1h-2.2l-1.2,4.2h-1.4l1.2-4.2h-2.2l0.3-1H129.9z"/>
			</g>
		</g>
	</g>
	<path class="st0" d="M190.2,77.1l-11.4,10.1l-8.3,29.9l-8.6,5.9H10.5l-5.3-6.4l9-30.1l-6.9-9.4H190.2 M200,73.3h-9.8H7.3H0l4.4,6
		l5.8,7.9l-8.4,28.3l-0.6,1.9l1.3,1.5l5.3,6.4l1.1,1.3h1.7h151.3h1.1l0.9-0.6l8.6-5.9l1.1-0.8l0.4-1.3l8-28.9l10.6-9.3L200,73.3
		L200,73.3z"/>
</g>
</svg>
