<?xml version="1.0" encoding="utf-8"?>
<!-- Generator: Adobe Illustrator 27.8.1, SVG Export Plug-In . SVG Version: 6.00 Build 0)  -->
<svg version="1.1" id="Layer_1" xmlns="http://www.w3.org/2000/svg" xmlns:xlink="http://www.w3.org/1999/xlink" x="0px" y="0px"
	 viewBox="0 0 200 200" style="enable-background:new 0 0 200 200;" xml:space="preserve">
<style type="text/css">
	.st0{fill:#C8C8C8;}
</style>
<g>
	<g>
		<path class="st0" d="M67.9,123.2c-0.5-0.2-0.9-0.7-1.3-1c-0.3-0.3-0.3-0.3-0.1-0.7c0.4-0.8,0.8-1.5,1.2-2.3
			c0.1-0.1,0.1-0.2,0.3-0.1c0.4,0.3,0.8,0.6,1.1,1c0.4,0.6,0.4,1.2,0.1,1.8C68.9,122.5,68.6,123,67.9,123.2
			C68,123.2,68,123.2,67.9,123.2z"/>
		<path class="st0" d="M97.4,84c0-1.5,0-3,0-4.4c0-1,0-2.1,0-3.1c0-2.9,0-5.8-0.1-8.7c0-1.9,0-3.9-0.1-5.8c0-1.8,0-3.7-0.1-5.5
			c0-1.7,0-3.4-0.1-5.1c0-1.9,0-3.9-0.1-5.8c0-0.5,0-1,0-1.5c0.1-0.6,0.3-1,0.8-1.3c1-0.6,1.9-1.2,2.8-1.8c0.1-0.1,0.2-0.1,0.3,0
			c1.2,0.6,2.3,1.2,3.5,1.8c0.4,0.2,0.6,0.5,0.6,0.9c-0.1,1.5-0.1,3.1-0.2,4.6c-0.1,1.3-0.1,2.6-0.1,3.8c-0.1,3.4-0.3,6.9-0.4,10.3
			c-0.1,2.6-0.2,5.2-0.3,7.8c-0.1,3.2-0.2,6.4-0.4,9.6c-0.1,1.4-0.1,2.9-0.1,4.3c0,0.1,0,0.2,0,0.3c0.2-0.1,0.3-0.2,0.4-0.3
			c2.7-2,5.1-4.3,7.1-7c2.5-3.4,4.1-7.3,4.8-11.5c0.3-1.8,0.4-3.5,0.4-5.3c-0.1-2.8-0.5-5.6-1.3-8.3c-0.8-3-1.9-5.8-3.3-8.6
			c-0.1-0.2-0.2-0.4-0.3-0.6c-0.1-0.2-0.1-0.4,0-0.6c0.6,0.6,1.3,1.2,1.8,1.8c3.9,4.2,6.4,9.1,7.5,14.8c0.4,2.2,0.7,4.4,0.6,6.7
			c-0.1,3.6-0.9,7-2.3,10.2c-2.1,4.6-5.3,8.3-9.4,11.1c-0.8,0.5-1.6,1-2.4,1.6c-0.2,0.1-0.2,0.1,0,0.3c0.6,0.4,1.3,0.5,2,0.6
			c2,0.3,4,0.3,6,0.5c1,0.1,2,0.1,3,0.2c0,0,0.1,0,0.1,0.1c-0.7,0.4-1.5,0.7-2.2,0.9c-2,0.7-4.1,0.9-6.2,1c-1.6,0.1-3.2,0-4.8-0.2
			c-0.5-0.1-0.9,0.1-1.3,0.5c-1.1,1.1-2.1,2.2-3.2,3.3c-0.1,0.1-0.2,0.1-0.3,0c-0.6-0.7-1.2-1.5-1.6-2.3c-0.5-0.9-1.4-1.2-2.4-1.1
			c-1.8,0.1-3.7,0.2-5.5-0.1c-2.1-0.3-4.1-0.7-6-1.8c-0.4-0.2-0.7-0.4-1-0.7c0,0-0.1,0-0.1-0.1c0.4-0.1,0.9-0.1,1.4-0.1
			c1.7,0,3.4,0,5.1,0c1.4,0,2.8-0.2,4.2-0.7c0.1,0,0.1,0,0.3-0.1c-0.4-0.3-0.7-0.6-1.1-0.8c-2.8-2-5.3-4.4-7.3-7.2
			c-2.1-2.9-3.5-6.1-4.4-9.6c-0.7-2.8-1.1-5.7-1-8.6c0.1-3.4,0.8-6.6,2.2-9.7c1.2-2.7,2.6-5.1,4.5-7.3c0.9-1.1,2-2.1,3.2-2.9
			c0.1-0.1,0.2-0.2,0.4-0.2c0,0.1,0,0.2-0.1,0.3c-0.8,1.7-1.7,3.3-2.4,5.1c-1,2.5-1.6,5-1.9,7.6c-0.2,1.7-0.3,3.3-0.3,5
			c0.1,5.1,0.9,10,3.1,14.6c0.9,2,2,3.8,3.4,5.5c1.1,1.3,2.5,2.4,4,3.3C97.1,83.8,97.3,83.9,97.4,84z"/>
		<path class="st0" d="M82.1,85.4c-0.4-0.2-0.8-0.4-1.2-0.7c-3.3-2.2-6-5-8-8.4c-2.1-3.8-3.1-7.9-3-12.3c0.2-4.6,1.4-8.8,3.9-12.7
			c2.1-3.3,4.8-6,8.3-7.8c1.6-0.8,3.3-1.5,5-1.9c0.1,0,0.2-0.1,0.3,0c0,0.1-0.1,0.2-0.2,0.2c-1.4,1.5-2.8,3-4.1,4.5
			c-2.9,3.5-5.1,7.4-6.3,11.8c-0.6,2.2-0.9,4.5-0.9,6.7c-0.1,4.6,0.9,8.9,2.6,13.1c0.9,2.2,2,4.4,3.2,6.5C82,84.8,82.1,85,82.1,85.4
			z"/>
		<path class="st0" d="M114.6,42.2c0.7,0.1,1.4,0.3,2,0.5c3.4,1.1,6.4,2.8,8.9,5.4c2.4,2.5,4.1,5.4,5.3,8.7c1,2.8,1.5,5.7,1.4,8.7
			c-0.2,5.9-2.2,11.1-6,15.6c-1.6,1.9-3.4,3.5-5.5,4.8c-0.1,0-0.1,0.1-0.2,0.1c0.1-0.1,0.1-0.2,0.2-0.3c2.1-3.3,3.8-6.9,4.8-10.7
			c0.6-2.3,0.9-4.7,1-7.1c0.1-5-0.8-9.8-2.9-14.4c-1.5-3.3-3.6-6.2-6.2-8.8C116.5,43.9,115.6,43,114.6,42.2z"/>
		<path class="st0" d="M80.2,113.8c0-1.6,0.5-3.2,1.1-4.7c0.5-1.3,1.2-2.6,1.8-3.9c0-0.1,0-0.2,0.2-0.2c0.1,0.1,0.2,0.1,0.1,0.3
			c-0.2,0.9-0.6,1.7-1,2.6c-0.3,0.8-0.7,1.6-1,2.4c-0.2,0.8-0.2,1.7-0.1,2.5c0.2,1.2,1.1,2.2,2.4,2.4c1.8,0.3,3.5-0.1,4.9-1.3
			c0.6-0.5,1.1-1.2,1.4-2c0.2-0.4,0.1-0.7-0.3-0.9c-0.3-0.2-0.5-0.3-0.8-0.5c-1.1-0.6-1.3-1.2-1-2.4c0.3-1.2,1-2.3,1.8-3.2
			c0.5-0.6,1.1-1.1,1.6-1.6c0.1-0.1,0.1-0.2,0-0.3c-0.3-0.4-0.3-0.8-0.1-1.2c0.3-0.4,0.5-0.9,0.7-1.3c0.3-0.5,0.4-0.6,1.1-0.6
			c0.4,0,0.8,0.2,1.2,0.4c0.5,0.4,0.7,0.9,0.5,1.5c-0.3,0.7-0.8,1.3-1.4,1.6c-0.7,0.4-1.4,0.8-2,1.2c-0.8,0.5-1.6,1.2-2.1,2.1
			c-0.1,0.2-0.1,0.2,0.1,0.3c0.4,0.3,0.8,0.5,1.2,0.7c0.6,0.3,0.9,0.8,0.8,1.4c-0.2,2.6-1,5.1-2.8,7.1c-1,1.1-2.1,1.9-3.6,2.1
			c-0.7,0.1-1.4,0.2-2.1,0c-1-0.3-1.6-1-2.1-1.9C80.3,115.6,80.2,114.7,80.2,113.8z"/>
		<path class="st0" d="M108.7,34c0.3,0.6,0.4,1.3,0.4,1.9c0,0.9-0.2,1.8-0.6,2.7c-0.7,1.5-1.9,2.2-3.6,2.2c-1.2-0.1-2.2-0.5-3-1.3
			c-0.2-0.2-0.3-0.4-0.5-0.4c-0.2,0-0.4,0.2-0.5,0.4c-0.6,0.5-1.3,1-2.1,1.2c-1.7,0.4-3.1-0.2-4.2-1.5c-1.4-1.6-1.7-3.4-1.3-5.4
			c0,0,0,0,0-0.1c0.1,0.1,0.2,0.3,0.3,0.4c0.5,0.7,0.9,1.4,1.5,2.1c0.4,0.5,0.8,0.9,1.2,1.3c1.1,0.8,2.2,0.8,3.2,0
			c0.6-0.4,1-1,1.4-1.6c0.1-0.2,0.2-0.5,0.4-0.5c0.2,0,0.3,0.3,0.4,0.5c0.3,0.5,0.7,1,1.2,1.3c1.6,1.1,3.5,0.8,4.7-0.8
			c0.4-0.6,0.7-1.3,1.1-1.9C108.6,34.3,108.7,34.2,108.7,34z"/>
		<path class="st0" d="M54.2,103.7c-0.3,0.8-0.6,1.5-0.9,2.2c-0.3,0.8-0.7,1.7-1,2.5c-0.7,1.8,0.4,3.9,2.6,4.2
			c1.8,0.2,3.5,0,5.1-1.1c1.2-0.8,2-2,2.6-3.3c0.2-0.5,0.2-1,0.3-1.5c0.1-0.8,0.1-1.7,0.2-2.5c0.1-1.3,0.6-2.4,1.3-3.4
			c0,0,0.1-0.1,0.1-0.1c0.1,0,0.1,0.1,0.1,0.2c0,0.3-0.1,0.5-0.1,0.8c-0.1,1.3-0.2,2.7-0.4,4c-0.4,2.8-1.4,5.3-3.4,7.4
			c-0.9,1-2,1.9-3.3,2.3c-1.1,0.4-2.3,0.5-3.4,0.3c-1.2-0.2-2.1-1-2.6-2.1c-0.5-1.2-0.5-2.3-0.3-3.6c0.3-1.8,1.1-3.4,2-5
			c0.2-0.3,0.4-0.7,0.6-1C53.8,103.8,53.8,103.8,54.2,103.7z"/>
		<path class="st0" d="M107.4,106.5c0.1,1.2-0.3,2.1-1.2,2.8c-0.4,0.3-0.8,0.7-1.2,0.9c-0.3,0.2-0.5,0.3-0.9,0.3
			c-0.5,0-0.9,0.3-1.2,0.6c-0.4,0.4-0.6,0.8-1,1.2c-0.8,0.7-1.5,0.9-2.4,0.4c-0.2-0.1-0.2,0-0.2,0.1c-0.3,0.9-0.7,1.9-1.2,2.7
			c-0.3,0.5-0.6,0.9-1.1,1.3c-0.7,0.6-1.4,0.6-2.1,0.2c-0.4-0.2-0.7-0.5-0.9-0.8c-0.1-0.1-0.1-0.2,0-0.2c0.1-0.2,0.2-0.4,0.3-0.5
			c0.6-0.9,0.7-1.9,0.8-3c0.1-0.9,0-1.7,0-2.6c0.1-1.8,0.5-3.5,1.1-5.2c0.1-0.2,0.2-0.4,0.4-0.5c0,0.3,0,0.6,0,0.9
			c-0.1,1.7-0.2,3.4-0.3,5.1c-0.1,1.8-0.5,3.4-1.3,5c-0.1,0.3-0.1,0.3,0.2,0.2c1.9-0.1,3.1-1.3,3.2-3.2c0.1-1.2,0-2.4,0-3.6
			c-0.1-1.9,0.2-3.8,1-5.6c0.1-0.2,0.2-0.4,0.3-0.7c0.1-0.1,0.1-0.2,0.3-0.2c0,0.4,0,0.7,0,1c-0.1,1.6-0.2,3.2-0.2,4.9
			c0,1,0.6,1.8,1.5,2c0.7,0.2,1.3,0,1.9-0.4c0.3-0.2,0.6-0.5,1-0.6c0.2-0.1,0.5-0.2,0.7-0.2c0.6,0,1.1-0.3,1.3-0.8
			c0.1-0.2,0.2-0.3,0.4-0.3c0.3-0.1,0.5-0.3,0.7-0.6C107.2,106.9,107.3,106.7,107.4,106.5z"/>
		<path class="st0" d="M74.6,106.6c-0.2,1.3-0.4,2.6-1.6,3.4c-0.2,0.1-0.4,0.2-0.6,0.3c-1,0.4-1.7,1.1-2.1,2.1
			c-0.2,0.6-0.5,1.1-0.7,1.7c-0.4,0.9-1.1,1.5-2.1,1.7c-0.8,0.2-1.5,0.3-2.3,0.2c-0.1,0-0.1,0-0.2,0c0,0,0,0-0.1,0
			c0.4-0.3,0.7-0.5,1.1-0.8c0.8-0.5,1.5-1,2.3-1.5c0.7-0.5,1.3-1.2,1.6-2c0.3-0.7,0.6-1.5,1.1-2.2c0.4-0.5,0.8-0.9,1.4-1.1
			c0.9-0.4,1.6-0.9,2.1-1.7C74.5,106.7,74.5,106.7,74.6,106.6z"/>
		<path class="st0" d="M68.8,100.8c-0.1,0.6-0.1,1.2-0.2,1.8c-0.2,1.5-0.3,3-0.6,4.5c-0.3,1.6-1,3-2.1,4.2c-0.1,0.1-0.1,0.1-0.2,0.2
			c0,0-0.1,0-0.1,0.1c0.3-0.8,0.4-1.6,0.6-2.4c0.3-1.4,0.5-2.7,0.8-4.1C67.2,103.5,67.9,102.1,68.8,100.8
			C68.7,100.8,68.8,100.8,68.8,100.8z"/>
		<path class="st0" d="M77.7,102.4c0.1,0.6,0,1.1-0.1,1.6c-0.2,1.6-0.4,3.1-0.6,4.7c-0.2,1.1-0.6,2.2-1.2,3.2
			c-0.2,0.4-0.5,0.8-0.7,1.2c-0.1,0.1-0.1,0.2-0.3,0.1c-0.2-0.1-0.1-0.2-0.1-0.3c0.3-1.4,0.7-2.8,1-4.1c0.2-0.7,0.2-1.5,0.3-2.2
			c0.2-1.3,0.8-2.4,1.4-3.5C77.5,102.8,77.6,102.7,77.7,102.4z"/>
		<path class="st0" d="M107.7,113c0-0.4,0.1-0.8,0.2-1.1c0.5-1.7,0.8-3.4,1-5.2c0.1-1.2,0.6-2.3,1.2-3.4c0.2-0.3,0.4-0.6,0.7-0.9
			c-0.1,0.8-0.2,1.6-0.3,2.4c-0.2,1.4-0.3,2.7-0.6,4.1C109.6,110.3,108.8,111.7,107.7,113z"/>
		<path class="st0" d="M59.7,105.4c0,0.8-0.3,1.4-0.8,1.8c-0.6,0.5-0.6,0.5-1.2,0.1c-0.4-0.3-0.7-0.5-1.1-0.8
			c-0.1-0.1-0.1-0.1-0.1-0.3c0.3-0.9,0.8-1.8,1.4-2.6c0.1-0.1,0.2-0.1,0.3-0.1c0.3,0.2,0.7,0.4,1,0.6
			C59.5,104.6,59.7,105.1,59.7,105.4z"/>
		<path class="st0" d="M72.7,120.9c0,0.6-0.3,1.1-0.6,1.6c-0.2,0.2-0.4,0.4-0.6,0.6c-0.1,0.1-0.1,0.1-0.2,0c-0.5-0.4-1-0.8-1.5-1.2
			c-0.1-0.1-0.1-0.1,0-0.2c0.4-0.8,0.9-1.7,1.3-2.5c0-0.1,0.1-0.1,0.2-0.1c0.5,0.2,1,0.4,1.3,0.9C72.6,120.2,72.7,120.6,72.7,120.9z
			"/>
		<g>
			<path class="st0" d="M128.5,100.5c0.1,0.5,0,1-0.2,1.5c-0.2,0.5-0.5,1-0.7,1.5c0,0.1-0.1,0.1-0.2,0.1c-0.7-0.2-1.4,0-2,0.4
				c-0.9,0.7-1.7,1.4-2.4,2.3c-0.1,0.1-0.1,0.2-0.2,0.4c-0.1,0.2,0,0.4,0.1,0.6c0.1,0.1,0.2,0.2,0.4,0.3c0.1,0.1,0.2,0.1,0.4,0.2
				c0.9,0.4,1.2,1,1.1,1.9c-0.2,1.6-0.5,3.2-1.2,4.7c-0.8,1.6-1.8,2.9-3.4,3.8c-1.1,0.6-2.3,0.8-3.5,0.6c-1.5-0.2-2.6-1.4-2.8-3
				c-0.2-1.6-0.1-3.2,0.6-4.7c0.9-1.9,1.7-3.7,2.5-5.6c0.1-0.2,0.3-0.3,0.5-0.5c0,0.5-0.1,0.8-0.2,1.2c-0.6,1.5-1.3,3.1-1.9,4.6
				c-0.3,0.7-0.5,1.4-0.5,2.1c0,1.2,0.7,2.2,1.9,2.5c1.4,0.3,2.9,0.3,4.2-0.4c1.2-0.6,2.2-1.5,2.7-2.8c0-0.1,0.1-0.2,0.1-0.3
				c0.1-0.3,0-0.5-0.3-0.6c-0.2-0.1-0.4-0.2-0.6-0.3c-0.1,0-0.3-0.1-0.4-0.1c-1.1-0.5-1.5-1.1-1.1-2.2c1-3.3,3-5.8,6-7.6
				c0.3-0.2,0.7-0.3,1.1-0.5C128.4,100.5,128.4,100.5,128.5,100.5z"/>
			<path class="st0" d="M139.1,108.9c0.8-1.2,1.7-2.4,2.5-3.7c0.7-1.3,1.7-2.2,3.1-2.7c0.4-0.1,0.7-0.3,1.2-0.5
				c-0.5-0.2-0.9-0.3-1.4-0.3c-1-0.2-1.9,0-2.6,0.7c0.2-1.1,1.3-2.1,2.5-2.1c1.1,0,2.2,0.3,3.3,0.6c0.5,0.2,0.6,0.6,0.3,1
				c-0.3,0.4-0.7,0.7-1.2,0.9c-0.8,0.4-1.7,0.7-2.6,1c-0.5,0.2-1,0.4-1.3,0.9c-0.1,0.2-0.1,0.2,0,0.4c0.3,0.4,0.7,0.7,1,1.1
				c0.5,0.7,0.3,1.6-0.4,2.1c-0.2,0.1-0.5,0.2-0.8,0.1c-0.5-0.1-0.9-0.1-1.4,0c-0.9,0.2-1.4,0.7-1.8,1.5c-0.4,0.7-0.6,1.4-0.9,2.1
				c-0.2,0.4-0.4,0.8-0.8,1.1c0.1-0.5,0.1-0.9,0.2-1.3c0-0.3,0.1-0.6,0-0.9c-0.1-0.5-0.4-0.8-0.9-0.8c-0.5-0.1-0.8,0-1.2,0.4
				c-0.3,0.4-0.7,0.8-1.1,1.3c-0.3,0.4-0.4,0.8-0.6,1.2c-0.6,1.4-1.4,2.8-2.9,3.3c-0.9,0.3-1.9,0.4-2.9,0.7c0-0.1,0.1-0.2,0.2-0.2
				c0.8-0.6,1.6-1,2.4-1.6c0.8-0.5,1.5-1.2,2.1-1.9c0-0.1,0.1-0.1,0.1-0.2c0-0.1-0.1,0-0.2-0.1c-0.4,0-0.7,0-1.1-0.1
				c-0.2-0.1-0.4-0.2-0.6-0.3c-0.4-0.3-0.5-0.7-0.3-1.1c0.3-0.6,0.6-1.2,0.9-1.8c0.2-0.3,0.4-0.6,0.7-0.8c0.4-0.3,0.9-0.3,1.3,0
				c0.4,0.3,0.6,0.7,0.7,1.2c0.1,0.5,0.2,0.5,0.5,0.1c0.4-0.4,0.7-0.8,1.1-1.2c0.2-0.2,0.4-0.4,0.6-0.6c0.6-0.4,1.2-0.4,1.7,0.1
				C138.6,108.5,138.8,108.7,139.1,108.9z"/>
			<path class="st0" d="M129.5,108.5c0.2,0.2,0.3,0.4,0.2,0.7c-0.4,1.4-0.7,2.9-1,4.3c-0.4,1.7-1.5,2.7-3.1,3.1
				c-0.6,0.2-1.2,0.3-1.9,0.5c0.2-0.3,0.3-0.7,0.6-0.9c0.7-0.6,1.5-1.1,2.1-1.7c1-0.9,1.8-2.1,2.2-3.4
				C128.9,110.2,129.2,109.4,129.5,108.5z"/>
			<path class="st0" d="M140.6,120.7c0,0.7-0.3,1.3-0.7,1.7c-0.2,0.2-0.4,0.5-0.6,0.5c-0.3,0-0.4-0.3-0.6-0.5
				c-0.3-0.2-0.6-0.5-0.9-0.8c-0.1-0.1-0.1-0.2-0.1-0.3c0.4-0.8,0.8-1.6,1.3-2.4c0.1-0.1,0.1-0.2,0.3-0.1c0.2,0.1,0.5,0.2,0.7,0.4
				C140.3,119.6,140.6,120.1,140.6,120.7z"/>
		</g>
	</g>
	<g>
		<path class="st0" d="M24.9,146.8c0,0,0,0.1,0,0.1c0,0.1,0,0.3-0.1,0.5c-0.1,0.4-0.3,0.9-0.6,1.5c-0.3,0.6-0.6,1.2-1,1.7
			c-0.4,0.5-0.8,1-1.4,1.4c-0.8,0.5-1.6,1-2.5,1.4c-0.9,0.4-2,0.8-3.3,1.1c-1.3,0.3-2.7,0.6-4.1,0.8c-1.5,0.2-2.9,0.3-4.3,0.3
			c-1.6,0-2.9-0.1-3.7-0.2c-1.4-0.2-2.4-0.6-3-1.3c-0.5-0.5-0.8-1.1-0.8-2c0-0.3,0-0.8,0.1-1.4c0.1-0.6,0.1-1.2,0.3-1.8
			c0-0.3,0.1-0.5,0.1-0.7c0-0.1,0.1-0.3,0.1-0.3s0.1-0.1,0.1-0.2c0.1,0,0.1,0,0.2,0.1c0,0.1,0.1,0.2,0.1,0.4c0,0.2,0.1,0.4,0.1,0.7
			c0.1,0.6,0.5,1,1.2,1.3c1.6,0.7,4,1,7.3,1.1c1.1,0,2.4-0.1,3.8-0.2c1.4-0.1,2.8-0.3,4.2-0.6c1.4-0.3,2.6-0.7,3.6-1.1
			c1-0.4,1.6-0.8,2.1-1c0.4-0.3,0.8-0.6,1.1-1c0.2-0.3,0.4-0.5,0.4-0.5C24.8,146.8,24.8,146.8,24.9,146.8
			C24.9,146.8,24.9,146.8,24.9,146.8z M11.4,140.5c0,0.1,0.1,0.2,0.1,0.4c0,0.1,0,0.3-0.1,0.4c-0.1,0.3-0.2,0.5-0.4,0.8
			c-0.2,0.2-0.3,0.4-0.5,0.6c-0.2,0.2-0.3,0.4-0.5,0.6c-0.1,0.1-0.2,0.2-0.3,0.3c-0.1,0.1-0.2,0.1-0.2,0.1c-0.1,0-0.1,0-0.2,0
			c0,0-0.1,0-0.1-0.1c-0.3-0.2-0.6-0.5-0.9-0.8c-0.3-0.2-0.6-0.5-1-0.7c0-0.1-0.1-0.1-0.1-0.1c0,0,0-0.1,0.1-0.1l2-3.1
			c0.1-0.1,0.1-0.1,0.2-0.1c0.1,0,0.1,0,0.2,0.1c0.2,0.1,0.4,0.2,0.5,0.3c0.2,0.1,0.3,0.3,0.5,0.4c0.1,0.2,0.3,0.3,0.4,0.5
			C11.2,140.1,11.3,140.3,11.4,140.5z M15.4,140.3c0,0.1,0.1,0.2,0.1,0.4c0,0.1,0,0.3-0.1,0.4c-0.1,0.3-0.2,0.5-0.4,0.8
			c-0.2,0.2-0.3,0.4-0.5,0.6c-0.2,0.2-0.3,0.4-0.5,0.6c-0.1,0.1-0.2,0.2-0.3,0.3c-0.1,0.1-0.2,0.1-0.2,0.1c0,0-0.1,0-0.1,0
			c0,0-0.1,0-0.1,0c0,0-0.1,0-0.1-0.1c-0.3-0.2-0.6-0.5-0.9-0.8c-0.3-0.2-0.6-0.5-1-0.7c0-0.1-0.1-0.1-0.1-0.1c0,0,0-0.1,0.1-0.1
			l2-3.1c0.1-0.1,0.1-0.1,0.2-0.1c0.1,0,0.1,0,0.2,0.1c0.2,0.1,0.4,0.2,0.5,0.3c0.2,0.1,0.3,0.3,0.5,0.4c0.1,0.2,0.3,0.3,0.4,0.5
			C15.3,139.9,15.4,140.1,15.4,140.3z"/>
		<path class="st0" d="M30.6,144.6c-0.4,2.3-0.7,4.1-1,5.2c-0.3,1.1-0.6,2-0.8,2.6c-0.2,0.6-0.5,1.1-0.8,1.4
			c-0.3,0.3-0.8,0.6-1.6,0.9c-0.8,0.3-1.4,0.5-2,0.6c-0.5,0.1-0.9,0.2-1,0.2c-0.1,0-0.2,0-0.3-0.1c0,0,0,0,0,0c0-0.1,0-0.1,0.1-0.2
			c0.2-0.2,0.5-0.6,1.1-1c0.5-0.4,1.2-0.9,1.9-1.5c0.7-0.6,1.3-1.2,1.6-1.6c0.4-0.5,0.7-1.1,1-1.9c0.3-0.8,0.5-1.7,0.8-2.6
			c0.3-0.9,0.5-1.5,0.6-1.8c0.1-0.3,0.2-0.5,0.4-0.5c0.1,0,0.2,0.1,0.2,0.2C30.6,144.5,30.6,144.5,30.6,144.6z"/>
		<path class="st0" d="M33.4,148c-0.1,0.9-0.3,1.6-0.6,2.3c-0.3,0.6-0.7,0.9-1.1,0.9c0-0.3,0.1-1.4,0.3-3.1c0.2-1.7,0.4-3,0.5-3.8
			c0.1-0.8,0.2-1.6,0.4-2.4c0.1-0.8,0.3-1.5,0.4-2.1c0.1-0.4,0.3-0.9,0.5-1.3c0.2-0.4,0.4-0.9,0.5-1.3c0.1-0.1,0.1-0.1,0.1-0.1
			c0.1,0,0.1,0.1,0.1,0.2c-0.2,1.5-0.4,3-0.6,4.6c-0.2,1.6-0.3,2.7-0.4,3.4c-0.1,0.7-0.1,1.1-0.1,1.2
			C33.4,147.2,33.4,147.7,33.4,148z"/>
		<path class="st0" d="M37.4,146.1c0.1,0.2,0.2,0.4,0.2,0.6c0,0.2-0.1,0.4-0.2,0.6c0,0-0.1,0.1-0.2,0.2c-0.1,0.1-0.1,0.2-0.1,0.2
			c0,0,0,0,0.1,0c0.1,0,0.1,0,0.2,0c0.2,0,0.4,0,0.6-0.1c0.2,0,0.5-0.1,0.8-0.2c0.3-0.1,0.6-0.1,0.9-0.2c0.3-0.1,0.6-0.1,0.9-0.2
			c0.3-0.1,0.6-0.1,0.8-0.2c0.1,0,0.3-0.1,0.4-0.1c0,0,0.1,0,0.1,0c0.1,0,0.2,0.1,0.2,0.2c0,0,0,0.1,0,0.1c0,0.1,0,0.1,0,0.2
			c0,0.1-0.1,0.3-0.2,0.5c0,0.1-0.1,0.3-0.2,0.4s-0.2,0.3-0.3,0.4c-0.2,0.4-0.5,0.8-0.7,1.3c-0.3,0.5-0.5,1-0.8,1.5
			c-0.3,0.5-0.6,1-0.9,1.4c-0.3,0.5-0.7,0.9-1.1,1.3c-0.4,0.4-0.8,0.7-1.3,0.9c-0.4,0.2-0.9,0.4-1.5,0.5c-0.6,0-1,0-1.4-0.2
			c-0.4-0.1-0.7-0.3-1-0.5c-0.3-0.2-0.5-0.5-0.6-0.8c-0.2-0.3-0.3-0.6-0.4-0.9c-0.1-0.3-0.1-0.7-0.2-1c0-0.3-0.1-0.6-0.1-0.9
			c0-0.2,0-0.4,0.1-0.6c0.1-0.2,0.2-0.5,0.3-0.7c0.1-0.3,0.2-0.5,0.4-0.8c0.1-0.2,0.3-0.5,0.4-0.6c0.1-0.2,0.2-0.3,0.3-0.4
			c0.1,0,0.1-0.1,0.2-0.1c0,0,0.1,0,0.1,0c0,0.5,0.1,1,0.2,1.4c0.1,0.4,0.3,0.8,0.5,1.1c0.2,0.3,0.5,0.5,0.9,0.6
			c0.2,0.1,0.5,0.1,0.8,0.1c0.2,0,0.4,0,0.6,0c0.4,0,0.7-0.1,1.1-0.2c0.4-0.1,0.7-0.3,1-0.5c0.3-0.2,0.6-0.4,0.9-0.7
			c0.3-0.3,0.5-0.5,0.7-0.9c0-0.1,0.1-0.1,0.1-0.1c0-0.1,0-0.1-0.1-0.1c-0.3,0.1-0.5,0.2-0.9,0.2c-0.3,0.1-0.7,0.1-1,0.2
			c-0.3,0-0.7,0.1-1,0.1c-0.3,0-0.6,0-0.8,0c-0.1,0-0.2,0-0.3,0c-0.1,0-0.1-0.1-0.1-0.1s0-0.1,0-0.2c0-0.1,0-0.1,0-0.2
			c0.1-0.4,0.3-0.9,0.6-1.4C36.8,146.9,37.1,146.5,37.4,146.1z M37.2,163.1c0,0.1,0,0.2,0,0.3c0,0.1,0,0.3-0.1,0.4
			c-0.1,0.3-0.2,0.6-0.4,0.9c-0.1,0.2-0.3,0.4-0.4,0.6c-0.2,0.2-0.4,0.4-0.5,0.6c-0.1,0.1-0.2,0.2-0.3,0.3c-0.1,0.1-0.2,0.1-0.2,0.1
			c0,0-0.1,0-0.1,0c0,0,0,0-0.1,0c0,0-0.1,0-0.1-0.1c-0.3-0.3-0.6-0.5-0.9-0.8c-0.3-0.3-0.6-0.5-1-0.7c0,0-0.1-0.1-0.1-0.1
			c0,0,0-0.1,0.1-0.2l2.1-3.2c0.1-0.1,0.1-0.1,0.2-0.1c0.1,0,0.1,0,0.2,0.1c0.2,0.1,0.4,0.2,0.5,0.4c0.2,0.1,0.3,0.3,0.5,0.4
			c0.2,0.2,0.3,0.3,0.4,0.5C37.1,162.7,37.2,162.9,37.2,163.1z"/>
		<path class="st0" d="M37.4,147.4c-0.1-0.2-0.1-0.4-0.1-0.6c0,0,0-0.1,0-0.1c0-0.2,0.1-0.4,0.2-0.5c0.3-0.4,0.9-0.9,1.7-1.5
			s1.7-1.3,2.8-2c1.1-0.7,2.1-1.2,3.1-1.7c1-0.5,1.9-1,2.8-1.6c0.1-0.1,0.1-0.1,0.2-0.1c0,0,0,0,0,0c0,0,0,0,0,0.1c0,0,0,0.1,0,0.1
			c-0.2,0.4-0.5,0.9-0.8,1.3c-0.3,0.4-0.6,0.8-1,1.3c-0.3,0.3-0.5,0.5-0.8,0.7c-0.3,0.2-0.7,0.4-1.2,0.6c-1.3,0.6-2.6,1.3-4,2
			C39,146,38,146.7,37.4,147.4z M44.3,128.6c0,0.1,0.1,0.2,0.1,0.4c0,0.1,0,0.3-0.1,0.4c-0.1,0.3-0.2,0.5-0.4,0.8
			c-0.1,0.2-0.3,0.4-0.5,0.6c-0.2,0.2-0.3,0.4-0.5,0.6c-0.1,0.1-0.2,0.2-0.3,0.3c-0.1,0.1-0.2,0.1-0.2,0.1c0,0-0.1,0-0.1,0
			s-0.1,0-0.1,0c0,0-0.1,0-0.1-0.1c-0.3-0.2-0.6-0.5-0.9-0.8c-0.3-0.2-0.6-0.5-1-0.7c0-0.1-0.1-0.1-0.1-0.1c0,0,0-0.1,0.1-0.1l2-3.1
			c0.1-0.1,0.1-0.1,0.2-0.1c0.1,0,0.1,0,0.2,0.1c0.2,0.1,0.4,0.2,0.5,0.3c0.2,0.1,0.3,0.3,0.5,0.4s0.3,0.3,0.4,0.5
			C44.2,128.2,44.3,128.4,44.3,128.6z M48.4,128.3c0,0.1,0.1,0.2,0.1,0.4c0,0.1,0,0.3-0.1,0.4c-0.1,0.3-0.2,0.5-0.4,0.8
			c-0.1,0.2-0.3,0.4-0.5,0.6c-0.2,0.2-0.3,0.4-0.5,0.6c-0.1,0.1-0.2,0.2-0.3,0.3c-0.1,0.1-0.2,0.1-0.2,0.1c0,0-0.1,0-0.1,0
			c0,0-0.1,0-0.1,0c0,0-0.1,0-0.1-0.1c-0.3-0.2-0.6-0.5-0.9-0.8c-0.3-0.2-0.6-0.5-1-0.7c0-0.1-0.1-0.1-0.1-0.1c0,0,0-0.1,0.1-0.1
			l2-3.1c0.1-0.1,0.1-0.1,0.2-0.1c0.1,0,0.1,0,0.2,0.1c0.2,0.1,0.4,0.2,0.5,0.3c0.2,0.1,0.3,0.3,0.5,0.4s0.3,0.3,0.4,0.5
			C48.2,127.9,48.3,128.1,48.4,128.3z"/>
		<path class="st0" d="M52.5,150.4c-0.5,1.3-1,2.2-1.3,2.8c-0.4,0.6-0.7,0.9-0.9,1.1c-0.3,0.2-0.6,0.4-1.1,0.5
			c-0.5,0.2-1,0.3-1.5,0.4c-0.5,0.1-0.9,0.2-1.2,0.2c-0.1,0-0.2,0-0.2,0c0,0,0,0,0,0c0-0.1,0.4-0.4,1.1-0.9c0.8-0.5,1.5-1,2-1.4
			c0.5-0.4,1-0.9,1.4-1.4c0.4-0.5,0.7-1,0.9-1.5c-0.1,0-0.2,0.1-0.4,0.1c-0.1,0-0.3,0.1-0.4,0.1c-0.2,0-0.3,0-0.4,0
			c-0.1,0-0.3,0-0.4,0c-0.5,0-0.9-0.2-1.3-0.5c-0.3-0.3-0.5-0.7-0.5-1.1c0-0.2,0.1-0.5,0.2-0.8s0.3-0.8,0.6-1.4
			c0.3-0.6,0.6-1.2,1-1.6c0.4-0.4,0.7-0.6,1-0.6c0.5,0,1,0.2,1.4,0.7c0.4,0.5,0.6,1,0.6,1.7c0,0.1,0,0.3,0,0.4c0,0.2,0,0.4,0,0.6
			c0,0.3-0.1,0.6-0.1,0.8c0,0.2-0.1,0.5-0.2,0.8C52.7,149.8,52.6,150.1,52.5,150.4z"/>
		<path class="st0" d="M72.8,145.6c0,0.2,0,0.4-0.1,0.7c-0.3,2.8-0.8,5.4-1.7,7.6c-0.6,1.5-1.3,2.9-2.2,4.2
			c-2.1,2.9-4.7,4.3-7.7,4.3c-1.4-0.1-2.7-0.6-3.6-1.5c-1-0.9-1.5-2.2-1.6-3.9c0-2.7,0.8-5.7,2.5-8.9l0.5-1c0.1,0,0.1,0.1,0.1,0.3
			s-0.1,0.6-0.3,1c-0.2,0.5-0.4,1-0.6,1.5c-0.2,0.5-0.4,1-0.5,1.5c-0.1,0.5-0.3,1-0.3,1.5c-0.1,0.4-0.1,0.7-0.1,1.1
			c0,0.1,0,0.2,0,0.3c0.2,1.3,0.7,2.3,1.7,2.9c1,0.6,2.1,1,3.4,1c1.7,0,3.4-0.4,5-1.4c1.2-0.8,2.1-1.8,2.8-3c1-1.4,1.5-3.2,1.5-5.5
			c0-0.3,0-0.7,0-1.1c0-0.6,0.1-1.1,0.2-1.6c0.1-0.5,0.5-1.5,1.1-3.1c0.1-0.4,0.2-0.6,0.3-0.7c0.1,0,0.1-0.1,0.1-0.1c0,0,0,0,0.1,0
			c0,0,0,0.1,0,0.1c0,0.1,0,0.2,0,0.3l-0.2,1.4L72.8,145.6z M66.8,148.6c0,0.1,0,0.2,0,0.3c0,0.1,0,0.3-0.1,0.4
			c-0.1,0.3-0.2,0.6-0.4,0.9c-0.1,0.1-0.1,0.2-0.2,0.3c-0.1,0.1-0.2,0.2-0.3,0.3c-0.1,0.1-0.2,0.2-0.3,0.3c-0.1,0.1-0.2,0.2-0.3,0.3
			c-0.1,0.1-0.2,0.2-0.3,0.3c-0.1,0.1-0.2,0.1-0.2,0.1c0,0-0.1,0-0.1,0s-0.1,0-0.1,0c0,0-0.1,0-0.1-0.1c-0.3-0.3-0.6-0.5-1-0.8
			c-0.3-0.3-0.7-0.5-1-0.8c0,0-0.1-0.1-0.1-0.1c0,0,0-0.1,0.1-0.2l2.1-3.3c0.1-0.1,0.1-0.1,0.2-0.1c0.1,0,0.1,0,0.2,0.1
			c0.4,0.2,0.7,0.5,1.1,0.8C66.4,147.9,66.7,148.2,66.8,148.6z"/>
		<path class="st0" d="M76.6,154.1c-0.6,0.8-1.3,1.3-2.1,1.5c-0.8,0.2-1.7,0.4-2.6,0.5c-0.2,0-0.3,0-0.4,0c0,0,0,0,0,0
			c0-0.1,0.1-0.2,0.3-0.3c1.1-0.6,2-1.3,2.9-1.9c0.9-0.6,1.6-1.3,2.1-2c0.6-0.7,1.1-1.5,1.5-2.5c0.5-1,0.9-1.8,1.3-2.7
			c0.1-0.1,0.2-0.2,0.3-0.2c0,0,0,0,0.1,0c0.1,0,0.1,0.1,0.1,0.2c0,0.1,0,0.2-0.1,0.3c-0.4,0.8-0.5,1.5-0.6,2v0
			c-0.1,0.2-0.1,0.4-0.2,0.4c-0.3,0.7-0.6,1.4-1,2C77.5,152.9,76.9,153.7,76.6,154.1z"/>
		<path class="st0" d="M87.8,150.1c0.1,0,0.2,0.1,0.2,0.3c0,0.2,0,0.3,0,0.5c0,0.2,0,0.4-0.1,0.5c0,0.2-0.1,0.3-0.1,0.3
			c-0.2,0.1-0.3,0.3-0.5,0.4c-0.2,0.1-0.4,0.3-0.6,0.4c-0.2,0.1-0.4,0.2-0.6,0.2c-0.1,0-0.2,0-0.2,0c-0.2,0-0.3,0-0.5-0.1
			c-0.9,0.9-1.7,1.7-2.4,2.1c-0.7,0.5-1.4,0.7-2.2,0.7c-0.5,0-0.9-0.1-1.2-0.3c-0.3-0.2-0.6-0.4-0.8-0.6s-0.4-0.5-0.5-0.8
			c-0.1-0.3-0.2-0.6-0.3-0.9c-0.1-0.3-0.1-0.6-0.1-0.9c0-0.3,0-0.5,0-0.8c0.1-0.3,0.2-0.7,0.3-1c0.1-0.4,0.2-0.7,0.4-1
			c0.1-0.3,0.3-0.6,0.5-0.8c0.2-0.2,0.3-0.3,0.5-0.4c0,0.7,0.1,1.3,0.3,1.8c0.2,0.5,0.6,0.9,1,1.1c0.4,0.3,0.9,0.4,1.4,0.4
			c0.6,0,1.1-0.1,1.7-0.3c0-0.1,0-0.2,0-0.4c0-0.1,0-0.3-0.1-0.4c0-0.1-0.1-0.3-0.2-0.4c-0.1-0.1-0.2-0.2-0.3-0.2
			c-0.1,0-0.3-0.1-0.4-0.1c-0.2,0-0.5,0-0.8,0.1c-0.1,0-0.2,0-0.2-0.1c0,0,0,0,0-0.1c0-0.1,0-0.2,0.1-0.3c0.2-0.3,0.5-0.6,0.8-0.8
			c0.3-0.3,0.7-0.5,1.1-0.7c0.4-0.2,0.8-0.3,1.3-0.3c0.5,0,1,0.1,1.5,0.4c0.5,0.3,0.8,0.6,0.8,1c0,0.1,0,0.3-0.1,0.4
			c-0.1,0.3-0.2,0.5-0.4,0.8c-0.2,0.3-0.4,0.5-0.6,0.8c0.1,0,0.2,0,0.3-0.1c0.1,0,0.3-0.1,0.4-0.1s0.3-0.1,0.4-0.2
			C87.6,150.3,87.7,150.2,87.8,150.1z"/>
		<path class="st0" d="M91.4,145.6c0.2-0.3,0.4-0.6,0.6-0.9c0.2-0.3,0.4-0.5,0.5-0.8c0.1-0.1,0.1-0.1,0.2-0.1c0.1,0,0.1,0,0.2,0.1
			c0.3,0.3,0.6,0.7,0.9,1.1c0.3,0.4,0.4,0.7,0.5,1.1c0,0.1,0,0.3,0,0.4c0,0.2,0,0.5-0.1,0.8c-0.1,0.4-0.5,0.8-0.9,1.2
			c-0.3,0.2-0.6,0.4-1,0.4c-0.2,0-0.4,0-0.7-0.1c-0.1,0-0.3-0.1-0.4-0.1c-0.2,0-0.5,0.1-0.7,0.2c-0.3,0.2-0.6,0.4-1,0.8
			c-0.1,0.1-0.2,0.3-0.4,0.5c-0.2,0.2-0.3,0.4-0.5,0.6c-0.2,0.2-0.3,0.4-0.5,0.6c-0.2,0.2-0.3,0.4-0.4,0.5c-0.1-0.3-0.1-0.5-0.1-0.8
			c0-0.3,0-0.6,0.1-0.8c0.1-0.2,0.3-0.4,0.5-0.8c0.2-0.4,0.5-0.8,0.8-1.3C89.8,146.9,90.6,146.1,91.4,145.6z"/>
		<path class="st0" d="M100.3,152.8c0.6,0.6,0.9,1,0.9,1.3c0,0.3,0,0.5-0.1,0.8c-0.1,0.3-0.2,0.5-0.3,0.7c-0.1,0.2-0.3,0.4-0.5,0.5
			c-0.2,0.1-0.4,0.2-0.7,0.2c-0.9,0-1.4-0.7-1.4-2.2c0-0.9,0.5-2.6,1.5-5.1c1-2.6,1.8-3.8,2.4-3.8c0,0,0.1,0,0.1,0
			c-0.3,0.5-0.7,1-1,1.6c-0.3,0.6-0.6,1.3-0.8,1.9c-0.3,0.6-0.5,1.2-0.6,1.8c-0.2,0.6-0.3,1.1-0.4,1.4L100.3,152.8z"/>
		<path class="st0" d="M111.6,155.5c-0.2,0-0.3,0-0.5,0c-1.6,0-2.9-0.1-3.7-0.2c-1.4-0.2-2.4-0.6-3-1.3c-0.5-0.5-0.8-1.1-0.8-2
			c0-0.3,0-0.8,0.1-1.4c0.1-0.6,0.1-1.2,0.3-1.8c0-0.3,0.1-0.5,0.1-0.7c0-0.1,0.1-0.3,0.1-0.3s0.1-0.1,0.1-0.2c0.1,0,0.1,0,0.2,0.1
			c0,0.1,0.1,0.2,0.1,0.4c0,0.2,0.1,0.4,0.1,0.7c0.1,0.6,0.5,1,1.2,1.3c1.6,0.7,4,1,7.2,1.1c0.3,0,0.6,0,0.8,0c0.7,0,1.4,0,2.1-0.1
			c1,0,2-0.1,2.9-0.2c1-0.1,1.9-0.2,2.8-0.4c0.9-0.2,1.7-0.3,2.5-0.5c1.4-0.4,2.5-0.7,3.4-1.1c0.9-0.4,1.5-0.8,1.8-1.3
			c0.1-0.1,0.1-0.2,0.2-0.2c0.1,0,0.2-0.1,0.2,0c0.1,0,0.1,0,0.2,0.1c0,0,0,0.1,0,0.1c0,0,0,0.1,0,0.1l-0.2,0.5c0.1,0,0.2,0,0.3,0
			c0.1,0,0.2,0,0.3,0c0.1,0.3,0.2,0.6,0.2,0.9s-0.1,0.6-0.2,0.8c-0.2-0.1-0.4-0.1-0.6-0.1c-0.2,0-0.3,0-0.4,0c-0.1,0-0.2,0-0.3,0
			c-0.1,0-0.1,0.1-0.2,0.1c0,0,0,0-0.1,0c0,0-0.1,0.1-0.1,0.1c0,0.1-0.1,0.1-0.2,0.2c-0.1,0.1-0.2,0.2-0.3,0.4
			c-0.5,0.7-1.1,1.4-1.8,1.9c-0.7,0.5-1.5,0.9-2.4,1.3c-0.8,0.3-1.7,0.6-2.6,0.8c-0.9,0.2-1.7,0.3-2.5,0.5c-0.4,0.1-0.9,0.1-1.5,0.2
			c-0.6,0.1-1.2,0.1-1.9,0.2c-0.7,0.1-1.3,0.1-2,0.2C112.8,155.5,112.2,155.5,111.6,155.5z M115.7,140.2c0,0.1,0.1,0.2,0.1,0.4
			c0,0.1,0,0.3-0.1,0.4c-0.1,0.3-0.2,0.5-0.4,0.8c-0.2,0.2-0.3,0.4-0.5,0.6c-0.2,0.2-0.3,0.4-0.5,0.6c-0.1,0.1-0.2,0.2-0.3,0.3
			c-0.1,0.1-0.2,0.1-0.2,0.1c-0.1,0-0.1,0-0.2,0c0,0-0.1,0-0.1-0.1c-0.3-0.2-0.6-0.5-0.9-0.8c-0.3-0.2-0.6-0.5-1-0.7
			c0-0.1-0.1-0.1-0.1-0.1c0,0,0-0.1,0.1-0.1l2-3.1c0.1-0.1,0.1-0.1,0.2-0.1c0.1,0,0.1,0,0.2,0.1c0.2,0.1,0.4,0.2,0.5,0.3
			c0.2,0.1,0.3,0.3,0.5,0.4c0.1,0.2,0.3,0.3,0.4,0.5C115.6,139.8,115.6,140,115.7,140.2z M119.7,140c0,0.1,0.1,0.2,0.1,0.4
			c0,0.1,0,0.3-0.1,0.4c-0.1,0.3-0.2,0.5-0.4,0.8c-0.2,0.2-0.3,0.4-0.5,0.6c-0.2,0.2-0.3,0.4-0.5,0.6c-0.1,0.1-0.2,0.2-0.3,0.3
			c-0.1,0.1-0.2,0.1-0.2,0.1c0,0-0.1,0-0.1,0c0,0-0.1,0-0.1,0c0,0-0.1,0-0.1-0.1c-0.3-0.2-0.6-0.5-0.9-0.8c-0.3-0.2-0.6-0.5-1-0.7
			c0-0.1-0.1-0.1-0.1-0.1c0,0,0-0.1,0.1-0.1l2-3.1c0.1-0.1,0.1-0.1,0.2-0.1c0.1,0,0.1,0,0.2,0.1c0.2,0.1,0.4,0.2,0.5,0.3
			c0.2,0.1,0.3,0.3,0.5,0.4c0.1,0.1,0.3,0.3,0.4,0.5C119.6,139.6,119.7,139.7,119.7,140z"/>
		<path class="st0" d="M138.4,146.9c-0.4,0.4-0.7,0.6-1,0.7c-0.3,0.1-0.7,0.2-0.9,0.2c-0.1,0-0.3,0-0.4,0c-0.4-0.1-0.7-0.2-1.1-0.2
			c-0.1,0-0.3,0.1-0.6,0.3c-0.7,0.6-1.2,1-1.4,1.1c-0.4,0.3-0.6,0.6-0.8,0.6c-0.4,0.3-0.8,0.5-1.1,0.5l-0.8-0.2
			c-0.2-0.3-0.3-0.6-0.3-0.9c0-0.3,0.1-0.6,0.3-0.8c0.4-0.1,1-0.2,1.7-0.5c0.6-0.2,1-0.5,1.3-0.7c0.5-0.3,0.8-0.7,0.8-1
			c-0.1-0.7-0.4-1.1-1-1.1l-0.6,0.1c0,0-0.1,0-0.1,0c-0.1,0-0.1,0-0.2-0.1c0,0-0.1-0.1-0.1-0.2c0,0,0-0.1,0-0.1
			c0.2-0.6,0.6-1,1.3-1.4c0.7-0.4,1.3-0.6,1.8-0.6c0.4,0,0.8,0.1,1.4,0.2c0.6,0.1,0.8,0.5,0.8,1c0,0.4-0.1,0.7-0.3,1
			c-0.2,0.3-0.3,0.5-0.3,0.6c0,0.1,0,0.1,0,0.1c0,0,0.1,0.1,0.1,0.1c0.3,0,0.7-0.1,1.2-0.4c0,0.1,0.1,0.2,0.1,0.4
			c0,0.2,0.1,0.3,0.1,0.4c0,0.2,0,0.4,0,0.5C138.6,146.6,138.5,146.8,138.4,146.9z"/>
		<path class="st0" d="M142,130.3c0,0.1,0,0.2,0,0.3c0,0.1,0,0.3-0.1,0.4c-0.1,0.3-0.2,0.6-0.4,0.9c-0.1,0.2-0.3,0.4-0.4,0.6
			c-0.2,0.2-0.4,0.4-0.5,0.6c-0.1,0.1-0.2,0.2-0.3,0.3c-0.1,0.1-0.2,0.1-0.2,0.1c0,0-0.1,0-0.1,0c0,0,0,0-0.1,0c0,0-0.1,0-0.1-0.1
			c-0.3-0.3-0.6-0.5-0.9-0.8c-0.3-0.3-0.6-0.5-1-0.7c0,0-0.1-0.1-0.1-0.1c0,0,0-0.1,0.1-0.2l2.1-3.2c0.1-0.1,0.1-0.1,0.2-0.1
			s0.1,0,0.2,0.1c0.2,0.1,0.4,0.2,0.5,0.4c0.2,0.1,0.3,0.3,0.5,0.4c0.2,0.2,0.3,0.3,0.4,0.5C141.9,130,142,130.2,142,130.3z
			 M141,145.1c-0.3,0-0.7,0.2-1.1,0.6l-1.4,1.2c-0.1-0.3-0.2-0.6-0.2-0.8c0-0.3,0-0.6,0.2-0.8c0.2-0.1,0.5-0.3,0.7-0.5
			c0.2-0.1,0.3-0.3,0.5-0.5l0.2-0.2c0.2,0,0.3,0.1,0.4,0.1c0.1,0,0.2,0.1,0.4,0.2c0.1,0.1,0.2,0.3,0.3,0.5L141,145.1z"/>
		<path class="st0" d="M139.8,144c0.3-0.4,0.6-0.7,0.9-0.9c0.5-0.4,0.9-0.6,1.2-0.6c0.2,0,0.4,0.1,0.7,0.2c0.2,0.1,0.4,0.2,0.6,0.3
			c0.1,0,0.5-0.3,1-1.1c0.3-0.5,0.6-0.9,0.8-1.1c0.3-0.4,0.7-0.6,1-0.6c0.1,0,0.3,0.1,0.8,0.2c0.5,0.1,0.8,0.2,1,0.2
			c0.1,0,0.3-0.3,0.8-0.9c0.3-0.4,0.6-0.8,0.8-1.2c0.3-0.4,0.6-0.8,0.9-1.2c0.4-0.5,0.9-1,1.5-1.5c0.6-0.5,1.2-0.7,1.9-0.7
			c0.6,0,1,0.1,1.2,0.4c0.3,0.3,0.4,0.7,0.4,1.2c-0.1,0.5-0.1,0.9-0.2,1.3c-0.1,0.5-0.4,1-0.6,1.5c-0.4,0.7-0.7,1.3-1,1.7
			c-0.4,0.6-0.9,1.1-1.5,1.6c-0.6,0.5-1.3,0.9-1.9,1.2c-0.6,0.3-1.3,0.4-2,0.4c-0.6,0-1.1,0-1.4-0.1c-0.4-0.1-0.8-0.3-1.1-0.6
			c-0.3-0.3-0.6-0.5-0.6-0.7c-0.1,0.1-0.2,0.2-0.2,0.3c-0.2,0.2-0.3,0.4-0.4,0.5c-0.1,0.2-0.2,0.3-0.3,0.4c-0.2,0.3-0.5,0.5-0.6,0.7
			c-0.4,0.4-0.8,0.6-1.2,0.6c-0.1,0-0.2-0.1-0.5-0.2c-0.3-0.1-0.5-0.2-0.7-0.2c-0.4,0-0.6-0.2-0.8-0.3
			C140,144.6,139.9,144.3,139.8,144z M153.9,138.1c0-0.1-0.2-0.2-0.5-0.3c-0.4-0.1-0.6-0.2-0.8-0.2c-0.5,0-0.9,0.1-1.3,0.4
			c-0.4,0.3-0.8,0.6-1.1,1c-0.3,0.4-0.5,0.6-0.6,0.8c-0.3,0.4-0.5,0.7-0.6,0.9c0.2,0,0.5,0,1-0.1s1.1-0.3,1.6-0.5
			c0.6-0.2,1.1-0.5,1.5-0.8C153.6,138.8,153.9,138.4,153.9,138.1z"/>
		<path class="st0" d="M177.2,146.8c0,0,0,0.1,0,0.1c0,0.1,0,0.3-0.1,0.5c-0.1,0.4-0.3,0.9-0.6,1.5c-0.3,0.6-0.6,1.2-1,1.7
			s-0.8,1-1.4,1.4c-0.8,0.5-1.6,1-2.5,1.4s-2,0.8-3.3,1.1c-1.3,0.3-2.7,0.6-4.1,0.8c-1.5,0.2-2.9,0.3-4.3,0.3
			c-1.6,0-2.9-0.1-3.7-0.2c-1.4-0.2-2.4-0.6-3-1.3c-0.5-0.5-0.8-1.1-0.8-2c0-0.3,0-0.8,0.1-1.4c0.1-0.6,0.1-1.2,0.3-1.8
			c0-0.3,0.1-0.5,0.1-0.7c0-0.1,0.1-0.3,0.1-0.3c0-0.1,0.1-0.1,0.1-0.2c0.1,0,0.1,0,0.2,0.1c0,0.1,0.1,0.2,0.1,0.4
			c0,0.2,0.1,0.4,0.1,0.7c0.1,0.6,0.5,1,1.2,1.3c1.6,0.7,4,1,7.3,1.1c1.1,0,2.4-0.1,3.8-0.2c1.4-0.1,2.8-0.3,4.2-0.6
			c1.4-0.3,2.6-0.7,3.6-1.1c1-0.4,1.6-0.8,2.1-1c0.4-0.3,0.8-0.6,1.1-1c0.2-0.3,0.4-0.5,0.4-0.5
			C177.1,146.8,177.1,146.8,177.2,146.8C177.2,146.8,177.2,146.8,177.2,146.8z M163.7,140.5c0,0.1,0.1,0.2,0.1,0.4
			c0,0.1,0,0.3-0.1,0.4c-0.1,0.3-0.2,0.5-0.4,0.8c-0.2,0.2-0.3,0.4-0.5,0.6c-0.2,0.2-0.3,0.4-0.5,0.6c-0.1,0.1-0.2,0.2-0.3,0.3
			c-0.1,0.1-0.2,0.1-0.2,0.1c-0.1,0-0.1,0-0.2,0c0,0-0.1,0-0.1-0.1c-0.3-0.2-0.6-0.5-0.9-0.8c-0.3-0.2-0.6-0.5-1-0.7
			c0-0.1-0.1-0.1-0.1-0.1c0,0,0-0.1,0.1-0.1l2-3.1c0.1-0.1,0.1-0.1,0.2-0.1c0.1,0,0.1,0,0.2,0.1c0.2,0.1,0.4,0.2,0.5,0.3
			c0.2,0.1,0.3,0.3,0.5,0.4c0.1,0.2,0.3,0.3,0.4,0.5C163.6,140.1,163.6,140.3,163.7,140.5z M167.7,140.3c0,0.1,0.1,0.2,0.1,0.4
			c0,0.1,0,0.3-0.1,0.4c-0.1,0.3-0.2,0.5-0.4,0.8c-0.2,0.2-0.3,0.4-0.5,0.6c-0.2,0.2-0.3,0.4-0.5,0.6c-0.1,0.1-0.2,0.2-0.3,0.3
			c-0.1,0.1-0.2,0.1-0.2,0.1c0,0-0.1,0-0.1,0c0,0-0.1,0-0.1,0c0,0-0.1,0-0.1-0.1c-0.3-0.2-0.6-0.5-0.9-0.8c-0.3-0.2-0.6-0.5-1-0.7
			c0-0.1-0.1-0.1-0.1-0.1c0,0,0-0.1,0.1-0.1l2-3.1c0.1-0.1,0.1-0.1,0.2-0.1c0.1,0,0.1,0,0.2,0.1c0.2,0.1,0.4,0.2,0.5,0.3
			c0.2,0.1,0.3,0.3,0.5,0.4c0.1,0.2,0.3,0.3,0.4,0.5C167.6,139.9,167.7,140.1,167.7,140.3z"/>
		<path class="st0" d="M182.9,144.6c-0.4,2.3-0.7,4.1-1,5.2c-0.3,1.1-0.6,2-0.8,2.6c-0.2,0.6-0.5,1.1-0.8,1.4
			c-0.3,0.3-0.8,0.6-1.6,0.9c-0.8,0.3-1.4,0.5-2,0.6c-0.5,0.1-0.9,0.2-1,0.2c-0.1,0-0.2,0-0.3-0.1c0,0,0,0,0,0c0-0.1,0-0.1,0.1-0.2
			c0.2-0.2,0.5-0.6,1.1-1c0.5-0.4,1.2-0.9,1.9-1.5c0.7-0.6,1.3-1.2,1.6-1.6c0.4-0.5,0.7-1.1,1-1.9c0.3-0.8,0.5-1.7,0.8-2.6
			c0.3-0.9,0.5-1.5,0.6-1.8c0.1-0.3,0.2-0.5,0.4-0.5c0.1,0,0.2,0.1,0.2,0.2C182.9,144.5,182.9,144.5,182.9,144.6z"/>
		<path class="st0" d="M187.8,138.9c0.1-0.3,0.2-0.4,0.3-0.4c0.1,0,0.1,0,0.1,0.1c0,0,0,0.1,0,0.1c-0.1,1-0.2,1.6-0.3,2
			c-0.1,0.5-0.1,0.8-0.1,1.1c0,0.3-0.1,0.6-0.1,0.8c0,0.3,0,0.5-0.1,0.7c0,0.2,0,0.5-0.1,0.8c-0.1,1.4-0.4,2.5-0.7,3.4
			c-0.3,0.9-0.7,1.7-1.1,2.5c-0.4,0.8-0.7,1.1-1,1.2c0,0,0,0,0-0.1c0-0.1,0-0.2,0.1-0.4c0.1-0.3,0.2-0.7,0.3-1.1
			c0.1-0.4,0.2-0.9,0.3-1.4c0.1-0.5,0.2-1,0.2-1.6c0.1-0.5,0.1-1.1,0.2-1.5c0-0.3,0.1-0.8,0.2-1.4c0.1-0.6,0.2-1.2,0.4-1.6
			L187.8,138.9z"/>
		<path class="st0" d="M193.7,144.6c-0.4,2.3-0.7,4.1-1,5.2c-0.3,1.1-0.6,2-0.8,2.6c-0.2,0.6-0.5,1.1-0.8,1.4
			c-0.3,0.3-0.8,0.6-1.6,0.9c-0.8,0.3-1.4,0.5-2,0.6c-0.5,0.1-0.9,0.2-1,0.2c-0.1,0-0.2,0-0.3-0.1c0,0,0,0,0,0c0-0.1,0-0.1,0.1-0.2
			c0.2-0.2,0.5-0.6,1.1-1c0.5-0.4,1.2-0.9,1.9-1.5c0.7-0.6,1.3-1.2,1.6-1.6c0.4-0.5,0.7-1.1,1-1.9c0.3-0.8,0.5-1.7,0.8-2.6
			c0.3-0.9,0.5-1.5,0.6-1.8c0.1-0.3,0.2-0.5,0.4-0.5c0.1,0,0.2,0.1,0.2,0.2C193.7,144.5,193.7,144.5,193.7,144.6z M194.6,137.3
			c0,0.1,0,0.2,0,0.3c0,0.1,0,0.3-0.1,0.4c-0.1,0.3-0.2,0.6-0.4,0.9c-0.1,0.2-0.3,0.4-0.4,0.6c-0.2,0.2-0.4,0.4-0.5,0.6
			c-0.1,0.1-0.2,0.2-0.3,0.3c-0.1,0.1-0.2,0.1-0.2,0.1c0,0-0.1,0-0.1,0c0,0,0,0-0.1,0c0,0-0.1,0-0.1-0.1c-0.3-0.3-0.6-0.5-0.9-0.8
			c-0.3-0.3-0.6-0.5-1-0.7c0,0-0.1-0.1-0.1-0.1c0,0,0-0.1,0.1-0.2l2.1-3.2c0.1-0.1,0.1-0.1,0.2-0.1s0.1,0,0.2,0.1
			c0.2,0.1,0.4,0.2,0.5,0.4c0.2,0.1,0.3,0.3,0.5,0.4c0.2,0.2,0.3,0.3,0.4,0.5C194.4,136.9,194.5,137.1,194.6,137.3z"/>
		<path class="st0" d="M199.3,150.4c-0.5,1.3-1,2.2-1.3,2.8c-0.4,0.6-0.7,0.9-0.9,1.1c-0.3,0.2-0.6,0.4-1.1,0.5
			c-0.5,0.2-1,0.3-1.5,0.4c-0.5,0.1-0.9,0.2-1.2,0.2c-0.1,0-0.2,0-0.2,0c0,0,0,0,0,0c0-0.1,0.4-0.4,1.1-0.9c0.8-0.5,1.5-1,2-1.4
			c0.5-0.4,1-0.9,1.4-1.4c0.4-0.5,0.7-1,0.9-1.5c-0.1,0-0.2,0.1-0.4,0.1c-0.1,0-0.3,0.1-0.4,0.1c-0.2,0-0.3,0-0.4,0
			c-0.1,0-0.3,0-0.4,0c-0.5,0-0.9-0.2-1.3-0.5c-0.3-0.3-0.5-0.7-0.5-1.1c0-0.2,0.1-0.5,0.2-0.8s0.3-0.8,0.6-1.4
			c0.3-0.6,0.6-1.2,1-1.6c0.4-0.4,0.7-0.6,1-0.6c0.5,0,1,0.2,1.4,0.7c0.4,0.5,0.6,1,0.6,1.7c0,0.1,0,0.3,0,0.4c0,0.2,0,0.4,0,0.6
			c0,0.3-0.1,0.6-0.1,0.8c0,0.2-0.1,0.5-0.2,0.8C199.5,149.8,199.4,150.1,199.3,150.4z"/>
	</g>
</g>
</svg>
