<?xml version="1.0" encoding="utf-8"?>
<!-- Generator: Adobe Illustrator 27.8.1, SVG Export Plug-In . SVG Version: 6.00 Build 0)  -->
<svg version="1.1" id="Layer_1" xmlns="http://www.w3.org/2000/svg" xmlns:xlink="http://www.w3.org/1999/xlink" x="0px" y="0px"
	 viewBox="0 0 200 200" style="enable-background:new 0 0 200 200;" xml:space="preserve">
<style type="text/css">
	.st0{fill:#C7C7C7;}
</style>
<g>
	<path class="st0" d="M23.1,98.8c0-1.5,0.5-2.6,1.5-3.6c3.1-3.2,6.3-6.3,9.4-9.4c9.8-9.8,19.7-19.7,29.5-29.5
		c9.6-9.6,19.2-19.2,28.9-28.8c1-1,1.9-1.8,3.3-2.1c2.4-0.5,4.3,0,6,1.7c4.8,4.8,9.5,9.5,14.3,14.3c9.7,9.7,19.4,19.4,29.1,29.1
		c8.2,8.2,16.4,16.5,24.6,24.6c2.3,2.3,1.9,5.9,0,7.8c-1.1,1.1-2.5,1.7-4,1.9c-1.3,0.2-2.4-0.4-3.4-1.2c-0.3-0.3-0.7-0.6-1-0.9
		c-2.1-2-4.1-4-6.2-6.1c-2.7-2.8-5.6-5.5-8.3-8.2c-1.6-1.7-3.4-3.3-5-5c-1.1-1.2-2.3-2.3-3.5-3.5c-2.2-2.2-4.4-4.4-6.6-6.6
		c-1.7-1.8-3.6-3.5-5.3-5.3c-3.4-3.3-6.7-6.7-10.1-10c-2.6-2.7-5.2-5.4-7.9-8c-2.3-2.2-4.6-4.4-6.8-6.8c-2.5-2.7-6.9-2.4-9.4,0.1
		C79.5,56.2,66.3,69.3,53.2,82.4c-5.5,5.5-11,11-16.5,16.4c-1.4,1.4-2.8,2.8-4.3,4.2c-3,3-7.3,1.3-8.8-1.8
		C23.4,100.4,23,99.6,23.1,98.8z"/>
	<path class="st0" d="M134.2,115.8c-2.6,0-5.1,0-7.7,0c-1,0-1,0-1.1-1c-0.4-5.6-2.4-10.6-5.8-15c-2.5-3.2-5.5-5.8-9.1-7.7
		c-3.2-1.7-6.6-2.7-10.2-3.2c-4.8-0.6-9.5,0.2-13.9,1.9c-4.1,1.6-7.6,4.3-10.6,7.6c-2.1,2.4-3.8,5-5,8c-0.8,2-1.5,4.1-1.7,6.3
		c0,0.4-0.1,0.9-0.2,1.3c-0.1,0.5,0.2,1.2-0.3,1.5c-0.5,0.3-1.1,0.1-1.6,0.1c-4.7,0-9.4,0-14.1,0c-0.3,0-0.6,0-0.9,0
		c-0.3,0-0.5-0.2-0.5-0.5c0-0.1,0-0.3,0-0.4c0-2.5,0-5,0-7.5c0-0.9,0-0.9,0.9-0.9c2.1,0,4.2,0,6.3,0c0.4,0,0.7,0,1.1,0
		c0.4,0,0.6-0.2,0.7-0.6c1-3.4,2.5-6.5,4.4-9.4c1.4-2.2,3.2-4.2,5-6.2c0.8-0.9,0.9-0.9,0.3-1.9c-1.2-2-2.4-4-3.6-6.1
		c-0.5-0.8-0.5-1,0.4-1.5c4.2-2.4,8.3-4.8,12.4-7.2c0.8-0.5,1.6-1,2.5-1.4c0.8-0.4,0.9-0.4,1.3,0.3c1.2,2,2.3,4,3.4,6
		c0.1,0.2,0.2,0.4,0.4,0.7c0.5,0.9,0.6,1,1.6,0.7c2.4-0.7,4.9-0.8,7.4-1c2.3-0.2,4.6,0.1,6.8,0.4c1.1,0.1,2.3,0.3,3.4,0.6
		c0.7,0.2,1-0.1,1.3-0.6c0.8-1.4,1.6-2.8,2.4-4.2c0.5-0.9,1-1.7,1.5-2.6c0.5-0.8,0.6-0.8,1.4-0.4c3.1,1.8,6.1,3.5,9.2,5.3
		c1.9,1.1,3.7,2.2,5.6,3.3c0.9,0.6,0.9,0.6,0.4,1.5c-1.1,1.9-2.3,3.9-3.4,5.8c-0.1,0.1-0.2,0.3-0.2,0.4c-0.6,1.1-0.6,1.1,0.3,2
		c4.2,4.3,7.2,9.3,9.1,15c0.3,1,0.3,1,1.3,1c2.3,0,4.5,0,6.8,0c1,0,1,0,1,1c0,2.5,0,5,0,7.5c0,0.8,0,0.8-0.8,0.8
		C139.4,115.8,136.8,115.8,134.2,115.8z"/>
	<path class="st0" d="M118.9,154.5c0-0.9-0.1-1.9,0.3-2.8c0-0.1,0.1-0.3,0.2-0.3c0.2,0,0.3,0.1,0.3,0.3c-0.1,1.3,0.7,1.9,1.7,2.3
		c1.4,0.5,2.8,0.7,4.2,0.8c2.4,0.1,4.8,0.2,7.2,0c4.3-0.3,8.5-1,12.1-3.8c0.3-0.3,0.5-0.2,0.7,0.1c0.2,0.5,0.6,0.5,1,0.4
		c1.2-0.4,2.4-0.7,3.4-1.5c0.5-0.4,0.8-0.8,0.7-1.4c-0.1-0.6-0.5-1-1.1-1c-0.2,0-0.5,0-0.6-0.3c0-0.3,0.2-0.5,0.3-0.6
		c1.2-1.2,2.7-1.3,4.2-1c0.4,0.1,0.6,0.4,0.7,0.9c0,0.4,0,0.7-0.2,1c-0.2,0.3-0.4,0.7,0,0.9c0.3,0.2,0.7,0.1,1,0
		c0.7-0.3,1.2-0.9,1.7-1.4c0.5-0.5,0.9-0.9,1.4-1.4c0.5-0.4,1-0.6,1.6-0.2c0.8,0.4,1.1,0.3,1.6-0.4c0.4-0.5,0.7-1,1-1.5
		c0.5-0.7,1.1-0.9,1.9-0.6c1.1,0.4,1.3,0.3,2-0.7c0.7-1,1.5-2,2.2-3c0.7-1,1.6-1.6,2.7-2c1.4-0.4,2.1,0.1,2.2,1.5
		c0,0.7-0.1,1.4-0.4,2c-1,2.1-2,4-4.1,5.1c-2.1,1.1-4.2,1.6-6.2-0.2c-0.3-0.3-0.6-0.1-0.8,0.1c-0.4,0.5-0.9,0.9-1.3,1.4
		c-0.5,0.7-1.2,0.9-2,0.6c-0.7-0.3-1.3,0-1.8,0.4c-0.7,0.5-1.3,1.1-1.9,1.7c-0.7,0.6-1.4,0.9-2.3,0.6c-0.8-0.3-1.5-0.1-2.2,0.5
		c-0.5,0.5-1.1,0.9-1.6,1.3c-0.8,0.7-1.7,1-2.6,0.4c-0.9-0.5-1.4-0.2-1.9,0.5c-1.3,1.7-3.1,2.7-4.9,3.6c-1.7,0.8-3.5,1.3-5.3,1.6
		c-3.3,0.6-6.6,0.9-10,0.6c-0.9-0.1-1.8-0.1-2.7-0.3c-1.6-0.3-2.4-1.3-2.4-3C118.8,155.3,118.9,154.9,118.9,154.5z M167.2,143.1
		c1.7-0.3,3.3-1,4.6-2.2c0.4-0.3,0.2-0.8-0.3-1.1c-0.8-0.5-1.9-0.4-2.8,0.3c-0.8,0.6-1.4,1.4-2,2.2c-0.1,0.2-0.2,0.4-0.1,0.5
		C166.8,143,167,143.1,167.2,143.1z"/>
	<path class="st0" d="M26.3,150.1c-0.7,2.4-1.6,4.6-3.9,5.9c-2,1.1-4.2,1.9-6.4,2.3c-2.8,0.6-5.7,0.9-8.6,0.9
		c-1.6,0-3.2-0.2-4.7-0.5c-2.1-0.4-3-1.8-2.7-3.9c0-0.2,0-0.5,0.1-0.7c0.1-0.9,0.3-1.9,0.4-2.8c0-0.1,0.1-0.3,0.3-0.3
		c0.2,0,0.2,0.2,0.2,0.3c-0.1,1.7,0.9,2.4,2.4,2.8c1.6,0.4,3.2,0.8,4.9,0.8c1.3,0,2.6,0,3.9,0c2.9,0,5.6-0.5,8.4-1.2
		c0.9-0.2,1.7-0.6,2.5-0.9C24.2,152.1,25.5,151.3,26.3,150.1z"/>
	<path class="st0" d="M91.2,149.9c0.1,0.9-0.3,1.5-0.3,2.3c0.1,2.8,2.3,3.3,4.2,2.8c0.5-0.1,0.9-0.5,0.9-1.1c0-0.5-0.3-0.8-0.8-1
		c-0.1-0.1-0.3-0.1-0.4-0.2c-0.3-0.1-0.8,0.2-0.9-0.2c-0.1-0.4,0.3-0.7,0.6-1c0.8-0.8,1.9-1.1,3-1.3c0.5-0.1,1,0.1,1.4,0.3
		c0.7,0.3,0.9,0.9,0.6,1.6c-0.1,0.4-0.4,0.7-0.5,1.1c-0.1,0.2-0.2,0.5,0,0.7c0.2,0.3,0.5,0.3,0.8,0.2c0.5-0.2,1-0.4,1.4-0.8
		c0.5-0.6,1.1-1.2,1.5-1.9c0.5-1.2,1.3-2.1,2.2-3c0.2-0.2,0.4-0.4,0.5-0.5c0.3-0.3,0.5-0.9,0.7-0.9c0.5,0.1,0.7,0.6,1,1
		c0.7,1.1,0.5,2.5-0.6,3.3c-0.5,0.3-0.9,0.4-1.4,0.2c-1-0.4-1.7,0.1-2.3,0.9c-0.6,0.8-1.2,1.6-1.9,2.3c-0.7,0.8-1.5,1.3-2.6,1.1
		c-0.8-0.1-1.3,0.2-1.8,0.8c-0.8,0.9-1.7,1.7-2.8,2.1c-1.7,0.6-3.2,0-3.9-1.7c-0.2-0.4-0.2-1-0.6-1.1c-0.6-0.1-0.7,0.6-1,1
		c-0.9,1.7-2.6,2-4.3,2.5c-0.6,0.1-1.2,0.2-1.7,0.3c0.3-0.6,0.9-0.8,1.4-1.1c1.6-1.1,3.3-2.1,4.5-3.7c0.8-1,1.4-2.2,2-3.3
		C90.3,151.1,90.6,150.5,91.2,149.9z"/>
	<path class="st0" d="M82.7,145.9c0,1.5,0.2,3.1-0.1,4.6c-0.2,1.3-0.2,2.6-0.5,3.8c-0.9,3.6-2.3,6.9-5,9.5c-1.6,1.6-3.6,2.5-5.8,2.8
		c-3.2,0.4-6-1.7-6.2-5.1c-0.2-3.4,0.8-6.4,2.3-9.3c0.2-0.4,0.4-0.9,1-1.4c-0.4,1-0.8,1.7-1.1,2.4c-0.6,1.5-1.1,3.1-1.1,4.8
		c0,2.3,1.7,3.8,3.4,4.2c2.8,0.7,5.5,0.1,7.9-1.6c2.4-1.7,3.5-4,3.7-6.8c0-0.7,0-1.5,0-2.2C81.1,149.5,81.9,147.7,82.7,145.9z"/>
	<path class="st0" d="M54.9,142.5c-0.8,1.8-1.8,3.1-3.5,3.8c-2.1,0.9-4.1,1.9-5.9,3.2c-0.4,0.3-0.8,0.7-1.2,1.1
		c-0.2,0.2-0.2,0.5,0,0.7c0.1,0.2,0.3,0.2,0.5,0.2c1.3-0.2,2.7-0.4,4-0.6c0.2,0,0.4-0.1,0.5,0c0.2,0.2,0.1,0.5-0.1,0.7
		c-1.7,2-2.8,4.4-4.7,6.1c-0.9,0.8-1.8,1.3-2.9,1.5c-1.9,0.4-3.3-0.7-3.8-2.7c-0.3-1.1-0.3-2.2-0.1-3.4c0.3-1.5,0.2-3,0.4-4.5
		c0.4-2.8,0.8-5.6,2-8.4c0.2,1.3-0.1,2.5-0.2,3.6c-0.2,1.6-0.5,3.2-0.6,4.9c0,0.4,0,0.9-0.1,1.3c-0.3,1.1,0,2.2,0.2,3.3
		c0.2,1.1,1.3,1.8,2.4,1.9c1.7,0.1,3.2-0.1,4.5-1.2c0.3-0.2,0.5-0.5,0.7-0.8c0.3-0.4,0.1-0.8-0.4-0.8c-0.7,0-1.5,0-2.2,0.1
		c-0.3,0-0.7,0-1,0c-0.6-0.1-0.8-0.4-0.4-0.9c0.4-0.6,0.7-1.2,1.2-1.7c2.2-2.2,4.8-4,7.5-5.7C52.5,143.5,53.5,142.9,54.9,142.5z"/>
	<path class="st0" d="M189.5,140.4c0,0.6,0,1.1-0.1,1.7c-0.3,2.3-0.6,4.6-0.8,7c-0.1,0.9-0.1,1.8-0.1,2.7c0,1.1,0.5,2,1.5,2.6
		c0.9,0.6,1.5,0.5,2.1-0.4c0.4-0.6,0.7-1.2,1.1-1.8c0.4-0.7,0.9-1.3,1.4-2c0.9-1,1.9-1.6,3.3-1c0.4,0.2,0.9,0.2,1.3,0.3
		c0.3,0.1,0.8-0.2,1,0.2c0.2,0.4-0.2,0.9-0.5,1.2c-1.4,1.6-2.4,3.6-3.7,5.3c-1.3,1.8-3,3-5.4,2.9c-1.1-0.1-2.1-0.5-2.8-1.5
		c-0.7-1.1-1-2.3-0.9-3.7c0.2-2.3,0.4-4.7,0.7-7C187.9,144.7,188.3,142.4,189.5,140.4z M193.2,154.8c2-0.2,3.3-1.4,4.5-2.8
		c0.4-0.5,0.1-0.9-0.5-1.1c-1.5-0.5-2.3-0.2-3.2,1c-0.5,0.7-0.9,1.4-1.3,2.1c-0.1,0.2-0.2,0.4-0.2,0.5
		C192.6,154.8,192.9,154.8,193.2,154.8z"/>
	<path class="st0" d="M55,159c0.5-0.8,1.2-1,1.8-1.5c0.7-0.5,1.4-1,2.1-1.4c1-0.7,1.6-1.6,2-2.7c0.2-0.5,0-0.7-0.5-0.5
		c-0.4,0.1-0.8,0.2-1.2,0.1c-0.7-0.1-1.3-0.8-1.1-1.5c0.3-1.4,1-2.7,1.8-3.9c0.8-1,1.7-0.9,2.4,0.2c0.5,0.8,0.5,1.7,0.4,2.6
		c-0.4,2.2-1.1,4.2-2.3,6.1c-0.3,0.5-0.7,0.8-1.2,1.1C57.8,158.2,56.4,158.6,55,159z"/>
	<path class="st0" d="M175.8,160.2c0.6-1.7,1.5-3,2.7-4.1c0.7-0.7,1.5-1.1,2.6-0.9c0,0,0.1,0,0.1,0c1.5,0.2,2.7-0.1,3.3-1.6
		c0-0.1,0.1-0.3,0.3-0.1c0.1,0.1,0.1,0.2,0.1,0.3c-0.5,1.4-1,2.7-2,3.8c-1,1.2-2.1,1.9-3.8,1.5c-0.9-0.2-1.8,0-2.5,0.6
		C176.3,159.8,176,160,175.8,160.2z"/>
	<path class="st0" d="M55.9,129.8c-0.1,1.1-0.8,1.9-1.5,2.6c-0.2,0.2-0.4,0-0.7-0.1c-0.5-0.3-0.7-1.2-1.5-1
		c-0.6,0.1-0.7,0.9-1.1,1.4c-0.6,0.8-0.8,0.8-1.6,0.1c-1.1-0.9-1.1-1-0.5-2.2c0.2-0.5,0.5-1,0.8-1.4c0.5-0.8,0.7-0.8,1.4-0.2
		c0.3,0.2,0.5,0.5,0.7,0.7c0.4,0.3,0.7,0.3,1-0.2c0.3-0.5,0.6-0.9,0.9-1.4c0.3-0.4,0.6-0.4,1-0.1C55.2,128.5,55.8,128.9,55.9,129.8z
		"/>
	<path class="st0" d="M15.9,143.5c-0.3,0.9-0.8,1.8-1.6,2.4c-0.2,0.1-0.4,0.1-0.5,0c-0.3-0.3-0.6-0.5-0.9-0.8
		c-0.5-0.4-0.8-0.4-1.2,0.1c-0.2,0.2-0.3,0.5-0.5,0.7c-0.8,1.1-0.8,1.1-1.8,0.2c-0.2-0.2-0.5-0.4-0.7-0.6c-0.2-0.2-0.2-0.4-0.1-0.7
		c0.5-0.9,0.9-1.8,1.4-2.6c0.2-0.4,0.6-0.4,0.9-0.1c0.3,0.3,0.5,0.6,0.8,0.9c0.5,0.5,0.8,0.5,1.2-0.1c0.3-0.4,0.4-0.8,0.7-1.2
		c0.4-0.6,0.7-0.6,1.2-0.2C15.4,142.1,15.7,142.7,15.9,143.5z"/>
	<path class="st0" d="M134.6,143.8c-0.1,1-0.7,1.8-1.5,2.4c-0.3,0.2-0.5,0-0.7-0.1c-0.5-0.4-0.8-1.1-1.6-1c-0.6,0.1-0.7,0.9-1,1.4
		c-0.6,0.7-0.7,0.7-1.4,0.2c-0.1-0.1-0.2-0.2-0.3-0.3c-1-0.8-1-0.8-0.4-2c0.4-0.7,0.8-1.3,1.2-1.9c0.2-0.4,0.5-0.4,0.8,0
		c0.3,0.3,0.6,0.6,0.9,1c0.4,0.4,0.7,0.3,1-0.1c0.3-0.5,0.6-1,0.9-1.5c0.1-0.2,0.3-0.4,0.6-0.2C134,142.1,134.5,142.8,134.6,143.8z"
		/>
	<path class="st0" d="M35.5,148.7c-0.5,2.3-1.2,4.5-2.2,6.6c0,0.1-0.2,0.2-0.2,0.2c-0.6,2.1-2.3,2.7-4.1,3.1
		c-0.4,0.1-0.9,0.2-1.3,0.3c-0.3,0.1-0.7,0.5-0.9,0c-0.2-0.4,0.4-0.6,0.6-0.7c0.7-0.5,1.4-1,2.1-1.4c1.9-1.2,3.3-2.8,4.1-5
		c0.4-1.1,1-2.2,1.4-3.3c0.1-0.2,0.2-0.4,0.4-0.3C35.6,148.3,35.6,148.5,35.5,148.7z"/>
	<path class="st0" d="M76.2,152.9c-0.3,1-0.6,2-1.5,2.7c-0.2,0.2-0.4,0.3-0.7,0.1c-0.5-0.4-1-0.8-1.5-1.2c-0.3-0.3-0.3-0.6-0.1-1
		c0.5-1,1-1.9,1.5-2.9c0.1-0.2,0.2-0.4,0.5-0.2C75.2,151.1,76.1,151.7,76.2,152.9z"/>
	<path class="st0" d="M196.1,133.7c-0.3,0.9-0.6,1.8-1.3,2.6c-0.2,0.2-0.4,0.2-0.7,0.1c-0.6-0.4-1.1-0.8-1.7-1.2
		c-0.2-0.1-0.2-0.3-0.1-0.5c0.4-0.9,0.9-1.9,1.4-2.8c0.3-0.4,0.6-0.4,1-0.1C195.3,132.3,195.9,132.9,196.1,133.7z"/>
	<path class="st0" d="M184.5,143.5c0,0.4-0.3,0.7-0.5,1.1c-1.1,2.1-0.6,2-2.8,0.6c-0.4-0.3-0.6-0.6-0.3-1.1c0.4-0.9,0.7-1.7,1.3-2.5
		c0.2-0.2,0.3-0.4,0.6-0.3C183.4,141.5,184.5,142.9,184.5,143.5z"/>
	<path class="st0" d="M157.9,131.4c-0.1,0.9-0.6,1.7-1.3,2.5c-0.1,0.2-0.3,0.2-0.5,0.1c0,0-0.1,0-0.1-0.1c-1.7-1.4-2.4-0.8-1-3.3
		c0.2-0.4,0.5-0.9,0.7-1.3c0.1-0.2,0.3-0.3,0.5-0.2C156.9,129.3,157.9,130.6,157.9,131.4z"/>
	<path class="st0" d="M42.9,172.4c-0.2,0.8-0.6,1.6-1.2,2.3c-0.2,0.3-0.5,0.3-0.8,0.1c-0.1,0-0.2-0.1-0.3-0.1
		c-1.5-1.1-1.8-0.9-0.9-2.8c0.2-0.5,0.5-1,0.8-1.5c0.2-0.3,0.4-0.4,0.8-0.3C42.1,170.3,43,171.6,42.9,172.4z"/>
	<path class="st0" d="M113.6,153c0.2,0.5,0.1,0.7,0,0.9c-0.5,1-0.3,1.9,0.6,2.7c0.9,0.9,1,1.6,0.5,2.5c-0.4,0.7-0.8,0.9-1.4,0.9
		c-0.5-0.1-1-0.6-1.1-1.3c-0.1-0.6-0.1-1.3,0-1.9C112.6,155.5,113,154.2,113.6,153z"/>
</g>
</svg>
