<?xml version="1.0" encoding="utf-8"?>
<!-- Generator: Adobe Illustrator 27.8.1, SVG Export Plug-In . SVG Version: 6.00 Build 0)  -->
<svg version="1.1" id="Layer_1" xmlns="http://www.w3.org/2000/svg" xmlns:xlink="http://www.w3.org/1999/xlink" x="0px" y="0px"
	 viewBox="0 0 100 100" style="enable-background:new 0 0 100 100;" xml:space="preserve">
<style type="text/css">
	.st0{fill:url(#SVGID_1_);}
	.st1{fill:url(#SVGID_00000023982890230852285610000014478235166022783119_);}
	.st2{fill:url(#SVGID_00000116919801567635735100000013592138517947071382_);}
	.st3{fill:url(#SVGID_00000055664957859443779280000005670121338345948862_);}
</style>
<g>
	
		<linearGradient id="SVGID_1_" gradientUnits="userSpaceOnUse" x1="161.9811" y1="102.8249" x2="131.8073" y2="-10.565" gradientTransform="matrix(1 0 0 1 -83.8616 0)">
		<stop  offset="7.621282e-02" style="stop-color:#EC1C24"/>
		<stop  offset="0.8" style="stop-color:#860507"/>
	</linearGradient>
	<path class="st0" d="M100,50c0-8.1-3.2-16.1-9.6-22.1c-8.5-7.9-20.3-10-30.5-6.5c3.9,1.3,7.6,3.5,10.8,6.5c6.4,6,9.6,14,9.6,22.1h0
		c0,0.1,0,0.3,0,0.4c0,0,0,0,0,0c-0.1,12.1-4.6,24.2-13.5,33.7C59.3,92.1,50,97,40.1,99c16.4,3.3,34.1-1.7,46.4-14.8
		C95.5,74.5,100,62.2,100,50L100,50z"/>
	
		<linearGradient id="SVGID_00000170963916683232437130000002611389414086413994_" gradientUnits="userSpaceOnUse" x1="112.3046" y1="25.3818" x2="138.3493" y2="83.506" gradientTransform="matrix(1 0 0 1 -83.8616 0)">
		<stop  offset="7.621282e-02" style="stop-color:#EC1C24"/>
		<stop  offset="0.8" style="stop-color:#860507"/>
	</linearGradient>
	<path style="fill:url(#SVGID_00000170963916683232437130000002611389414086413994_);" d="M9.6,72.1c8.5,7.9,20.3,10,30.5,6.5
		c-3.9-1.3-7.6-3.5-10.8-6.5c-6.4-6-9.6-14-9.6-22.1l0,0c0-0.1,0-0.2,0-0.3c0-0.1,0-0.1,0-0.2c0.1-12.1,4.6-24.1,13.5-33.6
		C40.7,7.9,50,3,59.9,1C43.5-2.3,25.8,2.7,13.5,15.8C4.5,25.5,0,37.8,0,50h0C0,58.1,3.2,66.1,9.6,72.1z"/>
	
		<linearGradient id="SVGID_00000022551296445390937250000017526666625542988439_" gradientUnits="userSpaceOnUse" x1="160.8542" y1="46.3197" x2="81.1313" y2="87.2928" gradientTransform="matrix(1 0 0 1 -83.8616 0)">
		<stop  offset="0.2" style="stop-color:#860507"/>
		<stop  offset="0.2278" style="stop-color:#91080A"/>
		<stop  offset="0.3212" style="stop-color:#B20F13"/>
		<stop  offset="0.4176" style="stop-color:#CB151B"/>
		<stop  offset="0.5171" style="stop-color:#DE1920"/>
		<stop  offset="0.6215" style="stop-color:#E81B23"/>
		<stop  offset="0.7389" style="stop-color:#EC1C24"/>
	</linearGradient>
	<path style="fill:url(#SVGID_00000022551296445390937250000017526666625542988439_);" d="M80.2,50.4L80.2,50.4c0,0.2,0,0.5,0,0.7
		C80,63,75.5,74.8,66.7,84.2C59.3,92.1,50,97,40.1,99c-8.8-1.8-17.2-5.9-24.3-12.5C5.3,76.7,0,63.4,0,50h0c0,8.1,3.2,16.1,9.6,22.1
		c8.5,7.9,20.3,10,30.5,6.5c4.5-1.6,8.7-4.2,12.2-7.9c5.5-5.8,8.2-13.3,8.2-20.7h19.8C80.2,50.1,80.2,50.3,80.2,50.4z"/>
	
		<linearGradient id="SVGID_00000146473125740660714940000004982517045491676559_" gradientUnits="userSpaceOnUse" x1="94.6025" y1="48.1102" x2="180.3602" y2="19.8419" gradientTransform="matrix(1 0 0 1 -83.8616 0)">
		<stop  offset="0.2" style="stop-color:#960C10"/>
		<stop  offset="0.3074" style="stop-color:#B21117"/>
		<stop  offset="0.4331" style="stop-color:#CB161C"/>
		<stop  offset="0.5635" style="stop-color:#DE1921"/>
		<stop  offset="0.7005" style="stop-color:#E81B23"/>
		<stop  offset="0.8546" style="stop-color:#EC1C24"/>
	</linearGradient>
	<path style="fill:url(#SVGID_00000146473125740660714940000004982517045491676559_);" d="M100,50L100,50c0-8.1-3.2-16.1-9.6-22.1
		c-8.5-7.9-20.3-10-30.5-6.5c-4.5,1.6-8.7,4.2-12.2,7.9c-5.5,5.8-8.2,13.3-8.2,20.7H19.8c0-0.1,0-0.2,0-0.3c0-0.1,0-0.1,0-0.2
		c0.1-12.1,4.6-24.1,13.5-33.6C40.7,7.9,50,3,59.9,1c8.8,1.8,17.2,5.9,24.3,12.5C94.7,23.3,100,36.7,100,50z"/>
</g>
</svg>
